<svg xmlns="http://www.w3.org/2000/svg" xmlns:xlink="http://www.w3.org/1999/xlink" width="281.4289059650092" height="197.01004999933843" viewBox="0 0 281.4289059650092 197.01004999933843" fill="none"><g opacity="1" transform="translate(0 0)  rotate(0 140.7144529825046 98.50502499966922)"><path id="路径 114" fill-rule="evenodd" style="fill:#F8F8FF" transform="translate(0 0)  rotate(0 138.50865936034057 98.50502499966922)" opacity="1" d="M54.86 197.01C54.86 197.01 3.12 196.04 12.27 145.69C17.0192 119.591 22.1846 114.115 25.0267 111.102C26.7627 109.262 27.6319 108.341 27.01 104.2C22.79 76.08 13.37 73.62 6.12 59.43C-0.48 46.52 -5.81 25.4 12.82 10.29C41.76 -13.18 77.24 10.84 77.24 10.84C77.24 10.84 133.48 43.05 143.3 44.69C145.272 45.0191 147.816 45.9416 150.865 47.0473C163.011 51.4523 183.176 58.7652 207.18 43.05C237.21 23.4 262.87 25.03 271.06 39.78C279.25 54.52 260.68 97.1 256.32 105.84C251.95 114.57 258.5 141.87 265.6 152.79L265.782 153.071C273.062 164.277 294.676 197.551 247.03 196.46C198.99 195.37 54.86 197.01 54.86 197.01Z" /><path id="椭圆 89" fill-rule="evenodd" style="fill:#BAC5F4" transform="translate(34.65812540165473 78.53823298273687)  rotate(0 10.919060707092285 10.919060707092285)" opacity="1" d="M10.92,0C4.89,0 0,4.89 0,10.92C0,16.95 4.89,21.84 10.92,21.84C16.95,21.84 21.84,16.95 21.84,10.92C21.84,4.89 16.95,0 10.92,0Z " /><path id="椭圆 90" fill-rule="evenodd" style="fill:#BAC5F4" transform="translate(19.917393208661565 95.46277064142828)  rotate(0 7.370365619659424 7.37036657333374)" opacity="1" d="M7.37,0C3.3,0 0,3.3 0,7.37C0,11.44 3.3,14.74 7.37,14.74C11.44,14.74 14.74,11.44 14.74,7.37C14.74,3.3 11.44,0 7.37,0Z " /><path id="椭圆 91" fill-rule="evenodd" style="fill:#BAC5F4" transform="translate(24.285019398847112 81.81394404230718)  rotate(0 4.0946478843688965 4.094647407531738)" opacity="1" d="M4.09,0C1.83,0 0,1.83 0,4.09C0,6.36 1.83,8.19 4.09,8.19C6.36,8.19 8.19,6.36 8.19,4.09C8.19,1.83 6.36,0 4.09,0Z " /><path id="椭圆 92" fill-rule="evenodd" style="fill:#BAC5F4" transform="translate(259.59078455082465 152.241876781565)  rotate(0 10.919060707092285 10.919060707092285)" opacity="1" d="M10.92,0C4.89,0 0,4.89 0,10.92C0,16.95 4.89,21.84 10.92,21.84C16.95,21.84 21.84,16.95 21.84,10.92C21.84,4.89 16.95,0 10.92,0Z " /><path id="椭圆 93" fill-rule="evenodd" style="fill:#BAC5F4" transform="translate(4.084756852307805 29.948410213571833)  rotate(0 4.0946478843688965 4.094647407531738)" opacity="1" d="M4.09,0C1.83,0 0,1.83 0,4.09C0,6.36 1.83,8.19 4.09,8.19C6.36,8.19 8.19,6.36 8.19,4.09C8.19,1.83 6.36,0 4.09,0Z " /><path id="椭圆 94" fill-rule="evenodd" style="fill:#E1E6FB" transform="translate(57.04220438114692 142.96067255793218)  rotate(0 19.381332397460938 19.381332397460938)" opacity="1" d="M19.38,0C8.68,0 0,8.68 0,19.38C0,30.09 8.68,38.76 19.38,38.76C30.09,38.76 38.76,30.09 38.76,19.38C38.76,8.68 30.09,0 19.38,0Z " /><path id="椭圆 95" fill-rule="evenodd" style="fill:#E1E6FB" transform="translate(191.34664392582465 164.79880732355718)  rotate(0 13.102873802185059 13.102872848510742)" opacity="1" d="M13.1,0C5.87,0 0,5.87 0,13.1C0,20.34 5.87,26.21 13.1,26.21C20.34,26.21 26.21,20.34 26.21,13.1C26.21,5.87 20.34,0 13.1,0Z " /><path id="椭圆 96" fill-rule="evenodd" style="fill:#E1E6FB" transform="translate(247.57982874027778 103.1061117058814)  rotate(0 7.0973896980285645 7.0973896980285645)" opacity="1" d="M7.1,0C3.18,0 0,3.18 0,7.1C0,11.02 3.18,14.19 7.1,14.19C11.02,14.19 14.19,11.02 14.19,7.1C14.19,3.18 11.02,0 7.1,0Z " /><path id="椭圆 97" fill-rule="evenodd" style="fill:#E1E6FB" transform="translate(187.5249733935981 32.13222330866461)  rotate(0 14.194779396057129 14.194779396057129)" opacity="1" d="M14.19,0C6.36,0 0,6.36 0,14.19C0,22.03 6.36,28.39 14.19,28.39C22.03,28.39 28.39,22.03 28.39,14.19C28.39,6.36 22.03,0 14.19,0Z " /><path id="椭圆 98" fill-rule="evenodd" style="fill:#E1E6FB" transform="translate(64.68554163090278 1.5588528519690499)  rotate(0 6.824413299560547 6.824412822723389)" opacity="1" d="M6.82,0C3.06,0 0,3.06 0,6.82C0,10.59 3.06,13.65 6.82,13.65C10.59,13.65 13.65,10.59 13.65,6.82C13.65,3.06 10.59,0 6.82,0Z " /><path id="椭圆 99" fill-rule="evenodd" style="fill:#E1E6FB" transform="translate(42.847425938764104 137.501154125315)  rotate(0 6.824413299560547 6.824412822723389)" opacity="1" d="M6.82,0C3.06,0 0,3.06 0,6.82C0,10.59 3.06,13.65 6.82,13.65C10.59,13.65 13.65,10.59 13.65,6.82C13.65,3.06 10.59,0 6.82,0Z " /><path id="椭圆 100" fill-rule="evenodd" style="fill:#BAC5F4" transform="translate(262.866510869184 58.33796900568609)  rotate(0 6.824413299560547 6.824412822723389)" opacity="1" d="M6.82,0C3.06,0 0,3.06 0,6.82C0,10.59 3.06,13.65 6.82,13.65C10.59,13.65 13.65,10.59 13.65,6.82C13.65,3.06 10.59,0 6.82,0Z " /><path id="椭圆 101" fill-rule="evenodd" style="fill:#BAC5F4" transform="translate(251.40148401371528 173.53405207453375)  rotate(0 7.370365619659424 7.37036657333374)" opacity="1" d="M7.37,0C3.3,0 0,3.3 0,7.37C0,11.44 3.3,14.74 7.37,14.74C11.44,14.74 14.74,11.44 14.74,7.37C14.74,3.3 11.44,0 7.37,0Z " /><path id="椭圆 102" fill-rule="evenodd" style="fill:#BAC5F4" transform="translate(271.0558114062934 180.63144892511968)  rotate(0 4.0946478843688965 4.094647407531738)" opacity="1" d="M4.09,0C1.83,0 0,1.83 0,4.09C0,6.36 1.83,8.19 4.09,8.19C6.36,8.19 8.19,6.36 8.19,4.09C8.19,1.83 6.36,0 4.09,0Z " /></g></svg>