<svg xmlns="http://www.w3.org/2000/svg" xmlns:xlink="http://www.w3.org/1999/xlink" width="252.85999999999996" height="160.16000317833385" viewBox="0 0 252.85999999999996 160.16000317833385" fill="none"><g opacity="1" transform="translate(0 0)  rotate(0 126.42999999999998 80.08000158916693)"><path id="路径 472" fill-rule="evenodd" style="fill:#D4EEFF" transform="translate(25.278690873471305 126.85000317833385)  rotate(0 113.79065456326433 7.914999999999992)" opacity="1" d="M0,7.92C-0.3,12.3 51,15.83 113.79,15.83C176.58,15.83 227.58,12.29 227.58,7.92C227.58,3.55 176.63,0.03 113.79,0C53.67,0 0.3,3.54 0,7.92Z " /><path id="路径 473" fill-rule="evenodd" style="fill:#D4EEFF" transform="translate(92.20999999999992 136.0500031783339)  rotate(0 75.10000000000001 7.9199999999999875)" opacity="1" d="M0,7.92C0,12.3 33.62,15.84 75.1,15.84C116.58,15.84 150.2,12.29 150.2,7.92C150.2,3.55 116.57,0 75.1,0C33.62,0 0,3.54 0,7.92Z " /><path id="路径 474" fill-rule="evenodd" style="fill:#D4EEFF" transform="translate(0 139.48000317833396)  rotate(0 75.09999999999998 7.9199999999999875)" opacity="1" d="M0,7.92C0,12.29 33.63,15.84 75.1,15.84C116.57,15.84 150.2,12.29 150.2,7.92C150.2,3.55 116.55,0 75.1,0C33.63,0 0,3.55 0,7.92Z " /><path id="路径 475" fill-rule="evenodd" style="fill:#D4EEFF" transform="translate(73.78999999999996 144.33000317833387)  rotate(0 75.09999999999998 7.914999999999992)" opacity="1" d="M0,7.91C0,12.28 33.63,15.83 75.1,15.83C116.57,15.83 150.2,12.29 150.2,7.91C150.2,3.53 116.58,0 75.1,0C33.63,0 0,3.54 0,7.91Z " /><path id="路径 476" fill-rule="evenodd" style="fill:#387BFE" transform="translate(73.48999999999995 122.91000317833391)  rotate(0 8.0639061451364 10.42000550015436)" opacity="1" d="M0,0C1.45,13.62 6.85,20.84 13.77,20.84C18.66,20.85 15.61,14.04 7.7,8.63C1.97,4.73 0.7,1.86 0,0Z " /><path id="路径 477" fill-rule="evenodd" style="fill:#143549" transform="translate(84.9648564081732 111.22000317833397)  rotate(0 6.616887081491228 16)" opacity="1" d="M3.17,0C6.27,7.18 0.8,8.51 0.07,21.36C-0.15,25.24 -0.06,32 4.45,32C9.24,32 17.11,23.39 11.02,7.32C11.18,11.7 7.59,16.5 7.33,17C7.48,14.71 8.33,7.23 3.17,0Z " /><path id="路径 478" fill-rule="evenodd" style="fill:#FFFFFF" transform="translate(90.02143020092217 124.87000317833383)  rotate(0 8.194284899538872 9.35347994827768)" opacity="1" d="M11.51,9C13.07,2.63 14.94,1.5 16.39,0C4.42,3.6 -0.42,16.85 0.03,18.59C0.2,19.26 9.51,17.18 11.51,9Z " /><path id="路径 479" fill-rule="evenodd" style="fill:#3CB6D5" transform="translate(89.22877298393848 124.2900031783339)  rotate(0 4.980613508030714 9.656354666942107)" opacity="1" d="M2.62,17.7C3.04,17.07 4.45,17.12 4.79,16.03C5.13,14.94 4.57,14.29 4.79,13.79C5.01,13.29 6.63,12.95 7.26,11.39C7.89,9.83 6.77,8.79 6.97,8.3C7.36,7.36 8.42,7.37 8.48,5.89C8.48,5.44 8.27,4.83 8.4,4.4C8.53,3.97 8.88,3.74 9.14,3.4C9.84,2.4 9.68,1.13 9.96,0C9.32,1.53 7.54,1.34 6.51,2.25C5.68,2.96 6.11,4.84 5.46,5.57C4.81,6.3 3.46,6.07 3.05,7.33C2.87,7.92 3.3,8.98 3.11,9.5C2.92,10.02 1.98,10.64 1.79,11.35C1.65,11.85 2.12,12.42 2.01,12.89C1.7,14.24 -0.99,15.89 0.39,17.52C0.01,18.63 0.11,19.08 0.68,19.25C1.91,19.61 2.2,18.33 2.62,17.7Z " /><path id="路径 480" fill-rule="evenodd" style="fill:#5BBAA6" transform="translate(70.46179220063055 108.09780078077108)  rotate(0 11.261964659466344 17.85121964588234)" opacity="1" d="M16.08,25.91C15.62,25.19 15.08,24.52 14.47,23.91C14.04,23.43 12.06,22.22 11.67,23.63C11.28,25.04 13.78,25.43 14.56,25.63C15.2,25.8 15.77,26.15 16.22,26.63C16.22,26.81 16.67,29.13 16.87,30.09C15.99,28.58 10.6,23.54 9.97,27.26C9.56,29.64 14.28,28.91 15.52,29.38C16.12,29.57 16.64,29.98 16.96,30.52C17.08,31.08 17.21,31.64 17.36,32.19C16.06,30.9 13.07,28.54 12.51,31.07C11.85,34.07 15.36,32.37 16.15,32.58C16.94,32.79 17.58,32.79 17.79,33.64C18,34.28 18.25,34.9 18.54,35.5C18.75,35.94 19.43,35.58 19.25,35.14C18.91,34.27 18.63,33.39 18.38,32.5C19.27,31.59 21.6,30.96 22.15,30.19C22.98,29.04 22.35,28.04 21.09,28.34C19.89,28.62 18.71,30.15 18.26,31.6C18.06,30.82 17.89,30.03 17.73,29.24C18.36,28.24 19.85,28.07 20.41,26.85C20.97,25.63 19.81,24.63 18.72,25.61C18.12,26.39 17.71,27.3 17.54,28.26L17.09,26.34C17,25.85 16.9,25.34 16.79,24.88C17.58,24.02 19.65,23.5 19.43,21.88C19.27,20.72 17.96,20.26 17.32,21.41C16.94,22.16 16.67,22.96 16.53,23.78C16.31,22.88 16.06,21.99 15.78,21.12C16.6,20 19.07,19.58 19.11,17.9C19.11,16.53 17.45,16.68 16.7,17.56C16.07,18.52 15.72,19.64 15.7,20.79C15.48,20.14 15.25,19.5 14.99,18.86C15.56,17.86 17.06,16.86 16.99,15.43C16.92,14 15.55,12.95 14.68,14.59C14.29,15.57 14.2,16.64 14.43,17.66C14.11,16.96 13.76,16.29 13.43,15.66C13.51,15.11 13.64,14.58 13.82,14.05C14.05,13.37 14.48,12.67 14.22,11.97C13.77,10.75 12.98,11.65 12.78,12.59C12.66,13.32 12.7,14.06 12.91,14.76C12.48,14.02 11.79,12.92 11.3,12.22C11.37,10.84 13.84,7.51 11.52,7.99C10.42,8.21 10.52,10.46 10.9,11.74C10.62,11.37 9.9,10.51 9.9,10.45C9.99,9.3 10.9,5.59 9.33,5.84C8.06,6.04 8.64,8.11 9.02,9.1C9.07,9.23 9.13,9.41 9.2,9.61C8.73,9.06 8.2,8.51 7.72,7.98C7.9,7.45 8.01,6.9 8.03,6.34C8.03,5.93 7.95,4.18 7.03,5.04C6.7,5.36 6.86,6.6 7.14,7.42C6.77,7.05 6.38,6.7 5.99,6.35C3.6,3.56 3.99,-0.91 1.61,0.16C-1.18,1.43 0.31,3.61 1.26,4.32C2.47,5.18 3.82,5.81 5.26,6.18C5.67,6.57 7.26,8.35 7.5,8.58C5.94,7.46 2.82,5.27 2.3,7.09C1.84,8.7 6.23,8.64 7.85,8.99C8.46,9.7 9.9,11.56 10.04,11.76C9.38,11.16 8.64,10.68 7.83,10.31C7.1,10.11 5.53,10.21 5.77,11.15C6.12,12.49 8.09,12.15 9.1,12.15C9.83,12.15 10.19,12.37 10.37,12.26C11.04,13.26 11.66,14.26 12.24,15.26C11.15,14.13 8.24,11.88 7.63,13.69C6.83,16.03 10.81,14.99 12.39,15.54C12.97,16.59 13.5,17.68 13.97,18.78C13.31,17.78 12.44,16.95 11.41,16.34C10.41,15.84 8.74,15.89 9.2,17.62C9.53,18.88 11.8,18.51 12.98,18.85C13.5,19 13.92,19.26 14.2,19.35C14.61,20.35 14.96,21.45 15.27,22.53C13.07,21.47 10.53,17.38 9.51,19.84C8.62,22 12.96,21.24 15.37,22.91C15.64,23.91 15.87,24.91 16.08,25.91Z " /><path id="路径 481" fill-rule="evenodd" style="fill:#346790" transform="translate(173.72366811723793 124.93452855739667)  rotate(0 26.720064300145253 9.20773731046863)" opacity="1" d="M11.25,13.64C11.52,13.35 11.76,13.04 11.93,12.82C12.53,12.14 12.88,11.28 12.93,10.38C12.93,9.45 12.26,8.49 11.48,8.62C10.7,8.75 10.4,9.51 10.26,10.27C10.12,11.03 10.19,11.83 10.07,12.59C9.97,13.05 9.82,13.51 9.63,13.95C8.24,14.2 6.84,14.39 5.45,14.56C6.18,13.75 6.78,12.84 7.24,11.85C7.53,11.16 7.6,10.4 7.44,9.67C7.24,8.96 6.61,8.39 5.99,8.55C5.37,8.71 4.99,9.55 4.92,10.32C4.87,10.8 4.42,13.87 4.48,14.68C3.12,14.84 1.75,14.99 0.39,15.17C-0.11,15.24 -0.14,16.07 0.39,16.11C2.19,16.22 4,16.17 5.79,15.94C6.15,16.34 6.48,16.77 6.79,17.23C6.94,17.57 7.08,17.93 7.2,18.3L10.09,18.3L10.09,18.25C9.36,17.16 8.33,16.29 7.14,15.76C8.28,15.59 9.41,15.38 10.52,15.15L10.83,15.31C11.37,15.52 11.84,15.87 12.23,16.31C12.51,16.71 12.74,17.15 12.92,17.61C13.04,17.86 13.18,18.1 13.34,18.34L17.04,18.34C16.93,18.12 16.81,17.91 16.67,17.72C15.79,16.58 14.58,15.76 13.2,15.38C12.61,15.2 12.02,15.08 11.42,15.01C12.85,14.71 14.26,14.36 15.67,14.01C16.17,14.32 16.61,14.73 16.97,15.22L18.47,17.22C18.77,17.64 19.11,18.04 19.47,18.42L23.95,18.42C24.02,18.29 24.07,18.14 24.1,18C24.1,17.42 23.85,16.88 23.41,16.52C22.33,15.41 21.01,14.57 19.56,14.07C18.87,13.83 18.16,13.65 17.45,13.54C18.72,13.15 19.98,12.74 21.24,12.3C22.69,12.71 24.04,13.45 25.17,14.46C25.83,15.08 26.42,15.81 27.1,16.46C27.72,17.09 28.54,17.48 29.43,17.57C30.16,17.62 30.82,17.12 30.97,16.41C30.99,16.16 30.97,15.91 30.91,15.67C30.38,14.17 29.1,13.05 27.55,12.75C25.85,12.19 24.08,11.93 22.3,11.97C23.91,11.38 25.52,10.75 27.11,10.07C28.01,10.49 28.84,11.06 29.56,11.77C30.73,12.96 32,14.06 33.36,15.06C34.18,15.67 35.24,15.9 36.25,15.69C36.41,15.64 36.56,15.55 36.67,15.43C36.85,15.12 36.88,14.75 36.75,14.43C36.5,13.65 36.04,12.96 35.43,12.43C34.01,11.14 32.25,10.31 30.36,10.03C29.45,9.87 28.53,9.8 27.62,9.82C29.16,9.17 30.68,8.48 32.2,7.82L32.51,7.67C33.28,8.5 34.12,9.27 34.91,10.06C35.7,10.85 36.6,11.7 37.65,11.68C37.99,11.68 38.31,11.54 38.56,11.31C38.96,10.79 39.05,10.09 38.8,9.49C38.56,8.92 38.15,8.44 37.64,8.11C36.64,7.45 35.53,6.99 34.36,6.76C35.23,6.33 36.1,5.9 36.98,5.52C36.97,5.54 36.97,5.56 36.98,5.58C38.27,6.58 39.28,8.08 40.61,9.03C41.62,9.77 42.9,10.02 44.12,9.74C44.45,9.65 44.84,9.46 44.91,9.07C44.94,8.75 44.85,8.43 44.65,8.18C43.75,6.89 42.44,5.95 40.93,5.54C40.02,5.25 39.07,5.09 38.12,5.05C39.59,4.44 41.16,4.11 42.76,4.05L42.83,4.05C43.76,4.14 44.68,4.35 45.57,4.68C46.66,5.1 47.72,5.68 48.83,6.01C49.92,6.42 51.12,6.42 52.22,6.01C53.09,5.67 53.6,4.74 53.4,3.83C53.27,3.36 52.97,2.97 52.56,2.73C49.11,0.49 43.25,0.1 40.11,3.44C38.53,3.74 37.01,4.24 35.56,4.93C36.77,4.27 37.68,3.17 38.08,1.85C38.39,0.19 37.03,0.06 36.01,0.73C34.99,1.4 35.14,2.11 34.88,3.31C34.65,4.31 34.25,5.13 34.17,5.56L32.74,6.22L30.58,7.17C30.83,6.91 31.08,6.66 31.18,6.54C32.18,5.38 33.49,4.02 33.8,2.35C34.11,0.68 32.87,-0.55 31.48,0.26C30.32,0.94 30.79,2.72 30.74,4C30.65,5.15 30.41,6.29 30.05,7.4C28.83,7.92 27.61,8.4 26.38,8.91C27.55,7.93 28.5,6.71 29.15,5.33C29.9,3.38 27.85,2.95 26.62,3.49C25.39,4.03 25.26,5.62 25.02,7C24.83,7.93 24.57,8.85 24.22,9.74L22.29,10.45L20.78,10.97C21.66,10.06 22.3,8.94 22.64,7.72C22.8,7.06 23.15,5.82 22.64,5.27C21.99,4.56 20.98,5.27 20.53,5.84C19.42,7.36 19.8,9.96 19.1,11.52C17.82,11.93 16.53,12.32 15.23,12.67C16.28,11.84 17.17,10.82 17.84,9.67C18.33,8.9 18.39,7.93 18.01,7.11C17.71,6.77 17.28,6.59 16.84,6.61C16.39,6.63 15.98,6.86 15.73,7.23C15.15,8.02 14.76,8.93 14.57,9.9C14.11,10.95 13.73,12.03 13.43,13.14C12.82,13.29 12.21,13.44 11.59,13.57L11.25,13.64Z " /><path id="路径 482" fill-rule="evenodd" style="fill:#387BFE" transform="translate(160.70851276838215 85.96124842039887)  rotate(0 28.510743615808906 28.634377378967557)" opacity="1" d="M0.39,57.27L20.62,57.27C44.02,43.17 25.62,18.57 57.02,0.19C38.33,-3.51 0.89,48.34 0.02,54.49C-0.05,55.43 0.07,56.38 0.39,57.27Z " /><path id="路径 483" fill-rule="evenodd" style="fill:#3CB6D5" transform="translate(172.06506235314828 108.2028295101502)  rotate(0 20.062468823425803 17.528586834091854)" opacity="1" d="M31.15,4.47C30.21,4.72 29.2,4.21 28.06,4.78C27.02,5.34 26.08,6.09 25.29,6.99C23.71,8.71 23.11,10.66 21.96,12.62C20.9,14.42 18.67,14.62 16.78,15.62C14.01,17.06 11.62,19.14 9.78,21.67C8.71,23.09 7.9,25.67 6.55,26.5C5.55,27.1 4.2,27.12 3.19,27.83C2.06,28.74 1.14,29.91 0.53,31.24C-0.24,32.41 -0.17,33.96 0.71,35.06L8.71,35.06C10.82,34.41 12.72,33.24 14.24,31.66C15.24,30.45 14.76,30.17 16.04,29.76C18.23,29.05 20.24,29.25 22.04,27.47C23.47,26.01 24.56,24.26 25.24,22.35C25.68,21.03 25.35,20.28 26.42,19.42C28.1,18.07 30.04,17.68 31.51,15.91C32.5,14.63 33.29,13.21 33.86,11.71C34.1,10.83 34.26,9.93 34.32,9.02C34.74,7.4 36.63,6.87 37.68,5.52C38.77,3.91 39.6,2.14 40.12,0.27C38.34,-0.54 35.67,0.65 34.15,1.73C33.05,2.52 32.4,4.14 31.15,4.47Z " /><path id="路径 484" fill-rule="evenodd" style="fill:#3CB6D5" transform="translate(150.40362134625423 100.73000317833396)  rotate(0 7.271735978186285 21.250000000000014)" opacity="1" d="M13.69,42.5C13.77,41.89 13.83,41.28 13.93,40.71C14.65,36.71 14.74,32.61 14.2,28.58C13.64,25.09 13.15,21.56 12.37,18.11C11.79,15.55 11.22,12.31 9.51,10.23C9.25,11.5 8.93,12.79 8.74,14.07C8.61,14.96 8.74,15.92 8.6,16.77C7.82,13.62 6.6,10.59 4.99,7.77C3.57,5.32 2.3,1.92 0.19,0C-0.12,2.97 -0.05,5.96 0.39,8.91C0.89,12.81 1.42,16.7 1.96,20.59C2.85,26.38 4.23,32.08 6.08,37.64C6.44,38.8 6.78,40.75 7.39,42.5L13.69,42.5Z " /><path id="路径 485" fill-rule="evenodd" style="fill:#5BBAA6" transform="translate(155.02434645906192 68.39321305949898)  rotate(0 24.354045334329953 37.42339505941749)" opacity="1" d="M12.1,66.87C12.78,65.65 13.9,64.75 15.24,64.35C17.93,63.29 28.24,64.83 27.33,59.63C25.89,51.51 14.2,62.63 12.33,65.93C12.75,63.81 13.63,58.75 13.7,58.35C14.64,57.29 15.86,56.53 17.23,56.15C18.92,55.69 24.36,54.76 23.51,51.73C22.66,48.7 18.33,51.33 17.4,52.38C16.07,53.72 14.91,55.2 13.92,56.81C14.36,54.6 14.85,52.41 15.41,50.26C20.65,46.56 30.16,48.17 28.17,43.45C25.91,38.1 20.41,47.08 15.64,49.45C16.29,47.08 17.04,44.76 17.92,42.45C18.52,42.26 19.44,41.68 20.58,41.35C23.14,40.6 28.11,41.35 28.82,38.61C29.82,34.83 26.24,34.74 23.96,35.85C21.46,37.06 20.05,39.18 18.42,41.21C18.41,41.18 18.41,41.15 18.42,41.12C19.43,38.69 20.56,36.33 21.81,34.02C25.27,32.79 33.98,35.02 32.2,29.92C30.81,25.98 24.5,30.92 22.2,33.41C23.44,31.16 24.77,28.97 26.2,26.85C26.59,27.09 27.38,26.58 28.96,26.6C31.17,26.6 35.48,27.38 36.22,24.45C36.74,22.39 33.3,22.2 31.71,22.63C29.91,23.12 28.42,24.84 26.91,25.84C27.22,25.4 30.32,21.31 31.64,19.75C35.17,18.96 44.77,19.03 43.74,15.52C42.57,11.52 35.79,16.4 32.4,18.87C32.85,18.35 36.4,14.44 37.25,13.59C40.39,12.76 43.34,11.36 45.97,9.45C48.06,7.86 51.29,3.08 45.17,0.35C40.02,-1.96 40.88,7.8 35.7,13.94C34.85,14.69 34.01,15.48 33.21,16.29C33.81,14.48 34.14,11.79 33.4,11.08C31.48,9.21 31.28,13.08 31.32,13.95C31.38,15.16 31.62,16.36 32.02,17.51C30.9,18.67 29.84,19.87 28.83,21.1C28.98,20.67 29.11,20.26 29.21,19.98C30.03,17.82 31.27,13.29 28.48,12.87C24.96,12.34 27.09,20.45 27.31,22.95C27.2,23.08 25.73,24.95 25.13,25.79C25.81,22.98 26.13,18.07 23.71,17.59C18.63,16.59 24.09,23.82 24.26,26.85C23.2,28.38 21.72,30.79 20.78,32.4C21.21,30.85 21.29,29.24 21.03,27.66C20.57,25.66 18.85,23.66 17.88,26.32C17.31,27.86 18.26,29.4 18.78,30.87C19.18,32.01 19.47,33.18 19.66,34.38C18.86,35.84 18.12,37.32 17.44,38.84C17.78,36.52 17.84,34.04 16.84,32.16C14.92,28.58 11.84,31.05 11.84,34.03C11.84,37.01 15.09,39.25 16.34,41.49C15.79,42.88 15.28,44.28 14.82,45.7C14.48,43.23 14.13,40.53 12.51,38.7C10.89,36.87 7.17,36.49 7.25,39.48C7.36,43.16 12.76,44.05 14.58,46.48C13.98,48.38 13.44,50.32 12.98,52.3C12.66,50.49 12.06,48.75 11.22,47.13C9.81,44.63 6.95,45.67 6.63,48.13C6.17,51.73 10.69,52.83 12.43,54.71C12.21,55.77 12,56.83 11.8,57.9C11.58,59.14 11.26,60.9 11.03,62.09C10.49,59.98 9.54,57.34 8.39,56.32C6.01,54.2 3.39,56.26 4.74,59.06C6.09,61.86 9.24,62.06 10.62,64.24C10.28,65.97 9.92,67.69 9.5,69.39C8.5,66.24 5.89,62.92 3.28,62.33C0.41,61.68 -0.95,63.88 0.75,66.21C1.98,67.88 7.08,69.21 9.03,71.21C8.7,72.44 8.32,73.65 7.91,74.85L9.91,74.85C10.05,74.46 10.2,74.07 10.33,73.67C10.78,71.83 12.39,71.74 13.89,71.33C15.62,70.87 23.31,74.49 21.83,67.99C20.57,62.48 14.07,67.67 11.26,70.51C11.57,69.31 11.85,68.09 12.1,66.87Z " /><path id="路径 486" fill-rule="evenodd" style="fill:#346790" transform="translate(94.21217859942493 128.734193298661)  rotate(0 21.07968397952763 7.277904939836475)" opacity="1" d="M20.78 7.89C20.06 8.22 19.4 8.67 18.84 9.23C17.91 10.17 16.9 11.03 15.84 11.82C15.18 12.3 14.35 12.48 13.56 12.32C13.43 12.28 13.31 12.21 13.23 12.11C13.09 11.87 13.06 11.59 13.17 11.34C13.35 10.73 13.7 10.19 14.17 9.77C15.29 8.75 16.68 8.09 18.17 7.87C18.88 7.75 19.6 7.69 20.33 7.71C19.12 7.19 17.91 6.65 16.72 6.09L16.47 5.98C15.87 6.64 15.2 7.24 14.57 7.87C14.05 8.56 13.27 9.01 12.42 9.14C12.15 9.14 11.89 9.04 11.7 8.86C11.38 8.44 11.31 7.9 11.51 7.42C11.7 6.97 12.02 6.59 12.42 6.32C13.21 5.8 14.09 5.44 15.01 5.26C14.33 4.9 13.64 4.57 12.94 4.26C11.92 5.06 11.08 6.23 10.08 6.98C9.28 7.56 8.27 7.77 7.31 7.54C7.01 7.5 6.76 7.29 6.68 7.01C6.66 6.76 6.73 6.51 6.89 6.32C7.59 5.29 8.63 4.55 9.83 4.23C10.54 4 11.29 3.87 12.04 3.84C10.87 3.36 9.63 3.09 8.38 3.04C7.64 3.11 6.91 3.27 6.22 3.53C5.35 3.86 4.52 4.31 3.65 4.59C2.78 4.91 1.83 4.91 0.97 4.59C0.27 4.33 -0.13 3.59 0.04 2.87C0.17 2.57 0.4 2.33 0.69 2.18C3.41 0.42 8.04 0.11 10.51 2.75C11.75 2.98 12.96 3.38 14.1 3.92C13.13 3.41 12.41 2.53 12.1 1.49C11.85 0.18 12.84 0.08 13.73 0.61C14.62 1.14 14.44 1.83 14.62 2.61C14.8 3.39 15.12 4.05 15.18 4.39C15.56 4.56 15.93 4.74 16.31 4.9L18.01 5.66C17.81 5.45 17.62 5.26 17.54 5.16C16.58 4.25 15.87 3.11 15.47 1.86C15.23 0.55 16.21 -0.43 17.3 0.2C18.0304 0.660499 17.9666 1.65051 17.9093 2.53942C17.8944 2.7701 17.88 2.99396 17.88 3.2C17.95 4.11 18.13 5.01 18.43 5.88C19.39 6.29 20.33 6.69 21.33 7.07C20.39 6.3 19.64 5.33 19.14 4.24C18.55 2.71 20.08 2.33 21.14 2.79C22.2 3.25 22.21 4.47 22.4 5.56C22.54 6.3 22.75 7.02 23.03 7.73L24.56 8.29L25.75 8.7C25.05 7.98 24.54 7.09 24.28 6.13C24.2599 6.04961 24.2338 5.96062 24.206 5.86562C24.0538 5.34605 23.8488 4.64652 24.28 4.19C24.79 3.65 25.59 4.16 25.94 4.65C26.82 5.84 26.52 7.9 27.07 9.13C28.08 9.46 29.13 9.76 30.13 10.04C29.29 9.39 28.59 8.58 28.07 7.67C27.68 7.07 27.63 6.31 27.93 5.67C28.16 5.4 28.5 5.26 28.85 5.28C29.2 5.29 29.52 5.47 29.73 5.76C30.18 6.39 30.49 7.11 30.65 7.87C31.01 8.7 31.31 9.55 31.54 10.43L33 10.77L33.27 10.83C33.05 10.59 32.86 10.35 32.73 10.18C32.25 9.64 31.96 8.96 31.92 8.25C31.92 7.52 32.5 6.78 33.06 6.86C33.62 6.94 33.9 7.56 34.06 8.16C34.22 8.76 34.12 9.39 34.22 10C34.29 10.36 34.41 10.72 34.56 11.07C35.66 11.26 36.76 11.41 37.86 11.55C37.28 10.91 36.8 10.19 36.44 9.41C36.21 8.86 36.16 8.26 36.29 7.69C36.43 7.13 36.92 6.68 37.43 6.81C37.94 6.94 38.23 7.59 38.28 8.2C38.32 8.58 38.63 11.01 38.63 11.64C39.7 11.77 40.78 11.89 41.85 12.03C42.25 12.09 42.27 12.74 41.88 12.86C40.46 12.94 39.03 12.9 37.62 12.72C37.33 13.03 37.06 13.36 36.83 13.72C36.7 13.99 36.59 14.27 36.5 14.56L34.22 14.56C34.79 13.68 35.6 12.99 36.55 12.56C35.65 12.42 34.76 12.25 33.88 12.08L33.63 12.2C33.21 12.36 32.83 12.62 32.53 12.96C32.31 13.27 32.12 13.6 31.98 13.96C31.88 14.15 31.78 14.34 31.66 14.53L28.74 14.53C28.82 14.35 28.92 14.19 29.03 14.04C29.72 13.14 30.68 12.49 31.77 12.19C32.23 12.05 32.69 11.95 33.17 11.9C32.05 11.67 30.93 11.39 29.81 11.09C29.42 11.34 29.08 11.66 28.81 12.04L27.62 13.58C27.38 13.91 27.11 14.23 26.82 14.53L23.28 14.53C23.22 14.42 23.18 14.31 23.16 14.2C23.15 13.74 23.35 13.32 23.7 13.03C24.55 12.15 25.59 11.49 26.75 11.1C27.29 10.9 27.84 10.76 28.41 10.68C27.41 10.36 26.41 10.03 25.41 9.68C24.26 10 23.2 10.59 22.31 11.38C21.78 11.87 21.32 12.45 20.78 12.93C20.29 13.42 19.64 13.73 18.95 13.8C18.37 13.84 17.85 13.45 17.73 12.89C17.7 12.69 17.72 12.49 17.78 12.31C18.19 11.12 19.19 10.24 20.42 9.99C21.76 9.56 23.16 9.35 24.57 9.38C23.3 8.89 22.03 8.42 20.78 7.89Z" /><path id="路径 487" fill-rule="evenodd" style="fill:#387BFE" transform="translate(101.65999999999997 98.03104210039044)  rotate(0 22.520366073684926 22.599480538971747)" opacity="1" d="M28.73,45.2L44.73,45.2C44.99,44.5 45.09,43.75 45.02,43.01C44.3,38.15 14.75,-2.77 0,0.15C24.76,14.66 10.27,34.07 28.73,45.2Z " /><path id="路径 488" fill-rule="evenodd" style="fill:#3CB6D5" transform="translate(105.97999999999996 115.64963216732008)  rotate(0 15.828304380826197 13.805185505506927)" opacity="1" d="M9.56,3.78C8.66,3.33 7.87,3.78 7.13,3.53C6.13,3.27 5.64,2 4.76,1.37C3.56,0.52 1.46,-0.42 0,0.2C0.42,1.67 1.07,3.07 1.92,4.34C2.76,5.41 4.24,5.82 4.57,7.1C4.63,7.82 4.75,8.53 4.94,9.22C5.39,10.41 6.02,11.53 6.79,12.54C7.95,13.94 9.48,14.24 10.79,15.31C11.63,15.99 11.38,16.58 11.73,17.62C12.27,19.12 13.13,20.48 14.25,21.62C15.65,23.03 17.25,22.87 18.97,23.42C19.97,23.75 19.62,23.97 20.39,24.93C21.59,26.18 23.09,27.1 24.75,27.61L31.1,27.61C31.79,26.74 31.84,25.54 31.24,24.61C30.76,23.56 30.05,22.63 29.16,21.89C28.37,21.34 27.26,21.32 26.51,20.89C25.45,20.22 24.8,18.2 23.96,17.08C22.52,15.09 20.64,13.45 18.47,12.31C16.97,11.57 15.22,11.39 14.38,9.96C13.54,8.53 13,6.88 11.75,5.52C11.13,4.81 10.39,4.22 9.56,3.78Z " /><path id="路径 489" fill-rule="evenodd" style="fill:#3CB6D5" transform="translate(143.3169583525803 109.74000317833395)  rotate(0 5.735011071284617 16.75500000000001)" opacity="1" d="M9.92,16.22C10.34,13.15 10.76,10.08 11.16,7C11.51,4.68 11.56,2.33 11.32,0C9.66,1.46 8.66,4.15 7.54,6.08C6.27,8.3 5.31,10.7 4.7,13.19C4.55,12.52 4.7,11.76 4.58,11.05C4.43,10.05 4.18,9.05 3.97,8.05C2.62,9.69 2.17,12.24 1.71,14.26C1.1,16.99 0.71,19.77 0.27,22.53C-0.15,25.71 -0.08,28.94 0.49,32.1C0.56,32.55 0.61,33.03 0.67,33.51L5.67,33.51C6.15,32.13 6.42,30.59 6.67,29.68C8.13,25.29 9.22,20.79 9.92,16.22Z " /><path id="路径 490" fill-rule="evenodd" style="fill:#5BBAA6" transform="translate(112.66037729104238 84.06709029755609)  rotate(0 19.24940019160981 29.531456440388993)" opacity="1" d="M25.18,25.48C24.48,27.15 24.32,28.99 24.71,30.75C24.17,29.56 23.58,28.38 22.95,27.23C23.1,26.29 23.33,25.36 23.65,24.46C24.07,23.3 24.81,22.09 24.37,20.87C23.6,18.78 22.24,20.32 21.87,21.87C21.66,23.12 21.73,24.4 22.08,25.62C21.33,24.35 20.16,22.44 19.33,21.23C19.46,18.84 23.77,13.15 19.76,13.93C17.86,14.31 18.1,18.18 18.64,20.4C18.16,19.75 17.01,18.26 16.92,18.16C17.09,16.16 18.77,9.79 16,10.16C13.79,10.49 14.77,14.06 15.42,15.77C15.5,15.99 15.6,16.31 15.72,16.65C14.92,15.65 14.08,14.74 13.2,13.82C13.51,12.91 13.7,11.96 13.76,11C13.76,10.3 13.63,7.27 12.11,8.74C11.53,9.3 11.79,11.43 12.27,12.85C11.63,12.21 10.97,11.59 10.27,11C6.18,6.15 6.86,-1.55 2.79,0.27C-2.03,2.43 0.52,6.2 2.14,7.43C4.21,8.94 6.54,10.05 9.02,10.7C9.71,11.37 12.49,14.46 12.85,14.86C10.18,12.86 4.85,9.1 3.9,12.22C3.09,14.99 10.66,14.94 13.45,15.56C14.45,16.79 16.94,20.02 17.18,20.37C15.99,19.58 14.81,18.22 13.4,17.83C12.14,17.49 9.4,17.65 9.83,19.27C10.42,21.58 13.83,20.98 15.56,20.96C16.81,20.96 17.44,21.35 17.74,21.16C18.89,22.84 19.95,24.56 20.93,26.34C19.08,24.39 14.1,20.47 13,23.59C11.6,27.59 18.47,25.85 21.2,26.82C22.2,28.64 23.08,30.51 23.88,32.43L23.88,32.49C22.6,30.89 21.49,29.22 19.51,28.26C17.72,27.39 14.91,27.46 15.68,30.45C16.24,32.62 20.16,32.01 22.18,32.6C23.08,32.87 23.81,33.33 24.28,33.48C24.97,35.28 25.57,37.12 26.08,38.98C22.31,37.13 17.97,30.04 16.19,34.27C14.62,37.99 22.13,36.72 26.26,39.63C26.71,41.34 27.09,43.06 27.43,44.81C26.65,43.55 25.73,42.37 24.69,41.31C23.95,40.48 20.56,38.38 19.87,40.8C19.18,43.22 23.49,43.92 24.82,44.29C25.92,44.58 26.92,45.19 27.67,46.04C27.73,46.36 28.43,50.35 28.76,52.04C27.25,49.41 18.02,40.67 16.89,47.04C16.16,51.14 24.31,49.93 26.43,50.76C27.48,51.09 28.37,51.81 28.91,52.76C29.1,53.74 29.32,54.7 29.57,55.64C27.35,53.39 22.22,49.3 21.23,53.64C20.06,58.78 26.12,55.92 27.49,56.29C28.68,56.6 29.95,56.67 30.3,58.13C30.4,58.45 30.52,58.75 30.63,59.06L32.21,59.06C31.89,58.11 31.59,57.16 31.32,56.19C32.86,54.63 36.9,53.57 37.86,52.25C39.28,50.47 38.2,48.78 35.94,49.29C33.88,49.75 31.81,52.37 31.03,54.86C30.7,53.52 30.41,52.16 30.14,50.8C31.23,49.08 33.8,48.8 34.79,46.71C35.78,44.62 33.79,42.87 31.9,44.54C30.99,45.35 30.25,47.43 29.82,49.1L29.21,45.8C29.05,44.95 28.89,44.11 28.71,43.27C30.09,41.79 33.65,40.92 33.29,38.08C33.04,36.08 30.78,35.28 29.67,37.26C29,38.54 28.53,39.91 28.28,41.33C27.91,39.78 27.49,38.25 27.02,36.74C28.45,34.83 32.71,34.13 32.8,31.23C32.87,28.86 29.95,29.1 28.65,30.61C27.35,32.12 27.1,34.22 26.83,36.17C26.47,35.05 26.07,33.93 25.63,32.84C26.63,31.08 29.22,29.37 29.18,26.95C29.14,24.53 26.71,22.65 25.18,25.48Z " /><path id="路径 501" fill-rule="evenodd" style="fill:#387BFE" transform="translate(127.05999999999977 93.47000317833397)  rotate(0 23.470000000000084 14.594999999999999)" opacity="1" d="M3.23,0C1.45,0 0,1.45 0,3.23L0,11.57C0,21.3 7.88,29.18 17.61,29.19L29.32,29.19C39.05,29.19 46.94,21.3 46.94,11.57L46.94,3.23C46.94,1.45 45.49,0 43.71,0L3.23,0Z " /><path id="路径 502" fill-rule="evenodd" style="fill:#7BC3F4" transform="translate(127.05999885978449 93.46986366341923)  rotate(0 23.485000571612346 14.590069757457314)" opacity="1" d="M46.97,6.59L46.97,3.23C46.97,2.37 46.63,1.54 46.01,0.94C45.4,0.33 44.57,-0.01 43.71,0L3.23,0C1.45,0 0,1.45 0,3.23L0,11.57C0,21.12 7.6,28.93 17.14,29.18L17.14,23.31C17.14,22.42 17.49,21.57 18.12,20.94C18.75,20.32 19.6,19.97 20.49,19.97L44.81,19.97C45.92,17.9 46.6,15.62 46.81,13.28L19.97,13.28C18.19,13.18 16.8,11.71 16.8,9.94C16.8,8.16 18.19,6.69 19.97,6.59L46.97,6.59Z " /><path id="路径 503" fill-rule="evenodd" style="fill:#346790" transform="translate(135.86999999999995 120.3000031783339)  rotate(0 14.75 5.799999999999997)" opacity="1" d="M14.75,11.6C16.53,11.6 18.29,5.88 20.03,5.45L24.03,4.45C25.38,4.12 26.59,3.38 27.5,2.32L29.5,0L0,0L2,2.32C2.9,3.38 4.11,4.12 5.46,4.45L9.46,5.45C11.2,5.88 12.97,11.6 14.75,11.6Z " /><path id="路径 504" fill-rule="evenodd" style="fill:#BAC5F4" transform="translate(108.20241481106503 0)  rotate(0 42.34758518893493 46.735001589166956)" opacity="1" d="M3.22,26.13C-3.33,41.95 0.29,60.16 12.41,72.27C17.79,77.65 20.84,86.77 20.66,93.47L64.04,93.47C63.86,86.77 66.91,77.65 72.29,72.27C84.4,60.16 88.03,41.95 81.47,26.13C74.92,10.31 59.47,-0.01 42.35,0C25.22,-0.01 9.78,10.31 3.22,26.13Z " /><path id="路径 505" fill-rule="evenodd" style="fill:#143549" transform="translate(146.77999999999997 130.46000317833386)  rotate(0 3.825 6.39)" opacity="1" d="M1.12,12.78L6.53,12.78C7.15,12.78 7.65,12.28 7.65,11.66L7.65,1.12C7.65,0.82 7.53,0.54 7.32,0.33C7.11,0.12 6.83,0 6.53,0L1.12,0C0.82,0 0.54,0.12 0.33,0.33C0.12,0.54 0,0.82 0,1.12L0,11.66C0,12.28 0.5,12.78 1.12,12.78Z " /><g opacity="1" transform="translate(111.19070199690543 2.911758231490232)  rotate(0 39.380690804281684 43.81412247342182)"><g opacity="1" transform="translate(0 0)  rotate(0 39.380690804281684 43.81412247342182)"></g><path id="路径 507" fill-rule="evenodd" style="fill:#4AF6D1" transform="translate(13.374063590119704 12.958212500648074)  rotate(0 16.752617206487418 4.430016223097755)" opacity="1" d="M0.33,6.12C1.01,7.77 2.62,8.85 4.41,8.86L33.51,8.86L33.51,0L4.41,0C3.24,0 2.11,0.46 1.3,1.3C0.03,2.56 -0.35,4.46 0.33,6.12Z " /><path id="路径 508" fill-rule="evenodd" style="fill:#3BC3A6" transform="translate(42.65925253638804 12.958244946843621)  rotate(0 11.810022733353208 4.43)" opacity="1" d="M4.4,1.31L23.62,1.31L23.62,0L4.4,0C3.23,0 2.11,0.47 1.28,1.3C0.46,2.13 -0.01,3.26 0,4.43C-0.01,6.87 1.96,8.85 4.4,8.86L23.62,8.86L23.62,7.54L4.4,7.54C2.75,7.45 1.46,6.08 1.46,4.42C1.46,2.77 2.75,1.4 4.4,1.31Z " /><path id="路径 509" fill-rule="evenodd" style="fill:#387BFE" transform="translate(23.42558548258475 12.958244946843621)  rotate(0 6.9668562602549 4.43)" opacity="1" d="M4.1,0C3.04,0.07 2.04,0.53 1.29,1.29C0.08,2.52 -0.32,4.33 0.27,5.96C0.86,7.58 2.34,8.71 4.06,8.86L13.89,8.86C11.59,8.66 9.83,6.74 9.83,4.43C9.83,3.25 10.3,2.12 11.13,1.29C11.87,0.53 12.87,0.07 13.93,0L4.1,0Z " /><path id="路径 510" fill-rule="evenodd" style="fill:#D1D9E8" transform="translate(44.115862438924495 14.268244946843623)  rotate(0 10.681717782084974 3.115000000000002)" opacity="1" d="M2.94,0C1.29,0.09 0,1.46 0,3.11C0,4.77 1.29,6.14 2.94,6.23L21.36,6.23C19.71,6.14 18.42,4.77 18.42,3.11C18.42,1.46 19.71,0.09 21.36,0L2.94,0Z " /><path id="路径 511" fill-rule="evenodd" style="fill:#7BC3F4" transform="translate(8.935107432860804 36.81823511271705)  rotate(0 17.157095285116853 3.9400049170633054)" opacity="1" d="M0.3,5.43C0.9,6.9 2.33,7.87 3.91,7.88L34.31,7.88L34.31,0L3.91,0C2.87,0 1.88,0.41 1.14,1.15C0.03,2.28 -0.31,3.97 0.3,5.43Z " /><path id="路径 512" fill-rule="evenodd" style="fill:#387BFE" transform="translate(39.82924691018607 36.81824494651116)  rotate(0 11.960025546454233 3.9400000003325104)" opacity="1" d="M1.14,6.72C1.88,7.46 2.88,7.88 3.92,7.88L23.92,7.88L23.92,6.71L3.92,6.71C2.39,6.71 1.15,5.47 1.15,3.94C1.15,2.41 2.39,1.17 3.92,1.17L23.92,1.17L23.92,0L3.92,0C2.88,0 1.88,0.42 1.14,1.16C0.41,1.89 -0.01,2.9 0,3.94C-0.01,4.98 0.41,5.99 1.14,6.72Z " /><path id="路径 513" fill-rule="evenodd" style="fill:#387BFE" transform="translate(22.751197988298912 36.818244946843635)  rotate(0 6.164050007397805 3.9399999999999977)" opacity="1" d="M3.61,0C2.66,0.06 1.77,0.47 1.11,1.14C0.06,2.24 -0.28,3.84 0.24,5.27C0.76,6.71 2.05,7.72 3.57,7.88L12.32,7.88C10.27,7.71 8.7,5.99 8.71,3.94C8.71,2.89 9.12,1.89 9.86,1.14C10.52,0.47 11.39,0.07 12.33,0L3.61,0Z " /><path id="路径 514" fill-rule="evenodd" style="fill:#D1D9E8" transform="translate(40.9792980030945 37.98824494684362)  rotate(0 11.02000000000001 2.770000000000003)" opacity="1" d="M2.77 5.54C1.24 5.54 0 4.3 0 2.77C0 1.24 1.24 0 2.77 0L22.04 0C20.51 0 19.27 1.24 19.27 2.77C19.27 4.3 20.51 5.54 22.04 5.54L2.77 5.54Z" /><path id="路径 515" fill-rule="evenodd" style="fill:#3CB6D5" transform="translate(21.869298003094485 56.89824494684365)  rotate(0 27.86500000000001 6.729999999999997)" opacity="1" d="M0,0L0,13.46L49,13.46C52.71,13.46 55.73,10.44 55.73,6.73C55.73,3.02 52.71,0 49,0L0,0Z " /><path id="路径 516" fill-rule="evenodd" style="fill:#FFFFFF" transform="translate(0.9392980030944784 58.468244946843626)  rotate(0 15.9713393207833 5.165000000000006)" opacity="1" d="M0,0C1.41,1.35 2.21,3.21 2.21,5.16C2.21,7.12 1.41,8.98 0,10.33L27,10.33C29.76,10.21 31.94,7.93 31.94,5.17C31.94,2.4 29.76,0.12 27,0L0,0Z " /><path id="路径 517" fill-rule="evenodd" style="fill:#346790" transform="translate(0.129298003094533 56.89824494684365)  rotate(0 17.269999999999996 6.729999999999997)" opacity="1" d="M27.81,1.57C30.57,1.69 32.75,3.97 32.75,6.74C32.75,9.5 30.57,11.78 27.81,11.9L0,11.9L0,13.46L27.81,13.46C31.52,13.46 34.54,10.44 34.54,6.73C34.54,3.02 31.52,0 27.81,0L0,0L0,1.57L27.81,1.57Z " /><path id="路径 518" fill-rule="evenodd" style="fill:#346790" transform="translate(34.409298003094506 21.818244946843635)  rotate(0 15.528246253482507 3.365000000000002)" opacity="1" d="M0,0L0,6.73L27.87,6.73C29.66,6.63 31.06,5.15 31.06,3.37C31.06,1.58 29.66,0.1 27.87,0L0,0Z " /><path id="路径 519" fill-rule="evenodd" style="fill:#FFFFFF" transform="translate(12.039298003094501 22.628244946843637)  rotate(0 14.004999950992044 2.5799999999999983)" opacity="1" d="M0,0C0.71,0.67 1.11,1.6 1.11,2.58C1.11,3.56 0.71,4.49 0,5.16L25.43,5.16C26.85,5.16 28.01,4 28.01,2.58C28.01,1.16 26.85,0 25.43,0L0,0Z " /><path id="路径 520" fill-rule="evenodd" style="fill:#143549" transform="translate(11.619298003094485 21.818244946843635)  rotate(0 14.518246253482516 3.3800000000000026)" opacity="1" d="M0,0L0,0.81L25.85,0.81C27.27,0.81 28.43,1.97 28.43,3.39C28.43,4.81 27.27,5.97 25.85,5.97L0,5.97L0,6.76L25.85,6.76C27.64,6.66 29.04,5.18 29.04,3.4C29.04,1.61 27.64,0.13 25.85,0.03L25.85,0L0,0Z " /><path id="路径 521" fill-rule="evenodd" style="fill:#7BC3F4" transform="translate(-2.7652884913385662 70.38824458983177)  rotate(0 26.86229324721654 8.43500017850593)" opacity="1" d="M0.63,11.64C1.93,14.78 4.98,16.84 8.37,16.87L53.72,16.87L53.72,0L8.37,0C6.15,0 4.02,0.89 2.45,2.48C0.06,4.89 -0.66,8.5 0.63,11.64Z " /><path id="路径 522" fill-rule="evenodd" style="fill:#387BFE" transform="translate(42.909244228991014 70.38824494684363)  rotate(0 20.61002688705173 8.435000000000002)" opacity="1" d="M41.22 2.51L8.38 2.51C5.11 2.51 2.45 5.17 2.45 8.44C2.45 11.71 5.11 14.37 8.38 14.37L41.22 14.37L41.22 16.87L8.38 16.87C3.74 16.85 -0.01 13.08 0 8.44C-0.01 6.21 0.87 4.07 2.44 2.48C4.01 0.9 6.15 0.01 8.38 0L41.22 0L41.22 2.51Z" /><path id="路径 523" fill-rule="evenodd" style="fill:#E9F6FF" transform="translate(19.767115778815395 70.38824494684363)  rotate(0 9.79609111213955 8.445000000000007)" opacity="1" d="M5.76,0C4.16,0.21 2.72,1.11 1.82,2.46C0.6,4.22 -0.04,6.32 0,8.46C0,12.89 2.5,16.54 5.7,16.89L19.51,16.89C16.32,16.54 13.81,12.89 13.81,8.46C13.77,6.32 14.41,4.22 15.63,2.46C16.53,1.11 17.98,0.21 19.59,0L5.76,0Z " /><path id="路径 524" fill-rule="evenodd" style="fill:#D1D9E8" transform="translate(45.35929830396489 72.89824494684362)  rotate(0 18.619999849564834 5.929999999999993)" opacity="1" d="M5.93,0C2.65,0 0,2.65 0,5.93C0,9.21 2.65,11.86 5.93,11.86L37.24,11.86C33.97,11.86 31.31,9.2 31.31,5.93C31.31,2.66 33.97,0 37.24,0L5.93,0Z " /><path id="路径 525" fill-rule="evenodd" style="fill:#143549" transform="translate(36.629298003094476 28.548244946843653)  rotate(0 16.968295771965927 4.134999999999998)" opacity="1" d="M0,0L0,8.27L30,8.27C32.2,8.16 33.94,6.34 33.94,4.14C33.94,1.93 32.2,0.11 30,0L0,0Z " /><path id="路径 526" fill-rule="evenodd" style="fill:#346790" transform="translate(12.74929800309448 28.54824494684364)  rotate(0 13.838295771965932 4.135000000000005)" opacity="1" d="M23.74,8.27C25.94,8.16 27.68,6.34 27.68,4.14C27.68,1.93 25.94,0.11 23.74,0L0,0L0,1.22L23.74,1.22C25.35,1.22 26.65,2.52 26.65,4.13C26.65,5.74 25.35,7.04 23.74,7.04L0,7.04L0,8.27L23.74,8.27Z " /><path id="路径 527" fill-rule="evenodd" style="fill:#143549" transform="translate(57.57929800309452 28.548244946843653)  rotate(0 4.201696573931002 4.134999999999998)" opacity="1" d="M0,0C0.93,0.07 1.79,0.5 2.4,1.2C3.13,2.01 3.52,3.06 3.51,4.14C3.59,6.21 2.08,8 0.03,8.27L4.92,8.27C6.97,8 8.48,6.21 8.4,4.14C8.41,3.06 8.02,2.01 7.29,1.2C6.67,0.5 5.81,0.07 4.88,0L0,0Z " /><path id="路径 528" fill-rule="evenodd" style="fill:#143549" transform="translate(49.14929800309446 28.548244946843653)  rotate(0 4.201696573931002 4.134999999999998)" opacity="1" d="M0,0C0.93,0.07 1.79,0.5 2.4,1.2C3.13,2.01 3.52,3.06 3.51,4.14C3.6,6.21 2.09,8 0.04,8.27L4.92,8.27C6.97,8 8.48,6.21 8.4,4.14C8.41,3.06 8.02,2.01 7.29,1.2C6.68,0.5 5.82,0.07 4.89,0L0,0Z " /><path id="路径 529" fill-rule="evenodd" style="fill:#D1D9E8" transform="translate(13.48929800309449 29.76824494684365)  rotate(0 12.954999929045869 2.9100000000000037)" opacity="1" d="M0,0C1.61,0 2.91,1.3 2.91,2.91C2.91,4.52 1.61,5.82 0,5.82L23,5.82C24.61,5.82 25.91,4.52 25.91,2.91C25.91,1.3 24.61,0 23,0L0,0Z " /><path id="路径 530" fill-rule="evenodd" style="fill:#8ED1FF" transform="translate(46.46929800309451 44.83824494684363)  rotate(0 16.904999999999973 6.030000000000001)" opacity="1" d="M0,0L0,12.06L27.78,12.06C31.11,12.06 33.81,9.36 33.81,6.03C33.81,2.7 31.11,0 27.78,0L0,0Z " /><path id="路径 531" fill-rule="evenodd" style="fill:#D1D9E8" transform="translate(47.58929800309451 46.40824494684364)  rotate(0 15.459317693060825 4.465000000000003)" opacity="1" d="M0,0L0,8.93L26.66,8.93C29.04,8.82 30.92,6.85 30.92,4.47C30.92,2.08 29.04,0.11 26.66,0L0,0Z " /><path id="路径 532" fill-rule="evenodd" style="fill:#FFFFFF" transform="translate(13.819298003094474 46.40824494684364)  rotate(0 19.194317693060825 4.465000000000003)" opacity="1" d="M0,0C2.38,0.11 4.26,2.08 4.26,4.47C4.26,6.85 2.38,8.82 0,8.93L34.13,8.93C36.51,8.82 38.39,6.85 38.39,4.47C38.39,2.08 36.51,0.11 34.13,0L0,0Z " /><path id="路径 533" fill-rule="evenodd" style="fill:#D4EEFF" transform="translate(12.949298003094526 44.83824494684363)  rotate(0 16.76 0.785)" opacity="1" d="M0,1.57L33.52,1.57L33.52,0L0,0L0,1.57Z " /><path id="路径 534" fill-rule="evenodd" style="fill:#D4EEFF" transform="translate(12.949298003094526 55.33824494684363)  rotate(0 16.76 0.785)" opacity="1" d="M0,1.57L33.52,1.57L33.52,0L0,0L0,1.57Z " /></g><path id="路径 535" fill-rule="evenodd" style="fill:#FFFFFF" transform="translate(138.77999999999997 5.740003178333943)  rotate(0 2.2400000000001796 2.5249999999999986)" opacity="1" d="M0,2.53C1.28,2.68 2.24,3.76 2.24,5.05C2.24,3.76 3.2,2.68 4.48,2.53C3.2,2.37 2.24,1.29 2.24,0C2.24,1.29 1.28,2.37 0,2.53Z " /><path id="路径 536"  style="fill:#FFFFFF" transform="translate(141.01999999999998 5.720003178333961)  rotate(0 0 0)" opacity="1" d="" /><path id="路径 537"  style="fill:#FFFFFF" transform="translate(141.01999999999998 10.82000317833387)  rotate(0 0 0)" opacity="1" d="" /><path id="路径 538" fill-rule="evenodd" style="fill:#FFFFFF" transform="translate(144.06999999999988 3.900003178333911)  rotate(0 1.6100000000000705 1.8200000000000003)" opacity="1" d="M0,1.82C0.92,1.94 1.61,2.71 1.61,3.64C1.61,2.71 2.3,1.93 3.22,1.82C2.3,1.71 1.61,0.93 1.61,0C1.61,0.93 0.92,1.7 0,1.82Z " /><path id="路径 539"  style="fill:#FFFFFF" transform="translate(145.67999999999995 3.8800031783339293)  rotate(0 0 0)" opacity="1" d="" /><path id="路径 540" fill-rule="evenodd" style="fill:#FFFFFF" transform="translate(110.91999999999933 35.21000317833386)  rotate(0 3.63000000000018 4.094999999999999)" opacity="1" d="M0,4.09C2.07,4.35 3.63,6.1 3.63,8.19C3.63,6.1 5.19,4.35 7.26,4.09C5.19,3.84 3.63,2.09 3.63,0C3.63,2.09 2.07,3.84 0,4.09Z " /><path id="路径 541"  style="fill:#FFFFFF" transform="translate(114.54999999999995 35.180003178333884)  rotate(0 0 0)" opacity="1" d="" /><path id="路径 542"  style="fill:#FFFFFF" transform="translate(114.54999999999995 43.430003178333884)  rotate(0 0 0)" opacity="1" d="" /><path id="路径 543" fill-rule="evenodd" style="fill:#7BC3F4" transform="translate(100.31992838656055 57.5400031783339)  rotate(0 2.450035806719697 2.450035806719697)" opacity="1" d="M0.19,1.51C-0.19,2.43 0.02,3.48 0.72,4.18C1.42,4.88 2.47,5.09 3.39,4.71C4.3,4.33 4.9,3.44 4.9,2.45C4.9,1.1 3.8,0 2.45,0C1.46,0 0.57,0.6 0.19,1.51Z " /><path id="路径 544" fill-rule="evenodd" style="fill:#3A7CFF" transform="translate(100.32730150807151 57.5400031783339)  rotate(0 2.5245716851999873 2.4675092320185)" opacity="1" d="M0.32,1.29C-0.11,2.04 -0.11,2.97 0.33,3.72C0.77,4.47 1.57,4.93 2.44,4.93C3.35,4.99 4.22,4.54 4.69,3.75C5.17,2.97 5.17,2 4.69,1.22C4.22,0.43 3.35,-0.02 2.44,0.04L2.44,0C2.17,0 1.91,0.05 1.65,0.15C1.79,0.13 1.92,0.13 2.05,0.15C2.92,0.13 3.7,0.69 3.96,1.52C4.22,2.35 3.9,3.25 3.17,3.73C2.44,4.21 1.49,4.15 0.83,3.58C0.17,3.02 -0.04,2.08 0.32,1.29Z " /><path id="路径 545" fill-rule="evenodd" style="fill:#7BC3F4" transform="translate(100.17724082419022 56.600214213991414)  rotate(0 2.0313795879048655 2.979894482171254)" opacity="1" d="M0.06,3.57C0.3,4.82 1.31,5.77 2.56,5.96C1.16,5.4 0.39,3.88 0.78,2.42C1.16,0.96 2.56,0.01 4.06,0.2C3.21,-0.13 2.26,-0.05 1.47,0.41C0.38,1.06 -0.19,2.32 0.06,3.57Z " /><path id="路径 546" fill-rule="evenodd" style="fill:#7BC3F4" transform="translate(98.55272660408218 60.201327446486964)  rotate(0 5.202081592593572 5.549337865923476)" opacity="1" d="M0.31,7.25C0.79,9.67 3,11.1 5.84,11.1C9.59,11.1 11.68,5.52 9.56,2.29C8.37,0.44 6.11,-0.41 4,0.19C-1.19,1.33 0.07,6.01 0.31,7.25Z " /><path id="路径 547" fill-rule="evenodd" style="fill:#3A7CFF" transform="translate(99.01999999999998 60.19338040043328)  rotate(0 4.978444894634677 5.543311388950286)" opacity="1" d="M0,7.76C0.68,9.87 2.76,11.09 5.39,11.09C9.14,11.09 11.23,5.51 9.11,2.28C7.91,0.43 5.65,-0.41 3.53,0.2L3.43,0.2L3.63,0.2C4.06,0.31 4.47,0.5 4.82,0.78C5.77,1.23 6.51,2.02 6.9,3C7.29,3.91 7.38,4.92 7.13,5.89C6.83,6.95 6.11,7.86 5.13,8.39C4.14,8.99 2.95,9.17 1.83,8.88C1.19,8.68 0.59,8.34 0.1,7.88L0,7.76Z " /><path id="路径 548" fill-rule="evenodd" style="fill:#E8D7B9" transform="translate(99.24466338262607 98.69000317833388)  rotate(0 5.162668308686918 21.545)" opacity="1" d="M3.06,43.09C3.81,43.09 3.51,42.09 3.47,41.43C3.48,38.75 3.69,36.08 4.1,33.43C5.1,29.81 7.23,25.97 7.67,22.53C8.08,19.27 7.81,18.66 8.55,14.83C8.64,14.39 10.2,4.13 10.33,0L3.66,3.36C3.88,7.78 3.85,12.2 3.58,16.62C3.51,17.45 3.28,18.13 3.23,18.82C3.18,19.51 3.32,20.26 3.36,21.19C3.32,22.09 3.14,22.97 2.83,23.81C1.96,28.17 2.89,29.28 1.93,32.61C1.71,33.28 1.44,33.93 1.12,34.55C0.9,35.18 1.12,35.96 0.88,37.21C0.58,38.84 -0.21,40.49 0.06,41.39C0.33,42.29 2.31,43.09 3.06,43.09Z " /><path id="路径 549" fill-rule="evenodd" style="fill:#F0BF97" transform="translate(100.62999999999994 98.69000317833388)  rotate(0 4.474999999999994 21.545000000000016)" opacity="1" d="M8.95,0L4.39,2.29C5.04,6.06 4.37,9.85 5.24,13.54C6.06,17.02 5.24,20.47 4.24,23.85C3.04,27.63 2.04,29.34 1.86,33.33C1.8,34.6 0.92,35.55 0.58,36.82C0.08,38.63 1.24,40.34 0,42.56C0.52,42.85 1.09,43.03 1.68,43.09C2.56,43.09 2.13,42.09 2.09,41.43C2.1,38.75 2.31,36.08 2.72,33.43C3.72,29.81 5.85,25.97 6.29,22.53C6.7,19.27 6.43,18.66 7.17,14.83C7.26,14.39 8.82,4.13 8.95,0Z " /><path id="路径 550" fill-rule="evenodd" style="fill:#3A7CFF" transform="translate(99.31266914665838 137.1800031783339)  rotate(0 1.7550387262347016 2.3149999999999977)" opacity="1" d="M2.36,2.62C1.92,2.65 1.49,2.44 1.24,2.08C0.86,1.47 0.62,0.79 0.53,0.08C0.53,0.05 0.53,0.03 0.53,0C0.14,0.93 -0.04,1.93 0.01,2.93C0.27,3.8 2.26,4.63 3.01,4.63C3.76,4.63 3.46,3.63 3.42,2.97C3.38,2.75 3.38,2.36 3.4,1.93C3.2,2.33 2.8,2.59 2.36,2.62Z " /><path id="路径 551" fill-rule="evenodd" style="fill:#E8D7B9" transform="translate(95.97999999999996 70.95000317833387)  rotate(0 7.409999999999997 9.280000000000001)" opacity="1" d="M2.3,18.56C2.81,16.79 3.83,13.86 3.83,11.71L12.59,10.55L11.87,7.55L14.82,6.5C14.11,3.37 12.98,2.92 10.57,3.59C8.57,4.14 9.02,1.93 8.76,0L6.06,1C6.4,2.81 6.65,4.1 5.19,4.66C4.22,5.01 3.24,5.32 2.24,5.56C0.94,5.87 0.24,15.17 0,17.64L2.3,18.56Z " /><path id="路径 552" fill-rule="evenodd" style="fill:#F0BF97" transform="translate(108.10999999999996 76.23000317833396)  rotate(0 2.9650000000000034 5.900000000000006)" opacity="1" d="M3.41,11.8L5.93,10.87C5.41,8.66 4.23,2.65 3.07,0L0,0.86C0,0.86 2.3,9.41 3.41,11.8Z " /><path id="路径 553" fill-rule="evenodd" style="fill:#F0BF97" transform="translate(102.03999999999996 70.95000317833387)  rotate(0 3.719999999999999 2.3252635872331524)" opacity="1" d="M2.7,0L0,1C0.07,1.35 0.13,1.68 0.18,2C0.91,3.1 2.36,4.8 3.64,4.64C4.33,4.56 4.96,3.76 5.75,3.64C6.32,3.58 6.89,3.63 7.44,3.8C6.79,3.19 5.86,3.21 4.51,3.59C2.51,4.14 2.96,1.93 2.7,0Z " /><path id="路径 554" fill-rule="evenodd" style="fill:#F0BF97" transform="translate(97.26999999999998 82.86000317833384)  rotate(0 1.2800000000000011 3.2950000000000017)" opacity="1" d="M1.34,1.34C1.34,2.68 0.34,4.95 0,6.17L1.05,6.59C1.46,5.17 2.5,2.65 2.56,0.99C2.12,0.73 1.73,0.4 1.41,0C1.41,0.44 1.35,0.88 1.34,1.34Z " /><path id="路径 555" fill-rule="evenodd" style="fill:#E8D7B9" transform="translate(99.85373551086008 63.2164338732457)  rotate(0 3.4399211365345224 4.9017846525440945)" opacity="1" d="M2.76,0.09C0.4,0.51 -0.13,2.54 0.03,4.55C0.01,5.59 0.25,6.62 0.72,7.55C0.97,7.98 2.53,9.8 3.64,9.8C4.75,9.8 6.3,7.8 6.51,7.2C6.77,6.37 6.89,5.49 6.88,4.61C6.88,4.54 6.88,4.46 6.88,4.38C6.91,2.62 6.44,0.97 5.1,0.32C4.36,-0.01 3.54,-0.09 2.76,0.09Z " /><path id="路径 556" fill-rule="evenodd" style="fill:#F0BF97" transform="translate(101.77999999999997 63.387981220298904)  rotate(0 2.500000000000014 2.111010979017493)" opacity="1" d="M0,0.36C0.71,2.56 2.7,4.09 5,4.22C4.98,2.45 4.51,0.8 3.17,0.15C2.12,-0.11 1.01,-0.03 0,0.36Z " /><path id="路径 557" fill-rule="evenodd" style="fill:#E8D7B9" transform="translate(97.80999999999995 96.19000317833388)  rotate(0 5.155848091263522 23.765)" opacity="1" d="M0,4C0.14,8.87 0.67,13.72 1.59,18.51C2.33,22.34 2.52,23.67 3.21,26.83C3.96,30.22 6.8,38.52 6.9,39.83C6.9,40.19 7.01,44.76 7.08,45.38C7.15,46 7.08,47.53 7.94,47.53C8.8,47.53 10.07,45.92 10.25,45.34C10.54,44.44 9.73,42.78 9.43,41.16C9.2,39.92 9.4,39.15 9.18,38.52C8.91,37.93 8.67,37.32 8.48,36.7C7.48,33.37 8.35,32.14 7.48,27.77C7.17,26.93 6.99,26.05 6.96,25.16C6.96,24.22 7.13,23.5 7.08,22.78C7.03,22.06 6.8,21.41 6.73,20.59C6.52,18.07 6.45,15.53 6.53,13C6.6,7.16 7.07,4.39 4.94,0L0.52,0L0,4Z " /><path id="路径 558" fill-rule="evenodd" style="fill:#3A7CFF" transform="translate(104.83999999999997 138.63000317833382)  rotate(0 1.6094888270808525 2.5450000000000017)" opacity="1" d="M0,2.39C0,2.64 0,2.85 0,2.94C0.07,3.57 0,5.09 0.86,5.09C1.72,5.09 2.99,3.48 3.17,2.9C3.35,2.32 3,1.17 2.67,0C2.71,0.24 2.25,2.91 0.71,2.91C0.41,2.91 0.2,2.57 0,2.39Z " /><path id="路径 559" fill-rule="evenodd" style="fill:#346790" transform="translate(96.28999999999996 91.68000317833389)  rotate(0 7.67344935388042 12.878427951016276)" opacity="1" d="M2.53,0C2.31,1.29 0,3.07 0,7.14C0,13.08 2.51,24.99 2.51,24.99C2.51,24.99 8.11,26.55 12.07,25.22C13.68,17.51 15.88,9.46 15.23,3.63C15.26,3.46 14.83,0.27 14.8,0.08C13.47,0.42 5.46,1.7 2.53,0Z " /><path id="路径 560" fill-rule="evenodd" style="fill:#143549" transform="translate(99.67999999999995 91.84000317833386)  rotate(0 5.9784493538804355 12.780721096599791)" opacity="1" d="M6.54,15.08C6.68,16.66 5.88,19.5 5.46,21.02C4.81,23.36 1.46,23.19 0,25.02C1.73,25.4 5.67,26.02 8.68,25.02C10.29,17.31 12.49,9.26 11.84,3.43C11.87,3.31 11.48,0.51 11.42,0L11.36,0.07C8.57,2.93 4.17,3.07 4.93,4.58C5.47,5.65 8.39,7.66 9.12,8.34C10.7,9.79 6.23,11.7 6.54,15.08Z " /><path id="路径 561" fill-rule="evenodd" style="fill:#346790" transform="translate(96.30341864417187 74.12745046500197)  rotate(0 7.726535960159211 9.335026356666006)" opacity="1" d="M14.91,17.73C15.85,16.61 14.91,9.48 14.5,5.78C14.25,3.55 16.05,2.13 15.25,1.22C13.79,-0.38 10.64,0.05 10.64,0.05C9.47,1.11 7.16,2.76 7.16,2.76L3.78,1.7C3.78,1.7 0.41,1.82 0.01,4.98C-0.13,6.04 2.01,5.91 2.01,7.42C2.04,8.39 2.5,9.3 3.27,9.89C3.5,11.36 3.59,12.85 3.53,14.34C3.42,16.34 2.21,16.19 2.4,17.34C2.72,19.24 13.97,18.85 14.91,17.73Z " /><path id="分组 112" fill-rule="evenodd" style="fill:#143549" transform="translate(98.15999999999991 74.12745046500186)  rotate(0 6.798276546418407 9.320002976846567)" opacity="1" d="M4.47 17.71C3.64 17.75 2.83 17.93 2.06 18.23C5.23 19.01 12.32 18.58 13.06 17.7C14.06 16.52 13.06 9.45 12.65 5.75C12.39 3.55 14.19 2.13 13.39 1.22C11.93 -0.38 8.78 0.05 8.78 0.05C7.61 1.11 5.3 2.76 5.3 2.76L1.92 1.7C1.25 1.75 0.6 1.94 0 2.25C0.47 2.42 0.92 2.62 1.37 2.83C5.82 5.16 5.37 8.37 3.95 9.03C3.02 9.47 6.17 12.6 6.17 15.35C6.17 16.52 8.94 15.35 9.88 14.64C10.82 13.93 11.31 14.64 10.47 15.24C8.9 16.44 7.34 17.67 4.47 17.71Z M11.4826 6.8309C11.7626 6.4109 11.9426 5.6709 11.6526 5.4509C11.3026 5.0509 10.2826 5.2709 10.0226 5.8909C9.52263 7.0709 7.08263 9.8409 5.88263 9.6809C5.50263 9.6309 4.64263 10.1209 5.83263 10.3209C7.02263 10.5209 9.04263 9.3109 9.56263 9.6509C10.4626 10.2409 11.2526 9.8309 10.9926 8.8309C10.8926 8.1209 11.0726 7.4009 11.5126 6.8309L11.4826 6.8309Z " /><path id="路径 564" fill-rule="evenodd" style="fill:#F0BF97" transform="translate(102.7902526294884 70.0787067152446)  rotate(0 0.6401529691746077 0.19813250858513243)" opacity="1" d="M0.29,0.38C0.36,0.37 0.42,0.37 0.49,0.38C0.59,0.4 0.7,0.4 0.8,0.38C0.87,0.37 0.93,0.37 1,0.38C1.12,0.38 1.33,0.32 1.27,0.18C1.07,0.06 0.84,-0.01 0.61,0C0.4,-0.01 0.19,0.05 0.02,0.18C-0.07,0.3 0.17,0.37 0.29,0.38Z " /><path id="路径 565" fill-rule="evenodd" style="fill:#7BC3F4" transform="translate(101.42999999999995 62.51633068283126)  rotate(0 3.605000000000004 2.217225569289994)" opacity="1" d="M7.21,4.38C7.21,4.37 6.54,-1.54 0,0.38C0,0.38 1.54,4.96 7.21,4.38Z " /><path id="路径 566" fill-rule="evenodd" style="fill:#E8D7B9" transform="translate(110.07933935741033 86.0243766411428)  rotate(0 2.1492332282658566 7.836148606246681)" opacity="1" d="M1.03,11.08C0.51,11.48 0.15,12.05 0.03,12.7C-0.16,13.37 0.6,12.81 0.48,13.63C0.41,14.11 0.04,15.51 0.21,15.63C0.56,15.82 0.68,15.4 0.8,14.91C0.9,14.99 1.03,15.02 1.16,14.97C1.28,14.93 1.37,14.82 1.39,14.7C1.52,14.74 1.67,14.73 1.8,14.66C1.92,14.6 2.01,14.48 2.05,14.35C2.45,14.44 2.65,14.19 2.71,13.65C2.77,13.11 3.06,12.19 3.27,10.65C3.53,8.65 5.17,3.65 3.68,0.44C3.39,-0.26 1.54,-0.48 1.54,2.65C1.54,5.46 2.13,10.14 1.03,11.08Z " /><path id="路径 567" fill-rule="evenodd" style="fill:#F0BF97" transform="translate(110.27755614138033 85.90308050905253)  rotate(0 2.078451797599044 7.8817966722917845)" opacity="1" d="M0.07,14.9C0,15.31 -0.05,15.68 0.07,15.72C0.42,15.91 0.54,15.49 0.66,15C0.76,15.08 0.9,15.11 1.02,15.06C1.14,15.02 1.23,14.91 1.25,14.79C1.39,14.83 1.53,14.82 1.66,14.76C1.78,14.69 1.88,14.57 1.91,14.44C2.31,14.53 2.51,14.28 2.57,13.74C2.63,13.2 2.92,12.28 3.13,10.74C3.39,8.74 5.03,3.66 3.53,0.47C3.27,-0.09 1.46,-0.52 1.48,1.49C1.86,1.46 2.23,1.62 2.48,1.91C2.73,2.2 2.83,2.59 2.74,2.96C1.95,6.29 4.21,12.96 0.07,14.9Z " /><path id="路径 568" fill-rule="evenodd" style="fill:#E8D7B9" transform="translate(109.17999999999995 97.56000317833389)  rotate(0 0.8000000000000114 1.2579417189198523)" opacity="1" d="M0,2.51C0.4,2.56 0.73,2.29 0.87,1.75C1.19,1.59 1.45,1.32 1.6,1L1.51,0L0.52,1.27C0.4,1.7 0.22,2.12 0,2.51Z " /><path id="路径 569" fill-rule="evenodd" style="fill:#E8D7B9" transform="translate(95.97457957770064 88.53000317833391)  rotate(0 7.358593976364375 2.105000000000004)" opacity="1" d="M13.81,3.08C13.89,2.98 13.9,2.84 13.86,2.72C14.36,2.72 14.8,2.72 14.71,2.36C14.7,2.17 13.26,2.12 12.77,2.07C12.41,2.07 11.77,2.07 12.12,1.6C12.47,1.13 10.53,1.37 9.86,1.9C9.55,2.15 9.2,2.05 8.86,2.04C7.36,2.04 5.32,0.95 2.5,0.54C1.55,0.4 1.02,0.18 0.06,0C-0.1,0.83 0.08,1.68 0.58,2.37C2.07,3.77 3.73,3.57 5.18,3.66C6.49,3.65 7.8,3.73 9.11,3.91C10.1,4.09 11.1,4.19 12.11,4.21C12.65,4.21 12.95,4.21 12.97,3.76C13.11,3.77 13.24,3.72 13.34,3.62C13.44,3.52 13.49,3.38 13.49,3.24C13.61,3.25 13.74,3.19 13.81,3.08Z " /><path id="路径 570" fill-rule="evenodd" style="fill:#F0BF97" transform="translate(96.02999999999992 89.68000317833389)  rotate(0 6.439999999999998 1.5300000000000011)" opacity="1" d="M8.83,1.87C6.3,1.87 5.49,0 0,0C0.05,0.45 0.22,0.87 0.51,1.22C2,2.62 3.66,2.42 5.11,2.51C6.42,2.5 7.74,2.58 9.04,2.76C10.03,2.94 11.03,3.04 12.04,3.06C12.51,3.06 12.8,3.06 12.88,2.76C11.97,2.89 11.05,2.85 10.16,2.65C9.68,2.46 9.23,2.2 8.83,1.87Z " /><path id="路径 571" fill-rule="evenodd" style="fill:#D1D9E8" transform="translate(94.64999999999998 89.5400031783339)  rotate(0 6.715000000000003 0.26500000000000057)" opacity="1" d="M12.9 0.53L0.53 0.53C0.24 0.53 0 0.29 0 0L13.43 0C13.43 0.29 13.19 0.53 12.9 0.53Z" /><path id="路径 572" fill-rule="evenodd" style="fill:#D1D9E8" transform="translate(106.8599999999999 77.86987450758181)  rotate(0 5.574999999999989 6.065064335375993)" opacity="1" d="M0,11.46C0,11.64 0,12.13 0.64,12.13L11.15,12L11.15,0L3.54,0C3.11,-0.01 2.72,0.26 2.58,0.67L0,11.46Z " /><path id="路径 573" fill-rule="evenodd" style="fill:#3CB6D5" transform="translate(107.20949668990659 77.85998493996033)  rotate(0 8.410503310093432 6.085030193425396)" opacity="1" d="M3.08,0C2.94,0 2.82,0.09 2.78,0.22L0.01,11.78C-0.01,11.87 0.01,11.97 0.06,12.05C0.12,12.13 0.21,12.17 0.31,12.17L12.82,12.17C13.51,12.18 14.11,11.71 14.29,11.05L16.81,0.39C16.84,0.3 16.82,0.2 16.76,0.12C16.7,0.04 16.61,0 16.51,0L3.08,0Z " /><path id="路径 574" fill-rule="evenodd" style="fill:#E8D7B9" transform="translate(106.46999999999991 89.35000317833385)  rotate(0 1.4300000000000068 0.5250000000000057)" opacity="1" d="M0.86,1.05C1.23,1.01 1.58,0.86 1.86,0.62C2.41,0.62 2.76,0.4 2.86,0C2.42,0.1 1.97,0.15 1.52,0.15L0,0.74L0.86,1.05Z " /><path id="路径 575" fill-rule="evenodd" style="fill:#7BC3F4" transform="translate(202.13098060040454 68.5919521514245)  rotate(0 9.485087517032497 4.296699047276633)" opacity="1" d="M1.98,0.02C-0.02,-0.27 -0.32,3.02 0.27,3.73C1.06,4.64 3.13,5.8 6.7,6.73C9.46,7.43 14.79,9.79 16.58,7.84C17.74,6.55 20.62,5.44 17.71,3.8C15.02,2.29 3.46,0.23 1.98,0.02Z " /><path id="路径 576" fill-rule="evenodd" style="fill:#3A7CFF" transform="translate(202.3383579763165 71.8165408570029)  rotate(0 7.898815559853404 2.603104191565592)" opacity="1" d="M3.78,0.08C2.33,-0.14 -0.45,0.08 0.06,0.68C0.85,1.59 3.85,2.77 6.49,3.48C11.15,4.74 13.64,6.01 15.32,4.55C16.37,3.64 15.88,3.35 11.84,2.34C9.1,1.66 8.62,0.81 3.78,0.08Z " /><path id="路径 577" fill-rule="evenodd" style="fill:#E8D7B9" transform="translate(191.6926817191411 56.70182697504912)  rotate(0 2.658659140429478 3.4440881016423717)" opacity="1" d="M0.22,2.83C-0.11,3.14 -0.07,3.56 0.38,3.94C0.83,4.32 1.31,4.94 2.58,6.07C2.79,6.25 3.13,6.71 3.32,6.89C3.93,6.13 4.6,5.43 5.32,4.78C5.06,4.54 4.48,4.18 4.28,3.72C3.84,2.81 3.22,2 2.46,1.34C2.07,0.99 1.35,0.4 0.98,0.08C0.61,-0.24 0.27,0.5 0.64,0.9C0.4,0.98 0.13,1.58 0.36,1.83C0.06,2.08 0,2.51 0.22,2.83Z " /><path id="路径 578" fill-rule="evenodd" style="fill:#F0BF97" transform="translate(192.01 58.11690211323502)  rotate(0 1.6931744233023949 1.7428470616130198)" opacity="1" d="M2.2 3.35C1.71 3.6 1.12 3.5 0.73 3.11C0.5 2.87 0.26 2.63 0 2.41C0.61 1.78 0.97 0.94 1 0.06C1.01 -0.32 2.71 1.1 3.27 2.08C3.39 2.27 3.42 2.51 3.34 2.72C3.27 2.93 3.1 3.1 2.88 3.16C2.64 3.19 2.41 3.25 2.2 3.35Z" /><path id="路径 579" fill-rule="evenodd" style="fill:#7BC3F4" transform="translate(194.06999999999994 60.680003178333884)  rotate(0 6.17965836135528 6.30108220169177)" opacity="1" d="M2.52,0C1.62,0.88 0.77,1.83 0,2.83C0,2.83 5.64,9.15 7.72,11.29C10.88,14.53 12.72,10.92 12.3,9.54C11.88,8.16 10.03,7.03 8.93,6.15C7.2,4.76 2.52,0 2.52,0Z " /><path id="路径 580" fill-rule="evenodd" style="fill:#3A7CFF" transform="translate(194.09999999999997 62.250003178333934)  rotate(0 6.025186752518152 5.686978626547109)" opacity="1" d="M0,1.26C0,1.26 5.64,7.58 7.72,9.72C10.3,12.37 12.08,11.45 12.05,9.65C9.99,8.04 7.53,7.01 4.64,4.37C3.67,3.5 2,0.66 1,0C0.68,0.37 0.33,0.79 0,1.26Z " /><path id="路径 581" fill-rule="evenodd" style="fill:#E8D7B9" transform="translate(221.75565801595678 135.709943541391)  rotate(0 5.123003528614248 3.6212009836788894)" opacity="1" d="M4.1,7.09C5.52,6.94 6.95,6.86 8.37,6.84C9.01,6.84 9.76,6.78 10.09,6.23C10.27,5.79 10.29,5.3 10.16,4.84C10.03,3.41 10.15,1.95 9.95,0.52C9.95,0.35 6.7,-0.56 6.63,0.52C6.56,1.6 6.82,2.88 6.01,3.62C4.21,4.94 2.18,5.92 0.01,6.48C-0.07,6.72 0.2,6.91 0.44,6.99C1.64,7.29 2.89,7.32 4.1,7.09Z " /><path id="路径 582" fill-rule="evenodd" style="fill:#F0BF97" transform="translate(226.21000000000004 135.77000317833392)  rotate(0 2.9358325365926703 3.500000000000014)" opacity="1" d="M3.92,0C3.98,0.1 4.03,0.2 4.08,0.31C5.35,3.4 2.62,5.79 0,7C1.32,6.88 2.64,6.8 4,6.78C4.64,6.78 5.39,6.72 5.72,6.17C5.89,5.73 5.92,5.24 5.79,4.78C5.58,3.35 5.7,1.89 5.5,0.46C5.01,0.21 4.47,0.05 3.92,0Z " /><path id="路径 583" fill-rule="evenodd" style="fill:#346790" transform="translate(220.99532511198908 139.86059038164217)  rotate(0 5.845252547625421 1.9397063983458622)" opacity="1" d="M5.11,1.69C5.11,1.3 4.74,0.69 4.26,0.82C2.99,1.26 0.74,2.06 0.49,2.17C-0.32,2.51 0,3.88 0.49,3.88L4.99,3.88C5.85,3.88 7.22,3.09 8.6,3.09C9.34,3.15 10.08,3.11 10.79,2.95C12.23,2.29 11.67,0.58 10.94,0.03C10.54,-0.26 8.01,1.69 5.11,1.69Z " /><path id="路径 584" fill-rule="evenodd" style="fill:#143549" transform="translate(221.00402784102425 140.37000317833395)  rotate(0 5.85455503821521 1.6799999999999926)" opacity="1" d="M0.49,3.36L4.99,3.36C5.85,3.36 7.22,2.57 8.6,2.57C9.33,2.63 10.07,2.59 10.79,2.43C11.23,2.23 11.55,1.83 11.67,1.36C11.78,0.88 11.67,0.38 11.37,0C10.75,1.02 9.66,1.66 8.47,1.69C7.47,1.69 4.21,2.13 3.67,2.28C2.88,2.49 2.05,2.49 1.26,2.28C0.9,2.18 0.56,2.02 0.26,1.81C-0.23,2.3 0.06,3.36 0.49,3.36Z " /><path id="路径 585" fill-rule="evenodd" style="fill:#143549" transform="translate(229.06999999999994 141.9200031783339)  rotate(0 1.7750000000000057 0.9099999999999966)" opacity="1" d="M2.83,1.82L3.55,0L0.2,1C0.2,1.29 0.14,1.57 0,1.82L2.83,1.82Z " /><path id="路径 586" fill-rule="evenodd" style="fill:#E8D7B9" transform="translate(197.7093301055546 135.22946338324846)  rotate(0 5.805349905215792 3.525667700764558)" opacity="1" d="M0.23,3.38C1.18,4.17 2.3,4.74 3.49,5.06C4.84,5.54 6.16,6.06 7.49,6.69C8.06,6.96 8.77,7.24 9.3,6.88C9.65,6.55 9.88,6.13 9.97,5.66C10.43,4.3 11.18,3.03 11.61,1.66C11.62,1.5 9.12,-0.69 8.59,0.22C8.13,1.03 7.73,2.43 6.68,2.74C4.5,3.16 2.25,3.16 0.07,2.74C-0.1,2.92 0.07,3.21 0.23,3.38Z " /><path id="路径 587" fill-rule="evenodd" style="fill:#F0BF97" transform="translate(201.49 135.7900031783339)  rotate(0 3.8950000000000102 3.2453978032218345)" opacity="1" d="M6.58,0.34C6.39,3.68 2.88,4.66 0,4.61C1.24,5.07 2.47,5.61 3.67,6.13C4.24,6.4 4.95,6.68 5.48,6.32C5.83,5.99 6.06,5.57 6.15,5.1C6.61,3.74 7.36,2.47 7.79,1.1C7.46,0.66 7.05,0.29 6.58,0L6.58,0.34Z " /><path id="路径 588" fill-rule="evenodd" style="fill:#346790" transform="translate(196.60601686985007 137.6800031783339)  rotate(0 5.719048933461011 2.6049999999999898)" opacity="1" d="M4.94,0.42C3.6,0.27 1.23,0.01 0.94,0C0.06,0 -0.24,1.32 0.19,1.53L4.25,3.53C5.02,3.9 6.59,3.78 7.84,4.38C8.47,4.75 9.14,5.03 9.84,5.21C11.44,5.21 11.67,3.46 11.25,2.65C11.06,2.17 7.94,2.86 5.32,1.57C5.49,1.23 5.44,0.48 4.94,0.42Z " /><path id="路径 589" fill-rule="evenodd" style="fill:#143549" transform="translate(196.61571569070304 137.76000317833393)  rotate(0 5.731679941841321 2.585133093998124)" opacity="1" d="M11.11,4.58C11.41,4.21 11.53,3.71 11.42,3.23C10.42,3.84 9.19,3.91 8.12,3.41C7.17,3.01 4.12,1.96 3.54,1.86C2.74,1.72 1.99,1.38 1.36,0.86C1.08,0.61 0.84,0.32 0.65,0C0,0.23 -0.19,1.31 0.19,1.49L4.25,3.49C5.02,3.86 6.59,3.74 7.84,4.34C8.47,4.71 9.14,4.99 9.84,5.17C10.33,5.18 10.8,4.96 11.11,4.58Z " /><path id="路径 590" fill-rule="evenodd" style="fill:#143549" transform="translate(203.64999999999998 141.86000317833384)  rotate(0 1.990000000000009 0.9550000000000125)" opacity="1" d="M2.55,1.91L3.98,0.58L0.55,0C0.43,0.27 0.24,0.5 0,0.68L2.55,1.91Z " /><path id="路径 591" fill-rule="evenodd" style="fill:#7BC3F4" transform="translate(204.64999999999992 93.33000317833387)  rotate(0 10.040431749389771 22.805811023831957)" opacity="1" d="M0,43.58C1.01,45.11 2.84,45.88 4.64,45.53C5.9,43.34 17.8,11.21 20.08,3.21C20.17,2.89 13.2,0.21 10.73,0C8.39,8.2 2.1,37.35 0,43.58Z " /><path id="路径 592" fill-rule="evenodd" style="fill:#5B9CC7" transform="translate(205.5399999999999 94.81000317833389)  rotate(0 9.595000000000027 22.057204163373328)" opacity="1" d="M10.73,18.56C10.76,20.57 10.21,22.54 9.15,24.24C8,25.99 6.88,27.12 6.59,29.3C6.3,31.48 5.37,34.4 4.91,36.5C4.1,40.25 1.5,39.62 0,43.13C1.07,43.93 2.43,44.27 3.75,44.05C5.01,41.86 16.91,9.73 19.19,1.73C17.93,0.99 16.59,0.41 15.19,0C14.08,3.75 15.19,8.32 12.46,11.34C10.78,13.22 10.73,16.05 10.73,18.56Z " /><path id="路径 593" fill-rule="evenodd" style="fill:#7BC3F4" transform="translate(219.14640615225971 96.81985770095184)  rotate(0 6.571796923870153 21.0970255643565)" opacity="1" d="M0.15,0.99C-1.26,3.61 7.48,38.99 8.32,41.86C9.9,42.37 11.61,42.29 13.14,41.65C12.87,34.25 11.5,28.39 11.26,21.98C10.98,14.37 11.84,6.44 11.63,0.6C9.69,0.25 1.09,-0.74 0.15,0.99Z " /><path id="路径 594" fill-rule="evenodd" style="fill:#5B9CC7" transform="translate(227.14 96.70000317833387)  rotate(0 2.5849999999999795 21.129999999999995)" opacity="1" d="M2.06,22.37C2.06,23.8 1.32,26.46 1.72,29.75C2.22,32.1 2.89,34.41 3.72,36.67C4.05,37.67 3.18,41.02 3.34,42.26C3.97,42.18 4.58,42.01 5.17,41.77C4.9,34.37 3.53,28.51 3.29,22.1C2.99,14.49 3.85,6.56 3.64,0.72C3,0.6 1.64,0.3 0,0C0.64,0.86 0.6,5.75 0.57,6.21C0.36,9.61 1.83,13.21 1.72,13.99C1.12,18.29 2.09,21.09 2.06,22.37Z " /><path id="路径 595" fill-rule="evenodd" style="fill:#7BC3F4" transform="translate(213.42445567691937 70.60549070667855)  rotate(0 8.803532366884951 14.674789750069777)" opacity="1" d="M9.48,0.01C7.06,0.01 2.7,-0.39 1.34,3.01C0.7,4.63 -0.21,27.75 0.05,28.4C0.58,29.71 17.42,29.54 17.57,28.61C17.72,27.68 17.41,12.93 17.48,8.69C17.48,4.92 15.29,0.01 9.48,0.01Z " /><path id="路径 596" fill-rule="evenodd" style="fill:#7BC3F4" transform="translate(216.14370891659098 74.56000317833389)  rotate(0 6.488145541704483 7.639066270293739)" opacity="1" d="M3.23,15.16C4.37,14.77 6.33,13.28 8.41,10.24C12.08,4.87 12.98,3.4 12.98,3.4L7.86,0C7.86,0 0.41,11.4 0.04,13.35C-0.34,15.3 2.37,15.46 3.23,15.16Z " /><path id="路径 597" fill-rule="evenodd" style="fill:#3A7CFF" transform="translate(216.54999999999995 75.0400031783339)  rotate(0 6.27000000000001 7.399131021267962)" opacity="1" d="M2.79,14.68C3.93,14.29 5.89,12.8 7.97,9.76C11.64,4.39 12.54,2.92 12.54,2.92L12.04,0C11.08,4.06 4.79,11.5 0,14.22C0.82,14.77 1.84,14.94 2.79,14.68Z " /><path id="路径 598" fill-rule="evenodd" style="fill:#3A7CFF" transform="translate(220.83000000000004 70.62000317833383)  rotate(0 5.110617283950575 14.674999999999997)" opacity="1" d="M2.07,0C1.37,0.02 0.68,0.1 0,0.26C4,1.79 8.05,2.44 8.05,7.5C8.05,8.87 6.21,12.29 6.21,13.67C6.21,16.09 8.21,17.24 7.33,18.67C6.22,20.86 6.05,23.41 6.86,25.73C7.68,27.49 4.15,27.48 3.39,29.35C6.97,29.35 10.1,29.05 10.16,28.64C10.36,27.56 10,12.92 10.07,8.68C10.07,4.91 7.88,0 2.07,0Z " /><path id="路径 599" fill-rule="evenodd" style="fill:#F0BF97" transform="translate(219.85999999999996 65.77000317833392)  rotate(0 2.9150000000000205 3.244648750584119)" opacity="1" d="M0,5.36C0,6.64 5.54,7.11 5.61,5.27C5.68,3.43 5.83,0 5.83,0C5.83,0 2.08,0.77 1.94,2.07C1.8,3.37 0,3.84 0,5.36Z " /><path id="路径 600" fill-rule="evenodd" style="fill:#E8D7B9" transform="translate(216.99751778786674 58.38692784596662)  rotate(0 4.4256198042915 5.994926912444882)" opacity="1" d="M2.91,0.2C2.28,0.28 1.73,0.65 1.41,1.2C0.64,3.02 0.2,4.96 0.1,6.93C-0.08,7.88 -0.02,8.85 0.26,9.77C0.84,11.2 2.59,12.35 4.05,11.88C6.26,11.12 8,9.39 8.77,7.19C8.77,6.19 8.88,5.12 8.84,4.09C8.84,3.06 8.49,2.06 7.85,1.24C7.24,0.6 6.43,0.18 5.55,0.05C4.67,-0.05 3.78,0 2.91,0.2Z " /><path id="路径 601"  style="fill:#E8D7B9" transform="translate(220.54999999999995 70.27000317833392)  rotate(0 0 0)" opacity="1" d="" /><path id="路径 602"  style="fill:#E8D7B9" transform="translate(220.85999999999996 70.23000317833396)  rotate(0 0 0)" opacity="1" d="" /><path id="路径 603" fill-rule="evenodd" style="fill:#F0BF97" transform="translate(218.32941502595605 58.65289544331164)  rotate(0 3.7446711852468297 5.848553867511157)" opacity="1" d="M1.6,2.41C1.6,2.54 1.41,3.63 1.39,3.73C1.28,4.32 0.13,5.44 0.02,6.18C-0.11,7.91 0.37,9.63 1.38,11.05C1.69,11.36 2.08,11.58 2.5,11.7L2.7,11.65C4.9,10.88 6.64,9.16 7.41,6.96C7.41,5.96 7.52,4.89 7.48,3.86C7.48,2.81 7.13,1.8 6.48,0.98C6.13,0.51 5.64,0.18 5.08,0.03C3.48,-0.18 1.98,0.84 1.6,2.41Z " /><path id="路径 604" fill-rule="evenodd" style="fill:#346790" transform="translate(217.39999999999998 57.48089354584419)  rotate(0 4.779838512644801 4.799554816244843)" opacity="1" d="M0,1.89C2.32,3.6 6,2.72 5.93,3.3C5.53,7.02 6.84,7.17 7.05,7.81C7.34,8.54 7.85,9.16 8.5,9.6C10.9,3.59 8.97,0.57 5.25,0.06C2.11,-0.37 0.85,1.68 0,1.89Z " /><path id="路径 605" fill-rule="evenodd" style="fill:#143549" transform="translate(218.03999999999996 57.498348493431756)  rotate(0 3.3584794784713665 1.1655710538137143)" opacity="1" d="M4.61,0.05C2.93,-0.18 1.24,0.36 0,1.52C1.89,2.25 3.94,2.5 5.95,2.22C6.36,2.15 6.67,1.81 6.71,1.4C6.75,0.99 6.52,0.59 6.13,0.44C5.64,0.25 5.13,0.11 4.61,0.05Z " /><path id="路径 606" fill-rule="evenodd" style="fill:#E8D7B9" transform="translate(222.16478436670604 63.02835805605422)  rotate(0 1.7220532849372034 1.6260872112916473)" opacity="1" d="M0.88,3.11C1.44,3.35 2.08,3.28 2.58,2.92C2.92,2.64 3.18,2.27 3.32,1.85C3.55,1.33 3.46,0.72 3.1,0.28C2.7,-0.02 2.17,-0.08 1.71,0.11C0.41,0.54 -0.92,2.3 0.88,3.11Z " /><path id="路径 607" fill-rule="evenodd" style="fill:#F0BF97" transform="translate(223.21000000000004 63.83458805579345)  rotate(0 0.8591015625000011 0.8177075612702254)" opacity="1" d="M0.57,0.88C0.7,1.12 0.79,1.37 0.86,1.64C0.86,1.64 2.16,0.71 1.56,0.18C0.96,-0.35 0,0.49 0,0.49C0.21,0.58 0.41,0.71 0.57,0.88Z " /><path id="路径 608" fill-rule="evenodd" style="fill:#346790" transform="translate(215.80281040836581 61.17000317833389)  rotate(0 4.378594795817037 5.5367356650601565)" opacity="1" d="M6.1,10.42C8.67,8.89 7.53,5.73 7.37,4.85C7.25,3.49 7.76,2.16 8.76,1.23L7.89,0C7.89,0 6.43,5.02 5.06,5.37C5,4.68 4.5,4.1 3.83,3.95C3.16,3.76 1.56,3.4 1.28,3.71C0.62,4.42 1.01,5.04 0.81,5.54C0.38,6.67 -0.12,7.29 0.03,8.05C0.34,9.3 1.25,10.33 2.45,10.8C3.66,11.27 5.01,11.13 6.1,10.42Z " /><path id="路径 609" fill-rule="evenodd" style="fill:#143549" transform="translate(221.68 63.06000317833388)  rotate(0 0.6810440001719371 1.5834869338964452)" opacity="1" d="M1.36,0C1.02,0.98 0.57,1.91 0,2.77C0.04,2.9 -0.02,3.07 0.07,3.14C0.55,3.5 1.41,0.14 1.36,0Z " /><path id="路径 610" fill-rule="evenodd" style="fill:#143549" transform="translate(215.80281040836587 64.7340072405334)  rotate(0 2.8835947958170607 3.7390776976043725)" opacity="1" d="M0.82,4.5C0.7,3.87 0.94,2.87 1.29,2.69C1.46,2.61 3.36,2.69 3.39,2.1C3.42,1.51 2.33,1.85 1.77,1.21C1.54,0.94 1.77,0.46 2.01,0.03C1.76,-0.03 1.5,0.01 1.28,0.14C0.62,0.85 1.01,1.47 0.81,1.97C0.38,3.1 -0.12,3.72 0.03,4.48C0.33,5.66 1.16,6.64 2.28,7.14C3.4,7.63 4.68,7.59 5.77,7.02C3.5,7.56 1.19,6.41 0.82,4.5Z " /><path id="路径 611" fill-rule="evenodd" style="fill:#E8D7B9" transform="translate(216.1571753116035 68.53251077886068)  rotate(0 1.9130333353654407 5.058746199736589)" opacity="1" d="M1.63,1.15C1.21,1.14 0.84,1.44 0.75,1.86C0.23,1.86 -0.07,2.25 0.01,2.92C0.09,3.59 0.01,4.51 0.2,6.46C0.2,6.78 0.07,9.82 0.09,10.12C1.2,9.88 2.32,9.72 3.44,9.66C3.34,8.39 3.34,7.11 3.44,5.84C3.78,4.72 3.9,3.56 3.78,2.4C3.8,1.64 3.67,0.88 3.39,0.18C3.1,-0.19 2.46,0.04 2.46,0.67C2.29,0.61 2.1,0.63 1.94,0.72C1.78,0.81 1.67,0.97 1.63,1.15Z " /><path id="路径 612" fill-rule="evenodd" style="fill:#F0BF97" transform="translate(217.88999999999987 68.53251077886068)  rotate(0 1.0466209911671456 4.838746199736605)" opacity="1" d="M0.4,1.2C0.48,1.35 0.5,1.52 0.45,1.69C0.21,2.59 0.78,4.91 0.95,6.46C1.1,7.52 1.17,8.6 1.15,9.68C1.34,9.66 1.52,9.66 1.71,9.68C1.61,8.41 1.61,7.13 1.71,5.86C2.05,4.74 2.17,3.58 2.05,2.42C2.07,1.65 1.94,0.89 1.66,0.18C1.37,-0.19 0.73,0.04 0.73,0.67C0.46,0.58 0.17,0.68 0,0.91C0.17,0.94 0.31,1.05 0.4,1.2Z " /><path id="路径 613" fill-rule="evenodd" style="fill:#F0BF97" transform="translate(216.7074215054385 67.62941375178718)  rotate(0 1.4465839605541078 0.8353455831476424)" opacity="1" d="M0.53,0.03C0.33,-0.05 0.1,0.04 0.01,0.24C-0.07,0.44 0.25,0.84 0.45,0.92L2.35,1.64C2.55,1.72 2.78,1.63 2.86,1.43C2.95,1.23 2.85,1 2.65,0.91L0.53,0.03Z " /><path id="路径 614" fill-rule="evenodd" style="fill:#143549" transform="translate(216.30121303857447 75.04354600280237)  rotate(0 1.7146513355585284 0.6653051895772251)" opacity="1" d="M0.19,1.33C1.19,1.09 2.24,1.05 3.26,1.22C3.29,1.23 3.33,1.22 3.36,1.2C3.39,1.18 3.4,1.15 3.41,1.12C3.44,0.81 3.44,0.5 3.41,0.19C3.41,0.15 3.4,0.11 3.36,0.08C3.33,0.06 3.28,0.06 3.25,0.08C2.21,-0.06 1.15,-0.01 0.13,0.21C0.08,0.21 0.04,0.25 0.03,0.3C-0.01,0.61 -0.01,0.92 0.03,1.23C0.04,1.26 0.06,1.29 0.09,1.31C0.12,1.33 0.15,1.34 0.19,1.33Z " /><path id="路径 615" fill-rule="evenodd" style="fill:#E8D7B9" transform="translate(191.58803508501978 59.619227937862995)  rotate(0 0.8187840773849189 0.8803876202354601)" opacity="1" d="M0.3,0C0.22,0 0.14,0.03 0.08,0.09C-0.03,0.21 -0.03,0.39 0.08,0.51C0.08,0.51 1.08,1.73 1.43,1.76C1.54,1.76 1.71,1.62 1.6,1.49L0.51,0.09C0.46,0.03 0.38,0 0.3,0Z " /><path id="路径 616" fill-rule="evenodd" style="fill:#E8D7B9" transform="translate(190.75 55.31406126218041)  rotate(0 1.147631639750955 1.1884926987879751)" opacity="1" d="M0,0.26C0,0.81 1.58,2.26 1.58,2.26C1.74,2.42 2.01,2.42 2.17,2.26C2.25,2.18 2.3,2.07 2.3,1.96C2.3,1.85 2.25,1.74 2.17,1.67L0.4,0.06C0.23,-0.1 0,0.12 0,0.26Z " /><path id="路径 617" fill-rule="evenodd" style="fill:#E8D7B9" transform="translate(191.94762282613806 57.79895969691142)  rotate(0 1.2697531998050238 1.0514277396155407)" opacity="1" d="M0.1,0.12C0.03,0.2 -0.01,0.32 0,0.43C0.01,0.54 0.07,0.64 0.15,0.71C0.15,0.71 1.76,2.16 2.31,2.1C2.45,2.1 2.64,1.84 2.47,1.69L0.69,0.12C0.53,-0.04 0.27,-0.04 0.1,0.12Z " /><path id="路径 618" fill-rule="evenodd" style="fill:#E8D7B9" transform="translate(191.83045830899164 58.717860355986765)  rotate(0 1.1812675358442561 0.976764118571225)" opacity="1" d="M0.27,0.02C0.13,0.06 0.03,0.17 0.01,0.31C-0.02,0.45 0.04,0.6 0.15,0.68C0.15,0.68 1.62,2 2.15,1.95C2.28,1.95 2.46,1.71 2.3,1.58L0.65,0.11C0.55,0.01 0.4,-0.03 0.27,0.02Z " /><path id="路径 619" fill-rule="evenodd" style="fill:#7BC3F4" transform="translate(215.53030922918435 76.8977077514628)  rotate(0 2.4986876316968107 6.448868157937113)" opacity="1" d="M0.02,7.51C-0.07,8.95 0.12,10.38 0.58,11.74C1.04,13.11 5.2,14.11 4.99,9.59C4.85,6.59 4.17,0.07 4.17,0.07C3.01,-0.06 1.83,-0.01 0.68,0.21C0.68,0.21 0.19,5.3 0.02,7.51Z " /><path id="路径 620" fill-rule="evenodd" style="fill:#3A7CFF" transform="translate(217.11 76.96882772432048)  rotate(0 1.7086440361686357 6.413637142034915)" opacity="1" d="M2.05,1.84C1.83,4.58 3.62,8.29 1.43,11.46C1.08,11.98 0.58,12.37 0,12.59C1.36,13.18 3.56,12.84 3.41,9.52C3.27,6.57 2.59,0 2.59,0C2.09,-0.05 2.07,1.51 2.05,1.84Z " /><path id="路径 621" fill-rule="evenodd" style="fill:#FFFFFF" transform="translate(217.2699876267052 74.53819953617892)  rotate(0 1.0000069995510898 1.0000026812018916)" opacity="1" d="M0,1.04C0.02,1.58 0.47,2.01 1.02,2C1.56,1.99 2,1.55 2,1C2,0.73 1.89,0.46 1.69,0.27C1.49,0.08 1.22,-0.01 0.94,0C0.4,0.03 -0.02,0.5 0,1.04Z " /><path id="路径 622" fill-rule="evenodd" style="fill:#4AF6D1" transform="translate(217.42602888340178 74.80870769955811)  rotate(0 0.787542414703978 0.7500130705047354)" opacity="1" d="M0.1,0.38C-0.04,0.63 -0.03,0.94 0.13,1.18C0.3,1.41 0.58,1.53 0.86,1.49C1.06,1.48 1.25,1.4 1.38,1.25C1.52,1.1 1.58,0.91 1.57,0.71C1.55,0.3 1.2,-0.02 0.79,0C0.51,-0.02 0.24,0.13 0.1,0.38Z " /><path id="路径 623" fill-rule="evenodd" style="fill:#F0BF97" transform="translate(58.959614630006286 79.87529505744146)  rotate(0 4.302432411414429 6.726313490319484)" opacity="1" d="M0.04,3.42C-0.52,6.22 4.91,12.51 6.04,13.12C8.34,14.39 8.74,11.61 8.57,10.91C8.12,9.17 6.59,1.39 4.12,0.08C3.01,-0.51 0.3,2.13 0.04,3.42Z " /><path id="路径 624" fill-rule="evenodd" style="fill:#F0BF97" transform="translate(63.88845629028299 89.53333179241861)  rotate(0 7.0775203565411005 4.570415271070644)" opacity="1" d="M6.27,3.16C4.47,1.69 3.27,0.44 2.27,0.11C1.59,-0.1 -0.63,-0.25 0.17,2.22C0.37,2.83 1.9,4.78 6.65,6.8C11.4,8.82 13.35,10.11 14.03,8.23C14.71,6.35 12.4,7.15 11.53,6.88C9.53,6.26 8.07,4.63 6.27,3.16Z " /><path id="路径 625" fill-rule="evenodd" style="fill:#008AED" transform="translate(82.64999999999998 88.17281041597494)  rotate(0 3.723186388924148 5.113596381179491)" opacity="1" d="M6,0.03C5.69,0.1 5.43,0.29 5.26,0.56L0,8.96L2,10.23L7.26,1.83C7.61,1.27 7.45,0.54 6.9,0.19C6.63,0.02 6.31,-0.04 6,0.03Z " /><path id="路径 626" fill-rule="evenodd" style="fill:#FFFFFF" transform="translate(78.62999999999994 95.92994646475324)  rotate(0 3.2513657656370896 4.530028356790353)" opacity="1" d="M4.79,0.42L0,8.09C0.34,7.99 0.7,8.05 1,8.24C1.3,8.42 1.5,8.72 1.57,9.06L6.37,1.4C6.5,1.19 6.53,0.94 6.47,0.7C6.41,0.47 6.26,0.26 6.05,0.14C5.62,-0.13 5.06,0 4.79,0.42Z " /><path id="路径 627" fill-rule="evenodd" style="fill:#03EAFF" transform="translate(78.30999999999995 95.64563727545794)  rotate(0 3.545158774101637 4.822182951437981)" opacity="1" d="M7.06,0.94C6.99,0.63 6.79,0.35 6.52,0.18C6.25,0.01 5.93,-0.04 5.62,0.03C5.31,0.1 5.05,0.29 4.88,0.56L0,8.35L0.24,8.49L5.11,0.7C5.39,0.27 5.96,0.15 6.39,0.42C6.82,0.7 6.95,1.27 6.67,1.7L1.79,9.49L2.03,9.64L6.9,1.85C7.07,1.58 7.13,1.25 7.06,0.94Z " /><path id="路径 628" fill-rule="evenodd" style="fill:#E8D7B9" transform="translate(67.58999999999992 77.36850768618513)  rotate(0 5.120567975479318 5.941542629130197)" opacity="1" d="M0,3.71C0,3.71 7.27,11.54 8.52,11.81C11.09,12.37 10.12,9.48 9.76,8.86C8.85,7.32 4.13,0.58 2.19,0.02C0.94,-0.33 0,3.71 0,3.71Z " /><path id="路径 629" fill-rule="evenodd" style="fill:#E8D7B9" transform="translate(74.17269459247154 85.24698994229038)  rotate(0 7.393652703764175 4.0225035980337935)" opacity="1" d="M6.47,2.7C4.54,1.42 3.25,0.27 2.17,0.04C1.47,-0.1 -0.76,-0.03 0.27,2.34C0.53,2.93 2.27,4.73 7.16,6.29C12.05,7.85 13.81,8.78 14.55,7.29C14.7,6.8 14.79,6.3 14.79,5.78C14.3,4.67 12.84,6.07 12.05,5.9C10.05,5.47 8.4,3.98 6.47,2.7Z " /><path id="路径 630" fill-rule="evenodd" style="fill:#143549" transform="translate(41.367448038048565 101.02972406462948)  rotate(0 9.986275980975705 6.525139556852267)" opacity="1" d="M0.02,4.24C-0.78,12.18 19.97,13.05 19.97,13.05C19.97,13.05 7.5,-0.07 4.18,0C1.87,0 0.33,1.17 0.02,4.24Z " /><path id="路径 631" fill-rule="evenodd" style="fill:#143549" transform="translate(64.65999999999997 108.95000317833387)  rotate(0 6.007880466593676 2.0106480000000033)" opacity="1" d="M0,4C0,4 12.52,4.44 12,1.32C11.79,0.13 10.96,0.02 9.42,0C7.22,0 0,4 0,4Z " /><path id="路径 632" fill-rule="evenodd" style="fill:#E8D7B9" transform="translate(54.58395625201729 108.95272010336691)  rotate(0 6.073021873991308 21.511017980531506)" opacity="1" d="M1.72,16.9C0.88,21.85 2.9,33.62 1.33,35.61C0.72,36.39 0.33,36.24 0.09,36.93C-0.15,37.62 0.09,38.04 1.09,38.48C2.61,39.37 3.83,40.71 4.57,42.32C5.1,43.56 8.98,43.04 7.02,41.72C5.06,40.4 4.72,36.72 4.72,35.12C4.72,34.33 6.72,18.34 8.6,14.36C10.48,10.38 12.15,1.24 12.15,1.24C12.15,1.24 3.16,-1.27 3.07,0.86C2.98,2.98 4.07,9.38 3.72,11.15C3.37,12.92 2.31,13.23 1.72,16.9Z " /><path id="路径 633" fill-rule="evenodd" style="fill:#F0BF97" transform="translate(57.64999999999998 108.95272010336691)  rotate(0 4.534999999999997 20.96560034254219)" opacity="1" d="M5.52,14.36C7.4,10.38 9.07,1.24 9.07,1.24C9.07,1.24 0.09,-1.27 0,0.86C0,1.5 0.2,3.95 0.32,5.13C0.69,6.54 3.41,6.13 3.98,7.05C5.42,9.52 4.82,12.4 3.7,14.92C2,18.74 1.06,29.81 0.79,31.35C0.6,32.45 0.56,39.35 1.79,40.43C2.69,41.21 5.01,42.43 3.94,41.72C1.94,40.39 1.64,36.72 1.64,35.12C1.64,34.33 3.64,18.34 5.52,14.36Z " /><path id="路径 634" fill-rule="evenodd" style="fill:#E8D7B9" transform="translate(26.000548159125117 105.66710150202766)  rotate(0 15.36472592043745 18.573421026019474)" opacity="1" d="M21.93,13.81C25.7,11.63 30.73,5.81 30.73,5.81C30.73,5.81 24.9,-1.43 23.6,0.25C22.31,1.94 19.53,7.8 18.22,9.05C16.91,10.3 15.86,9.93 13.22,12.58C9.69,16.15 5.33,26.29 2.91,27.01C1.96,27.29 1.41,27.22 0.77,27.5C0.39,27.75 0.12,28.15 0.03,28.59C-0.06,29.04 0.04,29.5 0.29,29.88C1.12,31.39 1.42,33.12 1.16,34.81C0.88,36.13 4.01,38.44 3.16,36.22C2.31,34 4.24,30.55 5.16,29.22C5.62,28.58 18.16,15.99 21.93,13.81Z " /><path id="路径 635" fill-rule="evenodd" style="fill:#F0BF97" transform="translate(28.447481461344637 105.66679938070808)  rotate(0 14.171259269327678 17.55660189881293)" opacity="1" d="M2.77,29.21C3.23,28.57 15.77,15.98 19.54,13.8C23.31,11.62 28.34,5.8 28.34,5.8C28.34,5.8 22.45,-1.43 21.15,0.25C21,0.45 20.83,0.7 20.65,0.99C21.52,2.07 22.04,3.38 22.13,4.76C22.45,8.76 22.35,10.2 19.03,11.98C16.15,13.52 13.65,13.26 11.57,15.98C8.98,19.38 2.65,28.13 0.96,29.25C-0.47,30.19 -0.04,34.39 0.55,35.11C0.49,32.98 1.98,30.34 2.77,29.21Z " /><path id="路径 636" fill-rule="evenodd" style="fill:#6393F2" transform="translate(41.40999999999991 77.39000317833393)  rotate(0 17.549999999999997 18.059928299868666)" opacity="1" d="M10.08 19.69C0.29 20.81 0 27.88 0 27.88C0 27.88 2 18.88 11.63 32.25C16.2767 38.7502 24.0796 35.5733 29.4402 33.3908C32.2934 32.2291 34.4547 31.3492 35.08 32.36C32.88 28.62 30.98 24.7 29.39 20.66C27.7732 16.0673 28.6886 13.1716 29.3786 10.9886C29.9477 9.18847 30.3635 7.87294 29.08 6.49C27.08 4.33 28.37 0 28.37 0C17.55 0 16.5 7 16.5 7C16.5 7 18.58 12.68 17 15.45C15.36 17.74 12.87 19.27 10.08 19.69Z" /><path id="路径 637" fill-rule="evenodd" style="fill:#D1D9E8" transform="translate(41.02999999999997 62.81764306441891)  rotate(0 14.374914614429272 15.126180056957473)" opacity="1" d="M22.93,0.78C16.23,-2.3 9.77,4.12 10.34,12.93C10.6,17.07 0.96,15.13 0,30.25C3.64,25.12 6.2,29.36 13.42,27.5C20.64,25.64 17.07,19.9 22.81,17.13C28.55,14.36 31.02,7.72 26.16,4.96C24.35,3.96 25.06,1.76 22.93,0.78Z " /><path id="路径 638" fill-rule="evenodd" style="fill:#143549" transform="translate(54.150661335916425 144.71098428900268)  rotate(0 4.069728041444634 3.7545094446656435)" opacity="1" d="M7.1,5.3C5.68,4.06 5.32,1.3 5.32,1.3C4.22,1.44 3.11,1.07 2.32,0.3C2.03,-0.04 1.53,-0.1 1.17,0.16L0.91,0.34C0.36,0.55 0,1.08 0,1.66C0,2.25 0.36,2.78 0.91,2.99C2.22,3.95 3.37,5.12 4.31,6.45C4.76,7.11 5.51,7.5 6.31,7.51C7.1,7.51 7.89,7.26 8.1,6.6C8.29,6.27 7.78,5.89 7.1,5.3Z " /><path id="路径 639" fill-rule="evenodd" style="fill:#346790" transform="translate(54.302171691604826 146.32463799058746)  rotate(0 3.218914154197563 2.951079784830185)" opacity="1" d="M0.88,0.64C0.09,-0.84 -0.53,0.64 0.69,1.31C1.91,1.98 4.28,5.31 4.99,5.66C5.45,5.85 5.94,5.93 6.44,5.9C6.43,5.54 4.41,3.73 3.88,3.41C2.64,2.78 1.6,1.82 0.88,0.64Z " /></g></svg>