<svg xmlns="http://www.w3.org/2000/svg" xmlns:xlink="http://www.w3.org/1999/xlink" width="299.1903992505454" height="169.0351292620108" viewBox="0 0 299.1903992505454 169.0351292620108" fill="none"><g opacity="1" transform="translate(0 0)  rotate(0 149.5951996252727 84.5175646310054)"><path id="路径 1" fill-rule="evenodd" style="fill:#F8F8FF" transform="translate(0 3.917901381100819e-7)  rotate(0 149.49879884305994 84.51756443511033)" opacity="1" d="M291.9 71.14C308.21 134.3 291.37 166.93 290.84 167.45C290.48 167.83 0.84 169.04 0.84 169.04C0.84 169.04 -5.48 116.93 16.63 101.14C35.88 87.38 51.89 79.03 84.53 77.98C117.16 76.92 135.05 76.92 154.53 55.34C174.01 33.77 200.34 1.17 229.79 0.08C258.22 -0.98 275.58 7.97 291.9 71.14Z" /><path id="路径 2" fill-rule="evenodd" style="fill:#E9EDFC" transform="translate(132.33737013335872 0)  rotate(0 83.42651455859334 71.35691502943388)" opacity="1" d="M166.44 129.37C166.01 134.86 165.57 142 165.31 142.26C164.94 142.64 -0.52 145.83 0.97 127.82C1.6485 119.598 1.11003 109.933 0.604498 100.858C-0.223644 85.9931 -0.963389 72.7146 3.88 69.97C11.58 65.62 14.2 64.19 22.19 55.34C41.66 33.77 67.98 1.17 97.46 0.08C125.88 -0.98 143.25 7.97 159.56 71.14C167.72 102.72 167.24 119.4 166.44 129.37Z" /><path id="路径 3" fill-rule="evenodd" style="fill:#E1E6FC" transform="translate(48.737375583345056 7.981729190493354)  rotate(0 20.2744140625 80.28254878159348)" opacity="1" d="M0 49.48L7.99 5.29C8.55 2.22 11.22 -0.01 14.34 0L27.39 0C29.83 0 31.91 1.75 32.34 4.15L40.55 50.53L21.64 50L22.13 160.52L18.95 160.52C18.8675 160.52 18.7448 160.527 18.5967 160.534C17.8109 160.576 16.31 160.656 16.31 160L18.65 49.82L0 49.48Z" /><g opacity="1" transform="translate(24.12685347755405 113.20413322000485)  rotate(0 26.269186737289147 27.534204628498344)"><path id="路径 4" fill-rule="evenodd" style="fill:#E1E6FC" transform="translate(10.695898246597608 27.399193980114887)  rotate(0 13.31332713498 13.8346076384409)" opacity="1" d="M0.01 1.94C13.57 -2.42 26.63 1.93 26.63 1.93L26.14 6.77L24.93 7.26L21.29 26.63C15.97 28.81 5.31 26.88 5.31 26.88L1.68 7.27C1.29 7.16 0.93 6.98 0.62 6.74C-0.11 6.26 0.01 1.94 0.01 1.94Z" /><path id="路径 5" fill-rule="evenodd" style="fill:#BAC4F6" transform="translate(11.924603297807607 30.0678734834122)  rotate(0 12.1011962890625 12.48211669921875)" opacity="1" d="M17.18 0.72L24.2 0C24.2 0 24.2 4.12 23.72 4.6C23.18 5.25 22.77 5.99 22.5 6.78C22.5 7.03 19.6 24.24 19.6 24.24C19.6 24.24 15 24.96 14.27 24.96C13.782 24.96 14.8469 18.4128 15.5837 13.8827C15.9339 11.7296 16.21 10.0322 16.21 9.71C16.21 8.71 16.21 6.8 15.48 6.8C15.4177 6.8 15.2561 6.80314 15.0128 6.80787C12.4426 6.85784 0.752217 7.08509 0.67 5.66C0.56 5.21 0.33 4.8 0 4.47C0 4.47 14.28 5.57 15.97 5.08C17.66 4.6 17.18 0.72 17.18 0.72Z" /><path id="路径 6" fill-rule="evenodd" style="fill:#BAC4F6" transform="translate(0 19.967030714121393)  rotate(0 10.540914930154031 5.137823728395404)" opacity="1" d="M0 3.85C0.05 2.62 0.31 2.02 1.55 1.29C2.6 0.61 3.79 0.17 5.03 0C5.96 -0.08 15.51 2.4 19.49 8.33L21.08 10.28L17.55 10.28C17.55 10.28 13.56 7.48 11.45 7.22C9.33 6.97 6.88 6.69 4.76 6.37C2.65 6.04 -0.05 5.09 0 3.85Z" /><path id="路径 7" fill-rule="evenodd" style="fill:#BAC4F6" transform="translate(3.7568786884326073 23.322285869012944)  rotate(0 8.101806640625 3.4469210044652527)" opacity="1" d="M16.2,6.89L10.21,2.72C8.75,1.9 7.23,1.19 5.67,0.6C3.66,-0.05 0,0 0,0L16.2,6.89Z " /><path  id="路径 7" style="stroke:#FFFFFF; stroke-width:0.75; stroke-opacity:1; stroke-dasharray:0 0" transform="translate(3.7568786884326073 23.322285869012944)  rotate(0 8.101806640625 3.4469210044652527)" d="M16.2,6.89L10.21,2.72C8.75,1.9 7.23,1.19 5.67,0.6C3.66,-0.05 0,0 0,0L16.2,6.89Z " /><path id="路径 8" fill-rule="evenodd" style="fill:#BAC4F6" transform="translate(6.420670859406528 9.130730349869282)  rotate(0 9.481214266075312 10.561161898802709)" opacity="1" d="M3.49 0.05C4.81 0.19 6.08 0.65 7.17 1.41C8.1 2.01 16.52 10.03 17.75 19.25L18.96 21.12L15.32 20.95C15.32 20.95 10.69 14.65 8.88 12.88C7.08 11.11 4.97 9.08 3.23 7.23C1.49 5.38 -0.71 2.72 0.22 1.63C1.15 0.54 1.81 -0.2 3.49 0.05Z" /><path  id="路径 9" style="stroke:#FFFFFF; stroke-width:0.75; stroke-opacity:1; stroke-dasharray:0 0" transform="translate(10.856243922807153 12.8802514130997)  rotate(0 5.446166992187955 8.120361328125)" d="M0,0C0,0 3.61,2.16 5.03,4.23C6.36,6.17 8.49,9.63 8.49,9.63L10.89,16.24 " /><path id="路径 10" fill-rule="evenodd" style="fill:#E9EDFC" transform="translate(10.552229092019388 0.8760916371717258)  rotate(0 7.69827206383161 14.796910210229612)" opacity="1" d="M13.51 29.51C13.51 29.51 8.1 17.76 7.09 15.44C6.08 13.12 1.94 9.62 1.03 7.25C0.11 4.88 -0.47 3.16 0.5 1.86C1.47 0.56 3.95 -0.52 5.54 0.27C7.04 1 8.98 3.22 9.82 4.35C10.49 5.24 14.92 21.2 14.55 24.88L15.4 29.59L13.51 29.51Z" /><path  id="路径 11" style="stroke:#FFFFFF; stroke-width:0.75; stroke-opacity:1; stroke-dasharray:0 0" transform="translate(14.527508571244653 5.47406244825595)  rotate(0 4.628784179687955 12.06951904296875)" d="M0,0C0,0 3.11,4 4.05,6.35C5.1,8.99 6.16,14.03 6.03,13.23L9.26,24.14 " /><path id="路径 12" fill-rule="evenodd" style="fill:#E9EDFC" transform="translate(2.192472862440354 14.242068662474708)  rotate(0 10.838660432527377 8.076934392890621)" opacity="1" d="M4.58 6.2C2.32 5.07 -0.41 3.15 0.05 1.99C0.51 0.84 0.98 0.37 2.62 0.16C4.06 -0.09 5.52 -0.05 6.94 0.27C8 0.55 17.94 6.56 20.5 13.69L21.68 16.15L18.9 16.06C18.9 16.06 14.14 10.63 11.82 9.57C9.49 8.52 6.85 7.33 4.58 6.2Z" /><path  id="路径 13" style="stroke:#FFFFFF; stroke-width:0.75; stroke-opacity:1; stroke-dasharray:0 0" transform="translate(6.634564235307607 17.2181420380997)  rotate(0 7.580810546875 6.56512451171875)" d="M0,0C0,0 4.12,1.35 6.17,2.74C7.73,3.88 9.21,5.13 10.59,6.48L15.16,13.13 " /><path id="路径 14" fill-rule="evenodd" style="fill:#BAC4F6" transform="translate(29.699871852495562 20.60190058025273)  rotate(0 11.419250811041366 4.910263062907859)" opacity="1" d="M17.4 0C18.72 0.15 20 0.57 21.16 1.23C22.51 1.93 22.78 2.5 22.84 3.68C22.9 4.87 19.98 5.76 17.69 6.09C15.39 6.41 12.74 6.64 10.45 6.91C8.16 7.18 3.85 9.82 3.85 9.82L0 9.8L1.74 7.94C6.05 2.29 16.39 -0.08 17.4 0Z" /><path id="路径 15" fill-rule="evenodd" style="fill:#BAC4F6" transform="translate(31.657025172807607 23.819364608708383)  rotate(0 8.400634765625 3.224779339695658)" opacity="1" d="M10.67,0.58C8.98,1.13 7.34,1.8 5.75,2.59L0,6.45L16.8,0C16.8,0 12.84,-0.05 10.67,0.58Z " /><path  id="路径 15" style="stroke:#FFFFFF; stroke-width:0.75; stroke-opacity:1; stroke-dasharray:0 0" transform="translate(31.657025172807607 23.819364608708383)  rotate(0 8.400634765625 3.224779339695658)" d="M10.67,0.58C8.98,1.13 7.34,1.8 5.75,2.59L0,6.45L16.8,0C16.8,0 12.84,-0.05 10.67,0.58Z " /><path id="路径 16" fill-rule="evenodd" style="fill:#BAC4F6" transform="translate(25.065594508745107 10.252319046406342)  rotate(0 10.258155243543797 10.082398800534179)" opacity="1" d="M10.9 12.31C8.95 14.01 3.94 20.02 3.94 20.02L0 20.16L1.31 18.38C2.64 9.58 11.74 1.91 12.75 1.34C13.97 0.61 15.33 0.17 16.73 0.04C18.56 -0.18 19.27 0.52 20.28 1.57C21.28 2.62 18.91 5.15 17.02 6.92C15.14 8.69 12.86 10.62 10.9 12.31Z" /><path  id="路径 17" style="stroke:#FFFFFF; stroke-width:0.75; stroke-opacity:1; stroke-dasharray:0 0" transform="translate(29.001263454057607 13.8536400849747)  rotate(0 5.8931884765625 7.7421875)" d="M11.79,0C11.79,0 7.88,2.06 6.35,4.02C4.9,5.87 2.61,9.18 2.61,9.18L0,15.48 " /><path id="路径 18" fill-rule="evenodd" style="fill:#E9EDFC" transform="translate(24.467694118120107 2.374428700492558)  rotate(0 8.326136754258414 14.12717893442857)" opacity="1" d="M8.98 14.75C7.89 16.98 2.04 28.2 2.04 28.2L0 28.25L0.92 23.75C0.52 20.23 5.32 4.99 6.04 4.14C6.96 3.07 9.05 0.95 10.67 0.25C12.38 -0.49 15.08 0.54 16.12 1.78C17.16 3.02 16.53 4.66 15.54 6.93C14.55 9.21 10.07 12.53 8.98 14.75Z" /><path id="路径 19" fill-rule="evenodd" style="fill:#BAC4F6" transform="translate(20.266323603853607 0)  rotate(0 5.033405165325007 15.245576146002975)" opacity="1" d="M8.2 0.88C9.22 2.12 10.73 5.08 9.75 7.33C8.76 9.57 8.02 13.57 7.26 15.92C6.14 19.48 5.67 30.43 5.67 30.43L3.63 30.49L3.3 23.91C3.56635 20.7723 2.018 14.098 0.952411 9.50469C0.377708 7.02739 -0.0565696 5.1554 0.01 4.77C0.21 3.56 1.14 1.31 2.76 0.61C4.5 -0.13 7.18 -0.37 8.2 0.88Z" /><path  id="路径 20" style="stroke:#FFFFFF; stroke-width:0.75; stroke-opacity:1; stroke-dasharray:0 0" transform="translate(26.515057399370562 6.79132319044345)  rotate(0 5.150024414062045 11.64630126953125)" d="M10.3,0C10.3,0 6.94,3.82 5.92,6.06C4.77,8.59 3.62,13.4 3.8,12.61L0,23.29 " /><path id="路径 21" fill-rule="evenodd" style="fill:#E9EDFC" transform="translate(26.705487086870107 15.153579332926938)  rotate(0 11.726818282363524 7.713769389695756)" opacity="1" d="M1.27 13.08C4.04 6.26 14.78 0.53 15.94 0.26C17.48 -0.04 19.06 -0.08 20.62 0.15C22.39 0.36 22.9 0.8 23.4 1.9C23.9 3 20.95 4.81 18.49 5.92C16.04 7.02 13.16 8.13 10.67 9.14C8.18 10.14 3 15.33 3 15.33L0 15.43L1.27 13.08Z" /><path  id="路径 22" style="stroke:#FFFFFF; stroke-width:0.75; stroke-opacity:1; stroke-dasharray:0 0" transform="translate(28.853314235308062 17.9852318818497)  rotate(0 8.252685546875 5.887939453125)" d="M16.51,0C16.51,0 12.05,1.29 9.83,2.61C8.16,3.69 6.56,4.88 5.05,6.18L0,11.78 " /><path  id="路径 23" style="stroke:#FFFFFF; stroke-width:0.75; stroke-opacity:1; stroke-dasharray:0 0" transform="translate(24.869915797808062 2.9453148896621997)  rotate(0 0.2696639184542846 13.43170166015625)" d="M0,0C0,0 0.9,9.38 0.38,11.9C0.16,12.96 0.26,19.56 0.26,19.56L0.05,26.86 " /></g><path id="路径 24" fill-rule="evenodd" style="fill:#BAC4F6" transform="translate(48.73223718612826 54.99005861381745)  rotate(0 20.263912200927734 1.7563247680663991)" opacity="1" d="M40.53 3.51L0 2.46L0.47 0L39.72 0.72L40.53 3.51Z" /><path id="路径 25" fill-rule="evenodd" style="fill:#BAC4F6" transform="translate(241.8969214817821 58.84656114677637)  rotate(0 24.506091443620562 40.1152038574219)" opacity="1" d="M47.4 0.7C49.34 39.61 48.99 80.23 48.99 80.23L0 80.1L0.32 2.96L0.42 0L47.4 0.7Z" /><path id="路径 26" fill-rule="evenodd" style="fill:#BAC4F6" transform="translate(194.82503732650912 71.78097505668853)  rotate(0 20.935760498046903 33.67181396484375)" opacity="1" d="M41.58 0L41.87 67.34L0 67.34L1.3 0L41.58 0Z" /><path id="路径 27" fill-rule="evenodd" style="fill:#BAC4F6" transform="translate(135.32142862289584 111.29841966728426)  rotate(0 30.090370178222656 13.9130859375)" opacity="1" d="M59.5 27.83L0.23 27.81L0 0L60.18 0.31L59.5 27.83Z" /><path id="路径 28" fill-rule="evenodd" style="fill:#FFFFFF" transform="translate(130.36445077865756 70.37384386162017)  rotate(0 83.89817232563576 36.76130676269531)" opacity="1" d="M5.18 68.73C5.18 68.73 167.13 68.72 167.67 68.91C168.22 69.09 166.8 73.52 166.8 73.52C166.8 73.52 8.54 73.45 4.53 73.27C0.51 73.09 0.15 68.89 0.15 68.89L0 2.11C1.78 1.58 3.5 0.87 5.14 0C5.14 0 5.23 63.17 5.23 64.85C5.23 66.37 5.18 68.73 5.18 68.73Z" /><path id="路径 29" fill-rule="evenodd" style="fill:#FFFFFF" transform="translate(133.85604318588412 79.11313219169836)  rotate(0 80.48699188232419 2.6001129150390483)" opacity="1" d="M160.97 4.43L0 5.2L0 0L160.13 0.96L160.97 4.43Z" /><path id="路径 30" fill-rule="evenodd" style="fill:#FFFFFF" transform="translate(179.0392096897903 24.180223179857478)  rotate(0 2.1134033203125 57.69438552856444)" opacity="1" d="M4.23 0L4.23 115.39L0 115.06L0 2.93L4.23 0Z" /><path id="路径 31" fill-rule="evenodd" style="fill:#FFFFFF" transform="translate(255.4183905979935 4.543182087938533)  rotate(0 2.2562255859375 67.34890079498292)" opacity="1" d="M4.51 2.63L3.9 134.38L0 134.7L0.1 0L4.51 2.63Z" /><path id="路径 32" fill-rule="evenodd" style="fill:#FFFFFF" transform="translate(183.2660468479935 19.9586789141104)  rotate(0 45.693695068359375 2.3885002136230504)" opacity="1" d="M5.2 0L88.76 0.04L91.39 4.78L0 4.22L5.2 0Z" /><path id="椭圆 1" fill-rule="evenodd" style="fill:#FFFFFF" transform="translate(189.38144906967318 27.6875893602774)  rotate(0 9.28950309753418 9.28950309753418)" opacity="1" d="M9.29,0C4.16,0 0,4.16 0,9.29C0,14.42 4.16,18.58 9.29,18.58C14.42,18.58 18.58,14.42 18.58,9.29C18.58,4.16 14.42,0 9.29,0Z " /><path id="椭圆 2" fill-rule="evenodd" style="fill:#FFFFFF" transform="translate(201.62287363022006 33.87706346611236)  rotate(0 6.088963031768799 6.088963031768799)" opacity="1" d="M6.09,0C2.73,0 0,2.73 0,6.09C0,9.45 2.73,12.18 6.09,12.18C9.45,12.18 12.18,9.45 12.18,6.09C12.18,2.73 9.45,0 6.09,0Z " /><path id="椭圆 3" fill-rule="evenodd" style="fill:#FFFFFF" transform="translate(259.6769812962357 36.08305711845611)  rotate(0 9.464078903198242 9.464078903198242)" opacity="1" d="M9.46,0C4.24,0 0,4.24 0,9.46C0,14.69 4.24,18.93 9.46,18.93C14.69,18.93 18.93,14.69 18.93,9.46C18.93,4.24 14.69,0 9.46,0Z " /><path id="椭圆 4" fill-rule="evenodd" style="fill:#FFFFFF" transform="translate(253.19124826400912 40.55323762993072)  rotate(0 6.200056076049805 6.200056076049805)" opacity="1" d="M6.2,0C2.78,0 0,2.78 0,6.2C0,9.62 2.78,12.4 6.2,12.4C9.62,12.4 12.4,9.62 12.4,6.2C12.4,2.78 9.62,0 6.2,0Z " /></g></svg>