<svg xmlns="http://www.w3.org/2000/svg" xmlns:xlink="http://www.w3.org/1999/xlink" width="233" height="85" viewBox="0 0 233 85" fill="none"><path id="路径 11" fill-rule="evenodd" style="fill:#FFFFFF" transform="translate(0 0)  rotate(0 116.5 42.5)" opacity="1" d="M101.52 81.51C87.69 84.75 81.62 77.11 79.91 69.14C79.84 68.75 79.78 68.37 79.74 67.98C77.88 68.64 75.61 68.84 72.99 68.03C71.25 67.5 69.8 66.48 68.57 65.19C65.18 68.36 59.94 71.14 51.95 71.24C42.02 71.37 38.84 64.85 38.06 58.66C36.69 58.59 35.2 58.28 33.6 57.6C31.05 56.49 30.2 54.31 30.06 52.17C26.01 51.87 21.31 51.21 15.93 49.96C6.46 47.77 -2.09 44.89 0.45 43.1C0.51 43.06 0.56 43.02 0.62 42.98C10.84 37.03 20.72 35.33 30.7 39.32C31.66 35.89 38.22 33.24 43.24 37.55C43.32 37.65 43.4 37.75 43.47 37.85C48.67 33.91 58.21 29.04 68.23 34.94C67.43 30.35 71.01 27.52 75.47 28.76C73.91 24.13 75.76 17.01 79.3 13.58C82.08 10.89 86.88 8.49 93.09 11.07C94.98 4.49 101.24 -0.11 108.33 0.38C114.21 0.8 119.06 4.61 121.07 9.78C123.88 7.42 127.87 6.44 131.4 7.51C133.93 8.3 136.06 10.11 137.44 12.38C138.59 12.11 139.94 12.03 141.5 12.25C143.12 12.48 144.54 12.99 145.76 13.68C148.81 5.19 157.19 -0.61 166.62 0.05C175.64 0.68 182.91 7.04 185.13 15.33C186.2 15.35 187.23 15.44 188.21 15.62C196.74 17.15 201.12 22.12 203.18 25.52C206.13 24.34 209.39 23.78 212.77 24.02C222.41 24.69 230.13 31.56 232.35 40.47C232.89 42.63 233.11 44.93 232.95 47.27C232.11 59.27 221.72 68.32 209.74 67.49C206.89 67.29 204.21 66.55 201.79 65.37C200.97 66.33 199.99 67.14 198.86 67.65C195.14 69.38 188.7 69.24 186.79 66.88C187.31 73.23 175.83 86.51 160.3 79.79C158.61 83.1 155.08 85.25 151.15 84.98C146.62 84.66 143.05 81.22 142.39 76.9C138.34 80.37 132.99 82.65 126.06 81.45C118.9 80.2 114.66 77.14 112.22 73.55C110.36 76.94 107.13 80.19 101.52 81.51Z" /></svg>