<svg xmlns="http://www.w3.org/2000/svg" xmlns:xlink="http://www.w3.org/1999/xlink" width="476.5000000000001" height="439.5" viewBox="0 0 476.5000000000001 439.5" fill="none"><defs><path id="path_0"
        transform="translate(0.409743924053905 0.505961473472162) rotate(0 62.09127348095745 27.377883362329236)"
        d="M0,54.76L124.18,54.76L124.18,0L0,0L0,54.76Z" /></defs><g opacity="1" transform="translate(0 0)  rotate(0 238.25000000000006 219.75)"><g opacity="1" transform="translate(57 103.24074652506638)  rotate(0 169.6454005934718 143.4658753709199)"><path id="Fill 1" fill-rule="evenodd" style="fill:#B23D3D" transform="translate(16.34421364985162 0)  rotate(0 154.3620178041543 130.29970326409494)" opacity="1" d="M100.12 36.04C95.03 35.08 89.65 33.85 84.44 32.37C79.96 31.09 75.61 29.6 71.59 27.88C58.4318 17.4592 55.377 16.5546 53.8411 16.0998C53.2841 15.9348 52.9269 15.829 52.36 15.35L49.61 13.08C47.3 11.73 45.07 11.6 45.07 11.6L44.15 10.63L42.23 8.6C41.4 8.6 35.04 2.66 31.58 1.62L24.08 0L19.14 1.59C19.14 1.59 17.94 3.8 23.06 2.27C23.96 2.01 25.62 2.19 25.62 2.19C22.78 2.68 20.19 3.36 20.19 3.36L17.57 6.88C17.57 6.88 18.83 8.76 21.27 5.08L24.98 5.08C24.98 5.08 29.51 6.28 31.49 8.29C31.49 8.29 27.08 8.6 25.78 8.21C22.88 7.4 23.37 9.36 23.37 9.36C23.37 9.36 26.64 9.77 30.01 12.72C30.01 12.72 33.9 14.67 36.95 16.7C36.95 16.7 37.05 16.81 37.23 17.04C37.23 17.04 39.18 19.34 41.37 21.6C44.89 25.43 50.23 30.99 56.03 36.33C58.35 38.44 63.13 42.43 63.13 42.43C69.52 47.56 75.88 51.49 80.64 51.83C82.49 53.5 84.68 54.99 87.21 55.82C90.95 59.49 95.09 63.09 98.95 65.59C97.37 70.52 96.17 78 97.99 87.98C100.131 99.8899 104.829 106.329 107.891 110.525C109.818 113.168 111.097 114.921 110.68 116.59C109.6 120.89 109.84 124.15 113.64 127.38C114.67 128.262 113.842 128.478 112.808 128.747C111.543 129.077 109.971 129.486 111.11 131.29C111.88 132.51 113.95 134.42 118.24 137.41C116.02 139.84 113.86 142.6 113.15 144.71C112.56 146.48 112.44 148.57 112.44 148.57C112.53 150 113.15 150.37 113.15 150.37C113.15 150.37 110.03 154.3 111.23 157.74C110.12 160.45 108.83 165.32 108.83 165.32C108.67 166.03 108.55 167.33 108.55 167.33C108.36 170.43 107.34 173.22 105.95 175.64C104.29 178.61 102.06 180.99 100.24 182.68C98.48 184.3 96.91 185.36 96.91 185.36L97.34 187.87C96.38 188.49 95.12 188.78 95.12 188.78C93.02 188.31 89.22 182.39 84.28 178.41C80.24 175.12 67.95 172.15 51.43 161.83L44.89 157.3L42.33 155.53C43.47 155.06 43.28 153.68 43.28 153.68C40.69 150.89 35.04 139.76 32.57 136.58C30.1 133.4 20.44 134.81 19.97 138.35C19.67 140.65 16.24 143.98 13.06 147.03C11.33 148.72 8.68 151.54 8.68 151.54C5.83 155.08 -3.12 173.69 1.11 172.52C2.94589 172.011 6.32518 170.16 9.81352 168.249C14.4195 165.726 19.2156 163.098 20.9 163.32C20.9 163.32 25.81 164.83 27.97 165.92L30.93 165.92L39.39 172.65C47.08 180.31 56.71 190.19 56.71 190.19L56.71 192.37L62.61 197.72L65.91 197.72C65.91 197.72 73.91 202.9 78.39 204.54C82.86 206.21 90.18 217.99 93.23 217.99C95.21 217.99 98.73 217.11 101.69 215.8L105.74 213.35C107.68 211.42 110.96 209.42 114.78 207.23C116.05 206.53 118.67 205.01 118.67 205.01L119.01 204.81L120.87 203.4L124.11 205.85C124.11 205.85 136.49 195.4 146.03 179.4L147.42 177.03L150.94 177.39L153.9 177.78C153.9 177.78 157.7 178.43 159.49 178.8C165.38 179.94 170.97 181.22 170.97 181.22C172.3 181.22 174.06 182.71 176.4 182.89L180.05 183.07C180.63 183.2 182.33 183.64 182.33 183.64C182.64 183.72 183.57 184.01 183.57 184.01L206.44 191.88C206.44 191.88 211.04 197.01 213.14 201.6L213.76 202.72C216.17 206.63 222.65 213.69 227.07 217.63C227.07 217.63 229.85 219.97 230.65 220.34C234.01 221.93 240.71 224.79 249.97 233.71L260.66 243.95C259.11 249.68 271.43 260.31 271.43 260.31C279.757 261.345 282.267 259.475 285.409 257.133C287.334 255.699 289.497 254.087 293.38 252.86C298.91 251.09 308.57 239.78 308.57 239.78L304.68 239.36C298.29 239.23 286.5 239.96 286.5 239.96C286.5 239.96 282.61 238.01 279.24 237.3C279.24 237.3 274.09 234.15 271.83 231.7L268.9 231.7L249.02 209.55L246.92 206.73L239.69 199.44L234.35 194.02L231.2 192.37L229.81 190.94L227.84 188.86L218.89 179.45C217.8 177.36 216.57 174.76 215.43 172.7C214.5 171.06 212.99 169.29 212.99 169.29C210.67 167.7 204.65 165.92 204.65 165.92L203.91 164.8C200.15 159.64 193.2 154.2 186.19 149.48C178.69 144.42 171.09 140.25 167.33 138.22C169.98 136.97 167.42 134.52 164.43 131.76C162.14 129.7 159.64 127.46 158.96 125.48L158.5 122.12C162.36 125.45 167.7 129.36 173.53 131.42C175.36 132.07 177.18 132.51 179.03 132.72C179.03 132.72 184.56 137.39 195.76 141.17C197.37 142.57 201.16 144.42 201.16 144.42C202.89 145.18 204.71 145.91 204.71 145.91C205.411 146.376 205.304 146.363 204.91 146.314C204.316 146.239 203.068 146.083 202.96 147.37L206.01 148.65C203.6 149.77 204.56 150.89 204.56 150.89L210.8 149.77L214.25 149.27C214.13 150.5 215.52 150.31 215.52 150.31L215.89 146.98C216.85 147.79 217.77 148.18 217.77 148.18L217.93 142.7C217.93 142.7 214.81 137.67 213.39 136.87L212.96 136.68C211.45 136.11 206.97 134.94 203.33 134L200.21 132.83C192.58 127.9 186.19 121.93 186.78 120.76L179.89 114.48C179.89 114.48 173.87 108.67 170.08 105.96C168.59 102.05 160.47 80.73 154.45 68.17C153.56 66.32 152.73 64.65 151.95 63.27C150.38 60.43 148.09 57.57 145.47 54.78C145.47 54.78 144.58 53.84 144.64 51.08C144.88 50.76 145.5 50.48 145.5 50.48L147.88 50.76C149.73 51.44 152.08 52.77 154.79 52.95C154.79 52.95 155.23 52.38 155.94 51.36C157.17 49.59 159.24 46.44 161.09 42.82L162.88 43.16L162.88 38.91C164.06 36.09 164.95 33.17 165.14 30.1C165.6 29.53 166.4 28.33 166.4 28.33L166.34 25.23L167.51 23.17C168.22 21.94 168.96 20.56 168.75 19.13C168.1 19.23 167.51 19.52 167.02 19.91C167.54 19.13 167.14 17.25 167.14 17.25C167.45 16.68 166.71 15.32 166.71 15.32L165.35 13.66C165.11 12.87 164.86 12.07 164.61 11.28L163.99 12.04C163.72 11.57 163.19 10.61 163.19 10.61L161.52 6.96C161.52 6.96 160.6 8.96 160.01 9.9L159.18 8.44C158.72 8.78 157.82 9.51 157.82 9.51C157.26 8.47 156.58 7.51 153.44 7.61C155.97 7.37 151.89 5.63 151.89 5.63C151.89 5.63 151.55 6.44 151.15 6.59C150.84 6.12 149.73 5.79 149.73 5.79C149.98 6.57 147.94 6.54 147.94 6.54L143 5.06C143 5.06 142.88 6.44 142.82 7.14L137.47 8.57L138.18 10.03C137.23 10.09 135.31 10.53 135.31 10.53L134.76 14.07C134.6 14.75 132.81 16.76 132.81 16.76C132.639 17.4189 132.697 18.1421 132.787 19.2781C132.84 19.935 132.903 20.7298 132.94 21.73C132.94 21.73 131.64 22.07 131.12 22.46C131.86 22.96 133.31 23.95 133.31 23.95C133.31 23.95 132.26 24.52 132.6 26.06L132.32 29.81C132.32 29.81 131.27 28.85 130.74 28.35C130.74 28.35 130.9 31.09 131.76 32.13C131.33 31.97 130.9 31.44 130.59 30.97L130.13 30.18C130.13 30.18 130.31 30.55 130.59 30.97L132.5 34.27L130.78 36.01L126.11 38C124.63 37.11 122.29 36.41 122.29 36.41C116.05 35.6 116.05 36.41 116.05 36.41C116.05 36.41 106.26 32.99 100.12 36.04Z" /><path id="Fill 3" fill-rule="evenodd" style="fill:#E8B485" transform="translate(210.6587537091988 134.3857566765579)  rotate(0 11.80415430267064 8.626112759643915)" opacity="1" d="M19.41,14.15L19.95,15.6C19.82,16.86 21.22,16.68 21.22,16.68L21.58,13.27C22.54,14.1 23.47,14.5 23.47,14.5L23.49,13.76L23.61,8.89C23.61,8.89 23.53,8.75 23.37,8.51C22.69,7.4 20.61,4.15 19.33,3.11C19.24,3.04 19.07,2.93 19.07,2.93L18.95,2.87C18.87,2.83 18.77,2.79 18.66,2.75C17.14,2.15 12.67,0.95 9.03,0C6.07,2.24 2.57,4.84 0,6.57C0.37,6.77 0.68,6.92 0.92,7.04C1.28,7.23 1.47,7.32 1.47,7.32C3.06,8.77 5.12,9.86 6.87,10.65C8.61,11.44 10.05,11.93 10.42,12.18C11.45,12.88 10.71,12.51 9.89,12.54C9.73,12.54 9.58,12.56 9.39,12.62C9.29,12.65 9.12,12.76 9.12,12.76C8.88,12.92 8.7,13.19 8.67,13.66L11.7,14.96C9.3,16.11 10.26,17.25 10.26,17.25L16.5,16.11L18.19,14.97L19.41,14.15Z " /><path id="Fill 5" fill-rule="evenodd" style="fill:#E8B485" transform="translate(199.7626112759644 165.2581602373888)  rotate(0 28.14836795252225 26.332344213649844)" opacity="1" d="M21.45,1.11C21.21,0.75 20.96,0.37 20.68,0L7.63,7.7L0,19.01C0.29,19.09 0.46,19.15 0.46,19.15L23.21,27C23.21,27 27.79,32.11 29.89,36.69C31.5,40.19 38.87,48.32 43.75,52.66L56.3,34.51L50.99,29.11L47.85,27.5L37.08,16.16L35.59,14.59C34.52,12.52 33.28,9.93 32.15,7.87C31.24,6.22 30.39,4.92 29.72,4.46C27.43,2.88 21.45,1.11 21.45,1.11Z " /><path id="Fill 7" fill-rule="evenodd" style="fill:#E8B485" transform="translate(44.49258160237389 156.1780415430267)  rotate(0 45.40059347181008 30.87240356083086)" opacity="1" d="M66.92,32.4C65.16,32.01 62.26,27.85 58.49,24.15C58.49,24.15 57.86,23.54 57.53,23.24C57.06,22.81 56.1,21.99 56.1,21.99C55.14,21.23 53.76,20.47 51.97,19.65C46.09,16.91 35.92,13.31 23.27,5.37L16.73,0.8L15.58,0L0,9.45L2.76,9.45L6.96,12.73L10.57,15.55C10.78,15.76 11.21,16.2 11.21,16.2C18.9,23.91 28.55,33.82 28.55,33.82L28.55,36.03L34.43,41.39L37.73,41.39C37.73,41.39 45.74,46.6 50.2,48.26C54.68,49.91 61.98,61.74 65.03,61.74C66.39,61.74 68.49,61.32 70.63,60.64C73.31,59.78 76.07,58.49 77.52,57.08C79.47,55.16 82.76,53.14 86.57,50.95C87.82,50.22 89.13,49.49 90.8,48.52L72.05,26.28C70.27,27.92 68.7,28.98 68.7,28.98L70.58,30.41C70.07,30.82 69.58,31.19 69.13,31.5C68.17,32.14 67.39,32.51 66.92,32.4Z " /><path id="Fill 9" fill-rule="evenodd" style="fill:#E8B485" transform="translate(33.59643916913947 0)  rotate(0 13.166172106824925 8.626112759643915)" opacity="1" d="M19.11,16.06C19.16,16.58 19.23,16.92 19.23,16.92C19.23,16.92 19.32,17.03 19.49,17.25L26.33,10.76L24.44,8.72C23.69,8.72 18.52,3.83 15.59,2.2C15.26,2.02 14.96,1.88 14.7,1.79C14.47,1.71 14.2,1.66 13.88,1.63L6.48,0L1.57,1.6C1.57,1.6 0.38,3.84 5.45,2.3C6.36,2.03 7.2,2.03 7.98,2.2C5.16,2.73 2.63,3.4 2.63,3.4L2.5,3.56L0,6.98C0,6.98 1.25,8.85 3.67,5.15L7.35,5.15C7.35,5.15 11.84,6.37 13.79,8.4C12.31,8.52 9.43,8.7 8.14,8.32C5.28,7.49 5.77,9.48 5.77,9.48C5.77,9.48 9.01,9.9 12.34,12.88C13.03,13.5 16.18,14.86 19.11,16.06Z " /><path id="Fill 11" fill-rule="evenodd" style="fill:#E8B485" transform="translate(146.1899109792285 5.448071216617222)  rotate(0 19.522255192878344 24.51632047477745)" opacity="1" d="M37.31,18.99L37.76,18.2C38.49,16.95 39.24,15.56 39,14.14C38.36,14.24 37.76,14.52 37.26,14.93C37.8,14.14 37.85,13.06 37.39,12.24C37.69,11.68 37.83,11.03 37.81,10.39C37.52,10.36 36.96,10.3 36.96,10.3C36.96,9.69 36.98,9.09 36.99,8.48C36.54,8.62 36.07,8.68 35.59,8.63C35.34,7.84 35.09,7.04 34.84,6.26L34.2,7.01C33.93,6.53 33.66,6.05 33.41,5.56C32.79,4.37 32.22,3.15 31.7,1.92C31.29,2.95 30.77,3.93 30.18,4.87C29.9,4.38 29.62,3.88 29.33,3.39C28.88,3.75 28.43,4.1 27.97,4.46C27.41,3.42 26.73,2.46 25.94,1.59C26.11,2.31 25.94,3.11 25.49,3.71C25.2,2.96 24.37,2.46 23.56,2.55C23.13,1.82 22.6,1.15 21.97,0.57C21.95,1 21.65,1.38 21.26,1.52C20.93,1.06 20.39,0.76 19.82,0.73C20.07,1.51 18.77,1.74 17.98,1.5L13.01,0C12.95,0.7 12.9,1.39 12.84,2.08C10.94,2.04 9.04,2.54 7.42,3.53C7.96,3.78 8.28,4.42 8.15,5C7.16,5.04 6.2,5.21 5.26,5.5C5.63,6.26 6.01,7.01 6.38,7.76C5.74,7.83 5.1,7.89 4.46,7.96C5.16,8.83 4.35,10.38 3.23,10.3C3.72,10.73 3.39,11.71 2.73,11.76C2.46,12.81 2.75,13.99 3.49,14.8C2.83,14.91 2.21,15.31 1.84,15.87C2.3,15.97 2.69,16.31 2.85,16.75C2.19,16.83 1.54,17.08 1.02,17.49C1.75,17.99 2.48,18.48 3.23,18.99C2.67,19.2 2.17,19.55 1.8,20.01C2.03,20.37 2.26,20.73 2.5,21.09C1.86,22.23 1.76,23.65 2.23,24.86C1.71,24.38 1.17,23.9 0.64,23.41C0.41,24.74 0.8,26.15 1.67,27.19C0.83,26.87 0.18,26.1 0,25.23C0.31,26.82 1.19,28.27 2.41,29.33L0.68,31.09L14.45,47.08C14.51,46.79 14.58,46.51 14.65,46.22C14.65,46.22 15.2,45.73 15.52,45.63C16.2,45.42 17,45.59 17.93,45.92C19.82,46.59 22.62,50.89 24.93,48.1C24.93,48.1 25.37,47.53 26.07,46.52C27.32,44.72 29.4,41.57 31.27,37.92L33.1,38.27L33.1,34.01C34.29,31.17 35.17,28.23 35.35,25.53C35.35,25.53 35.36,25.28 35.37,25.15C35.82,24.58 36.24,23.99 36.64,23.37C36.13,22.78 36.58,22 37.21,21.41C37.39,21.25 37.58,21.1 37.77,20.97C37.38,20.73 36.99,20.5 36.59,20.26C36.88,19.84 37.17,19.44 37.31,18.99Z " /><path id="Fill 13" fill-rule="evenodd" style="fill:#023297" transform="translate(113.5014836795252 138.0178041543027)  rotate(0 54.026706231454 34.05044510385757)" opacity="1" d="M89.52,12C81.99,6.98 74.41,2.81 70.61,0.81L21.41,0C19.18,2.41 16.99,5.16 16.28,7.26C15.7,9.02 15.54,10.25 15.58,11.09C15.66,12.54 16.28,12.88 16.28,12.88C16.28,12.88 13.15,16.81 14.37,20.23C13.25,22.91 12.36,25.5 11.94,27.77C11.81,28.47 11.72,29.13 11.68,29.77C11.48,32.85 10.45,35.63 9.09,38.03C5.74,43.9 0,47.71 0,47.71L1.88,49.12L24.01,65.66L27.27,68.1C27.27,68.1 39.7,57.69 49.27,41.79C49.75,41.01 50.19,40.23 50.66,39.42C51.8,39.5 52.98,39.62 54.18,39.77C55.16,39.89 56.17,40.03 57.16,40.18C59.06,40.47 60.95,40.81 62.76,41.17C68.68,42.32 73.56,43.61 74.28,43.61C75.58,43.61 77.36,45.08 78.73,45.33C78.73,45.33 79.42,45.39 79.71,45.24C79.71,45.24 81.89,45.12 83.37,45.44L88.41,38.03L108.05,28.36C104.52,22.92 97.05,17.03 89.52,12Z " /><path id="Fill 15" fill-rule="evenodd" style="fill:#FF5858" transform="translate(141.6498516320475 56.29673590504453)  rotate(0 8.17210682492582 9.080118694362016)" opacity="1" d="M2.5,3.7C-0.93,8.63 0.17,15.66 0.17,15.66C0.17,15.66 -0.31,21.29 0.76,15.66C1.84,10.03 16.34,0.19 16.34,0.19C16.34,0.19 5.92,-1.22 2.5,3.7Z " /><path id="Fill 17" fill-rule="evenodd" style="fill:#FF5858" transform="translate(130.7537091988131 41.76854599406528)  rotate(0 8.626112759643915 4.08605341246291)" opacity="1" d="M4.36,0.6C2.86,-1.43 -1.17,2.26 0.33,3.33C1.82,4.4 4.47,9.84 17.25,7.66C17.25,7.66 5.85,2.62 4.36,0.6Z " /><path id="Fill 19" fill-rule="evenodd" style="fill:#FF5858" transform="translate(119.8575667655786 46.30860534124631)  rotate(0 14.07418397626113 11.35014836795252)" opacity="1" d="M0.01,14.45C-0.35,23.36 15.66,25.11 18.01,19.42C20.37,13.73 29.32,9.06 28.02,8.24C26.73,7.42 19.9,8.83 15.54,8.24C11.19,7.66 6.84,-0.4 4.6,0.02C0.95,0.69 0.36,5.55 0.01,14.45Z " /><path id="Fill 21" fill-rule="evenodd" style="fill:#FF5858" transform="translate(114.4094955489614 67.19287833827892)  rotate(0 14.982195845697325 20.43026706231454)" opacity="1" d="M7.86,35.53C13.79,42.2 27.28,41.56 29.67,39.25C32.06,36.95 19.09,31.63 19.27,29.15C19.44,26.67 5.52,20.29 9.85,17.69C14.18,15.09 23.07,19.11 23.54,16.98C24,14.85 17.45,8.71 11.02,8.47C4.58,8.23 2.19,-0.95 1.78,0.08C-2.67,11.31 1.93,28.86 7.86,35.53Z " /><path id="Fill 23" fill-rule="evenodd" style="fill:#FF5858" transform="translate(127.1216617210683 113.5014836795253)  rotate(0 26.332344213649844 10.44213649851632)" opacity="1" d="M52.1,20.66C56.12,19.1 37.43,15.49 31.51,11.4C25.6,7.31 14.36,0.57 9.27,0.09C4.18,-0.39 0.02,1.09 0,5.98C-0.04,15.25 48.08,22.23 52.1,20.66Z " /><path id="Fill 25" fill-rule="evenodd" style="fill:#FF5858" transform="translate(144.3738872403561 64.46884272997033)  rotate(0 19.522255192878344 19.52225519287834)" opacity="1" d="M29.39,26.38C27.84,28.86 25.64,25.2 26.11,21.78C26.59,18.35 28.12,9.02 26.69,7.96C25.26,6.89 18.81,9.49 14.58,9.89C10.34,10.28 8.45,6.54 11.74,4.77C15.03,2.99 27.17,7.72 27.13,6.42C27.09,5.12 22.11,-0.55 11.74,0.04C1.37,0.63 -0.61,9.06 0.14,12.8C0.9,16.58 6.45,20.24 11.04,18.47C15.63,16.7 15.4,24.61 17.75,29.45C20.11,34.29 36.48,41.15 38.71,38.43C40.95,35.71 31.18,16.22 29.88,16.11C28.58,15.99 30.94,23.9 29.39,26.38Z " /><path id="Fill 27" fill-rule="evenodd" style="fill:#FF5858" transform="translate(173.4302670623145 108.053412462908)  rotate(0 10.44213649851632 4.086053412462903)" opacity="1" d="M20.82,7.01C21.77,5.31 12.62,0 12.62,0C12.02,4.13 0,2.29 0,2.29C7.59,9.55 19.86,8.7 20.82,7.01Z " /><path id="Fill 29" fill-rule="evenodd" style="fill:#FF5858" transform="translate(186.1424332344214 117.1335311572701)  rotate(0 7.71810089020772 3.1780415430267017)" opacity="1" d="M14.15,5.7C18.5,3.42 10.4,0 10.4,0C8.47,2.15 0,1.01 0,1.01C2.17,3.83 9.8,7.98 14.15,5.7Z " /><path id="Fill 31" fill-rule="evenodd" style="fill:#FF5858" transform="translate(187.0504451038576 124.3976261127597)  rotate(0 9.988130563798235 2.270029673590514)" opacity="1" d="M19.98,3.36L15.89,0C8.65,2.85 0,0.64 0,0.64C4.57,7.36 19.98,3.36 19.98,3.36Z " /><path id="Fill 33" fill-rule="evenodd" style="fill:#FF5858" transform="translate(207.026706231454 129.8456973293769)  rotate(0 4.086053412462903 2.2700296735905)" opacity="1" d="M4.95,4.54L8.17,2.81L3.47,0L0,2.81L4.95,4.54Z " /><path id="Fill 35" fill-rule="evenodd" style="fill:#0448D8" transform="translate(128.9376854599406 142.5578635014837)  rotate(0 22.246290801186944 6.810089020771515)" opacity="1" d="M42.62 0.77L44.49 0C43.9 0.26 43.27 0.52 42.62 0.77ZM42.62 0.77C28.47 6.2 2.43 9.23 2.43 9.23C2.43 9.23 -3.04 11.84 2.43 13.49C7.15 14.92 35.08 3.82 42.62 0.77Z" /><path id="Fill 37" fill-rule="evenodd" style="fill:#0448D8" transform="translate(128.9376854599406 153.4540059347181)  rotate(0 12.25816023738872 4.994065281899111)" opacity="1" d="M24.52,0C15.08,4.65 0.08,6.89 0.08,6.89C-1.63,16.72 24.52,0 24.52,0Z " /><path id="Fill 39" fill-rule="evenodd" style="fill:#0448D8" transform="translate(130.7537091988131 141.6498516320475)  rotate(0 36.32047477744807 17.25222551928785)" opacity="1" d="M8.47 31.31C25.86 24.85 64.63 10.92 72.64 12.18C72.64 12.18 65.39 7.24 60.87 7.72C58.7103 7.94884 54.68 9.93236 51.1555 11.667C47.2872 13.5708 44.0281 15.1748 44.52 13.83C45.47 11.25 57.12 4.47 64.08 6.06C64.08 6.06 56.74 0.7 53.47 0C53.47 0 28.82 21.91 8.47 31.31ZM8.47 31.31C3.29 33.24 0 34.5 0 34.5C2.68 33.77 5.53 32.67 8.47 31.31Z" /><path id="Fill 41" fill-rule="evenodd" style="fill:#0448D8" transform="translate(189.7744807121662 157.0860534124629)  rotate(0 13.62017804154303 8.626112759643915)" opacity="1" d="M7.57,9.15C1.29,15.84 7.57,17.25 7.57,17.25C13.5,10.91 27.24,5.71 27.24,5.71C23.02,2.62 21.49,0.91 21.49,0.91C8.45,-2.99 0,6.91 0,6.91C0,6.91 13.85,2.45 7.57,9.15Z " /><path id="Fill 43" fill-rule="evenodd" style="fill:#0448D8" transform="translate(119.8575667655786 165.2581602373888)  rotate(0 26.78635014836795 9.98813056379822)" opacity="1" d="M0.04,19.78C-1.25,21.21 28.05,14.53 33.92,12.78C39.8,11.04 54.05,0.48 53.56,0C53.56,0 1.33,18.35 0.04,19.78Z " /><path id="Fill 45" fill-rule="evenodd" style="fill:#F4C7A2" transform="translate(222.4629080118694 168.8902077151336)  rotate(0 4.086053412462903 5.44807121661721)" opacity="1" d="M2.7,7.2L7.63,10.9C7.63,10.9 11.21,0.63 0,0L2.7,7.2Z " /><path id="Fill 47" fill-rule="evenodd" style="fill:#B57F57" transform="translate(147.0979228486647 14.52818991097922)  rotate(0 14.074183976261125 19.52225519287834)" opacity="1" d="M0.99,8.32C1.71,8.81 2.43,9.3 3.16,9.8C2.62,10.01 2.13,10.36 1.76,10.8C1.99,11.16 2.21,11.52 2.44,11.88C1.82,13 1.73,14.4 2.18,15.59C1.67,15.12 1.15,14.64 0.63,14.16C0.41,15.47 0.78,16.87 1.63,17.89C0.81,17.58 0.17,16.82 0,15.96C0.31,17.52 1.17,18.95 2.35,20L0.96,21.44L3.23,23.11L10.47,32.8C10.47,32.8 13.43,23.76 14.65,23.11C15.88,22.47 20.48,32.33 20.48,32.33L21.69,39.04C21.69,39.04 25.42,31.09 24.38,26.03C23.98,24.03 28.15,10.04 28.15,10.04L4.58,0C4.44,0.66 3.86,1.28 3.16,1.23C3.64,1.65 3.32,2.62 2.67,2.67C2.4,3.71 2.69,4.87 3.41,5.67C2.76,5.78 2.16,6.17 1.8,6.72C2.25,6.83 2.63,7.16 2.79,7.59C2.14,7.67 1.51,7.92 0.99,8.32Z " /><path id="Fill 49" fill-rule="evenodd" style="fill:#F9AE40" transform="translate(146.1899109792285 5.448071216617222)  rotate(0 19.522255192878344 17.252225519287833)" opacity="1" d="M13.55,29.47L16.23,31.99L16.95,29.47L18.73,31.99L19.52,29.47L20.94,31.54C20.94,31.54 23.31,24.21 25.87,26.16C28.11,27.89 26.41,29.15 25.96,29.42L32.82,26.16L35.32,21.65L37.21,21.52C37.39,21.35 37.58,21.21 37.77,21.08C37.38,20.83 36.99,20.6 36.59,20.36C36.88,19.94 37.17,19.54 37.31,19.08L37.76,18.29C38.49,17.03 39.24,15.64 39,14.21C38.36,14.31 37.76,14.59 37.26,15C37.8,14.21 37.85,13.13 37.39,12.3C37.69,11.74 37.83,11.09 37.81,10.44C37.52,10.41 36.96,10.35 36.96,10.35C36.96,9.74 36.98,9.13 36.99,8.53C36.54,8.67 36.07,8.73 35.59,8.67C35.34,7.88 35.09,7.08 34.84,6.29C34.62,6.54 34.2,7.04 34.2,7.04C33.93,6.56 33.66,6.08 33.41,5.59C32.79,4.4 32.22,3.17 31.7,1.93C31.29,2.96 30.77,3.95 30.18,4.9C29.9,4.4 29.62,3.9 29.33,3.41C28.88,3.77 28.43,4.12 27.97,4.48C27.41,3.44 26.73,2.47 25.94,1.6C26.11,2.33 25.94,3.13 25.49,3.73C25.2,2.97 24.37,2.47 23.56,2.57C23.13,1.83 22.6,1.16 21.97,0.58C21.97,0.58 21.94,0.79 21.9,0.89C21.9,0.89 21.55,1.43 21.26,1.54C20.93,1.06 20.39,0.76 19.82,0.73C20.07,1.52 18.77,1.75 17.98,1.5L13.01,0C12.95,0.7 12.9,1.4 12.84,2.09C10.94,2.05 9.04,2.55 7.42,3.55C7.96,3.8 8.28,4.44 8.15,5.02C7.16,5.07 6.2,5.24 5.26,5.53C5.63,6.29 6.01,7.04 6.38,7.8C5.74,7.86 5.1,7.93 4.46,8C4.81,8.43 4.78,9.05 4.53,9.53C4.27,10.02 3.78,10.39 3.23,10.35C3.72,10.78 3.39,11.77 2.73,11.81C2.46,12.87 2.75,14.06 3.49,14.87C2.83,14.98 2.21,15.38 1.84,15.95C2.3,16.05 2.69,16.4 2.85,16.83C2.19,16.91 1.54,17.17 1.02,17.57C1.75,18.07 2.48,18.57 3.23,19.08C2.67,19.29 2.17,19.65 1.8,20.11C2.03,20.47 2.26,20.83 2.5,21.2C1.86,22.34 1.76,23.77 2.23,24.98C1.71,24.5 1.17,24.02 0.64,23.53C0.41,24.86 0.8,26.29 1.67,27.32C0.83,27.01 0.18,26.23 0,25.36C0.31,26.95 1.19,28.4 2.41,29.47C2.41,29.47 7.01,30.47 11.41,34.5L12.48,31.99L13.55,33.6L13.55,29.47Z " /><path id="Fill 51" fill-rule="evenodd" style="fill:#B57F57" transform="translate(35.41246290801186 0)  rotate(0 7.264094955489615 1.3620178041543025)" opacity="1" d="M13.61,1.72C13.38,1.64 13.1,1.59 12.77,1.57L5.16,0L0.13,1.53C0.13,1.53 -1.1,3.69 4.11,2.2C5.04,1.94 5.91,1.95 6.71,2.11C6.71,2.11 10.28,2.39 11.49,2.06C13.14,1.61 14.53,2.11 14.53,2.11C14.19,1.94 13.88,1.8 13.61,1.72Z " /><path id="Fill 53" fill-rule="evenodd" style="fill:#F4C7A2" transform="translate(228.8189910979229 139.8338278931751)  rotate(0 1.816023738872403 3.6320474777448055)" opacity="1" d="M0,1.29C0,1.29 0.86,6.54 1.84,7.1C2.82,7.66 3.37,6.65 3.62,6.15C3.86,5.65 0.79,-0.17 0.79,0C0.78,0.45 0,1.29 0,1.29Z " /><path id="Fill 55" fill-rule="evenodd" style="fill:#F4C7A2" transform="translate(227.0029673590504 141.6498516320475)  rotate(0 0.9080118694362085 3.6320474777448055)" opacity="1" d="M0.06,0.95C0.06,0.95 -0.23,7.26 0.47,7.26C1.17,7.26 1.82,5.9 1.82,5.9L0.77,0C0.67,0.35 0.06,0.95 0.06,0.95Z " /><path id="Fill 57" fill-rule="evenodd" style="fill:#F4C7A2" transform="translate(223.3709198813056 143.4658753709199)  rotate(0 1.3620178041542914 2.2700296735905)" opacity="1" d="M1.68,0.61C1.68,1.27 0,4.37 0,4.37C0,4.37 0.98,4.76 1.61,4.37C2.23,3.98 2.72,0 2.72,0C2.31,0.5 1.68,0.61 1.68,0.61Z " /><path id="Fill 59" fill-rule="evenodd" style="fill:#F4C7A2" transform="translate(230.6350148367952 137.1097922848665)  rotate(0 1.816023738872403 3.1780415430267084)" opacity="1" d="M0.03,0.02C0.01,0.01 0,0 0,0C0,0 0.18,1.21 0,1.64L2.73,6.36C2.73,6.36 3.3,6.31 3.63,5.42C3.02,4.31 1.15,1.04 0.03,0.02Z " /><path id="Fill 61" fill-rule="evenodd" style="fill:#B57F57" transform="translate(219.7388724035608 146.1899109792285)  rotate(0 0.45400593471811135 0.45400593471811135)" opacity="1" d="M0.61,0.38C0.5,0.41 0.39,0.46 0.3,0.53C0.42,0.48 0.53,0.43 0.61,0.38Z " /><path id="Fill 63" fill-rule="evenodd" style="fill:#B57F57" transform="translate(226.0949554896142 146.1899109792285)  rotate(0 0.45400593471811135 0.45400593471811135)" opacity="1" d="M0.49,0.24C0.47,0.33 0.45,0.48 0.42,0.67C0.45,0.48 0.48,0.33 0.49,0.24Z " /><path id="Fill 65" fill-rule="evenodd" style="fill:#B57F57" transform="translate(220.6468842729971 146.1899109792285)  rotate(0 3.1780415430267084 2.270029673590514)" opacity="1" d="M5.41,0C5.3,0.62 5.09,1.67 4.78,2.16C4.31,2.88 1.61,2.26 1.61,2.26C-0.76,3.4 0.19,4.54 0.19,4.54L6.36,3.4C5.23,2.68 5.3,0.87 5.41,0Z " /><path id="Fill 67" fill-rule="evenodd" style="fill:#B57F57" transform="translate(210.6587537091988 134.3857566765579)  rotate(0 9.534124629080125 6.356083086053415)" opacity="1" d="M9.08,0C6.11,2.18 2.58,4.72 0,6.41C0.38,6.6 0.69,6.74 0.92,6.86C1.29,7.04 1.48,7.13 1.48,7.13C3.08,8.55 5.15,9.61 6.91,10.38C8.66,11.14 10.11,11.62 10.49,11.87C11.53,12.55 10.77,12.18 9.95,12.21C10.83,12.24 12.39,12.71 12.39,12.71C12.39,12.71 14.29,7.9 14.64,7.79C15,7.67 15.47,8.41 15.47,8.41C15.47,8.41 15.47,7.85 16.15,7.14C16.82,6.44 17.33,6.67 17.33,6.67C17.19,5.68 18.78,4.56 18.78,4.56L19.07,2.79C19.07,2.79 18.89,2.72 18.78,2.68C17.25,2.1 12.75,0.93 9.08,0Z " /><path id="Fill 69" fill-rule="evenodd" style="fill:#B57F57" transform="translate(228.8189910979229 143.4658753709199)  rotate(0 2.724035608308611 3.6320474777448055)" opacity="1" d="M3.11,7.26L3.48,3.82C3.7,5.59 5.43,5.06 5.43,5.06L5.45,4.31C4.07,3.82 3.58,0.44 3.53,0L3.82,3.16C3.82,3.16 2.49,4.81 2,4.57C1.52,4.32 0.49,3.6 0.49,3.6L0,5.53L1.26,4.71L1.22,6.09C1.08,7.35 3.11,7.26 3.11,7.26Z " /><path id="Fill 71" fill-rule="evenodd" style="fill:#FFDC15" transform="translate(148.9139465875371 5.448071216617222)  rotate(0 13.62017804154303 11.804154302670625)" opacity="1" d="M2.24,18.07L1.17,19.58L3.53,19.23L3.53,20.97L6.48,19L8.49,22.37L11.44,19.35L12.26,22.95L13.98,20.97L16.53,23.61L18.52,19.46L19.6,21.2L21.89,18.65L24.16,20.28L24.16,18.24L27.24,15.28L24.16,15.28L26.41,10.98L24.76,10.98L25.7,6.91L23.35,7.61L23.35,4.36L21.89,5.46L20.53,2.51L19.6,3.78L18.88,0.87C18.78,1.16 18.54,1.39 18.25,1.5C17.93,1.04 17.38,0.74 16.82,0.72C17.07,1.48 15.78,1.71 15,1.47L10.07,0C10.01,0.68 9.96,1.37 9.9,2.04C8.02,2 6.14,2.5 4.53,3.46C5.06,3.71 5.38,4.34 5.25,4.91C4.28,4.95 3.31,5.12 2.39,5.4C2.75,6.14 3.13,6.88 3.5,7.62C2.86,7.68 2.23,7.75 1.59,7.81C1.94,8.24 1.91,8.84 1.66,9.31C2.51,10.69 3.3,11.49 3.3,11.49L1.41,11.49L1.64,13.31L0.44,12.96C1.01,14.37 2.59,15.63 2.59,15.63L0,16.44L2.24,18.07Z " /><path id="Fill 73" fill-rule="evenodd" style="fill:#CFD1D2" transform="translate(229.7270029673591 192.4985163204748)  rotate(0 29.056379821958444 25.87833827893175)" opacity="1" d="M16.9,28.06C20.26,29.65 26.97,32.52 36.25,41.46L46.95,51.76C46.95,51.76 47.68,40.94 58.11,39.46L55.21,39.46L35.3,17.23L33.18,14.4L25.96,7.06L20.62,1.63L17.46,0C17.46,0 16.9,3.37 13.19,3.92C11.38,4.19 5.51,7.28 0,10.38C2.4,14.3 8.89,21.38 13.33,25.35C14.84,26.7 16.11,27.68 16.9,28.06Z " /><path id="Fill 75" fill-rule="evenodd" style="fill:#CFD1D2" transform="translate(43.58456973293769 156.1780415430267)  rotate(0 28.60237388724036 20.884272997032657)" opacity="1" d="M35.5,41.77L38.81,41.77C38.81,41.77 41.58,24.82 57.2,22.39C53.14,19.1 40.84,16.12 24.32,5.78L17.77,1.22L16.62,0.43L16.01,0L4.73,1.02L0,9.44C0.51,9.7 0.84,9.87 0.84,9.87L3.78,9.87L11.6,15.96C11.81,16.17 12.03,16.39 12.25,16.61C19.95,24.3 29.61,34.2 29.61,34.2L29.61,36.42L35.5,41.77Z " /><path id="Fill 77" fill-rule="evenodd" style="fill:#FF5858" transform="translate(38.13649851632047 137.1097922848665)  rotate(0 9.080118694362016 8.6261127596439)" opacity="1" d="M0.13,11.47C-0.9,12.17 4.29,9.72 7.93,10.15C7.93,10.15 2.6,12.09 3.97,13.74C5.33,15.39 5.51,18.6 7.93,16.64C10.36,14.67 14.69,13.04 18.16,14.3C18.16,14.3 12.44,1.72 10.19,0.7C7.93,-0.32 2.56,-0.57 0.13,2.41C0.13,2.41 1.17,10.76 0.13,11.47Z " /><path id="Fill 79" fill-rule="evenodd" style="fill:#FF5858" transform="translate(285.1157270029674 233.3590504451039)  rotate(0 18.16023738872403 7.26409495548961)" opacity="1" d="M26.45,9.48C28.89,9.69 33.34,7.87 36.32,6.49C29.94,6.37 18.16,7.07 18.16,7.07C18.16,7.07 14.28,5.17 10.93,4.48C8.54,4 5.8,1.43 4.42,0C1.96,0.61 0,2.25 0,2.25C0,2.25 1.41,3.62 3.53,6.04C5.64,8.45 16.75,8.45 16.75,8.45C9.7,9.31 14.28,13.78 14.99,14.47C15.69,15.16 22.57,9.14 26.45,9.48Z " /><path id="Fill 81" fill-rule="evenodd" style="fill:#FFFFFF" transform="translate(244.2551928783383 197.0385756676558)  rotate(0 16.79821958456972 15.43620178041543)" opacity="1" d="M4.72,8.69C5.6,7.98 11.93,8.69 11.93,8.69L8.22,10.29L33.6,30.87C33.6,30.87 19.77,11.71 16.8,9.58L7.17,0C7.17,0 4.49,3.39 0,4.08C0,4.08 3.85,9.4 4.72,8.69Z " /><path id="Fill 83" fill-rule="evenodd" style="fill:#FFFFFF" transform="translate(59.02077151335311 159.8100890207715)  rotate(0 16.798219584569743 13.62017804154303)" opacity="1" d="M14.22,19.6C14.22,19.6 15.11,18.45 16.8,17.71C16.8,17.71 15.33,24.55 16.89,25.31L20.8,27.24C20.8,27.24 27.55,18.98 33.6,17.71L25.24,13.33L20.98,13.33L22.93,12.44C22.93,12.44 5.91,3.14 3.2,0C3.2,0 1.42,1.23 0,4.59L14.22,19.6Z " /><path id="Fill 85" fill-rule="evenodd" style="fill:#F4C7A2" transform="translate(91.70919881305639 184.326409495549)  rotate(0 7.26409495548961 3.6320474777447913)" opacity="1" d="M0.98,6.2C4.53,7.25 14.53,7.26 14.53,7.26L6.61,0.02C4.5,-0.33 -2.57,5.14 0.98,6.2Z " /><path id="Fill 87" fill-rule="evenodd" style="fill:#B57F57" transform="translate(102.6053412462908 179.786350148368)  rotate(0 11.804154302670625 8.17210682492582)" opacity="1" d="M11.47,8.06C10.52,8.69 9.75,9.05 9.29,8.95C7.55,8.57 4.67,4.5 0.94,0.88C0.64,0.58 0.32,0.28 0,0L7.36,9.76L2.12,7.45C2.12,7.45 7.01,14.1 9.46,14.62C11.91,15.14 23.61,16.34 23.61,16.34L11.47,8.06Z " /><path id="Fill 89" fill-rule="evenodd" style="fill:#B57F57" transform="translate(114.4094955489614 196.1305637982196)  rotate(0 10.89614243323441 9.98813056379822)" opacity="1" d="M10.5,11.2C10.5,11.2 7.26,17.69 3.94,19.98C5.55,19.24 6.99,18.37 7.9,17.45C9.81,15.5 13.04,13.44 16.79,11.2C18.01,10.46 19.29,9.71 20.61,8.94C20.71,8.88 20.94,8.73 20.94,8.73C21.2,8.55 21.48,8.34 21.79,8.08L11.71,0L0,11.2C0,11.2 7.72,12.62 10.5,11.2Z " /><path id="Fill 91" fill-rule="evenodd" style="fill:#B57F57" transform="translate(200.6706231454006 167.0741839762611)  rotate(0 22.246290801186944 13.62017804154303)" opacity="1" d="M9.88,11.12C10.62,8.96 18.97,6.81 18.97,6.81L18.97,0L2.41,7.34L0,13.62L30.11,25.11L44.49,27.24L37.11,18.17C39.04,19.09 41.37,20.45 43.28,21.62L35.85,13.88L34.36,12.32C31.97,17.3 21.65,10.29 21.65,10.29L22.83,13.28C22.83,13.28 9.14,13.28 9.88,11.12Z " /><path id="Fill 93" fill-rule="evenodd" style="fill:#000523" transform="translate(163.4421364985163 39.95252225519289)  rotate(0 4.086053412462917 7.264094955489615)" opacity="1" d="M8.17,13.39C8.17,13.39 6.75,15 5.81,13.39C4.51,11.17 4.52,4.4 0,0C0.11,0.37 2.34,8.13 1,11.27C2.93,11.92 5.84,16.66 8.17,13.39Z " /><path id="Fill 95" fill-rule="evenodd" style="fill:#000523" transform="translate(162.5341246290801 177.0623145400594)  rotate(0 0.9080118694362085 1.3620178041542914)" opacity="1" d="M0,2.72C0.62,1.83 1.22,0.92 1.82,0C0.61,1.38 0.05,2.25 0,2.72Z " /><path id="Fill 97" fill-rule="evenodd" style="fill:#000523" transform="translate(163.4421364985163 159.8100890207715)  rotate(0 13.62017804154303 9.08011869436203)" opacity="1" d="M3.5,18.16C11.51,12.85 26.64,0.49 27.24,0C26.59,0.21 8.62,6.35 0,17.81C1.14,17.89 2.32,18.01 3.5,18.16Z " /><path id="Fill 99" fill-rule="evenodd" style="fill:#000523" transform="translate(169.7982195845698 166.166172106825)  rotate(0 12.25816023738872 6.356083086053405)" opacity="1" d="M0,11.7C1.93,12 3.86,12.35 5.68,12.71C13.48,9.15 24.19,2.66 24.52,0C24.52,0 6.84,5.99 0,11.7Z " /><path id="Fill 101" fill-rule="evenodd" style="fill:#000523" transform="translate(127.1216617210683 130.7537091988131)  rotate(0 28.148367952522264 9.08011869436203)" opacity="1" d="M0,0.98C0.78,2.2 2.84,4.07 7.16,7.02C4.93,9.42 2.75,12.14 2.04,14.22C1.46,15.96 1.3,17.19 1.35,18.02C18.6,19.56 56.3,7.83 56.3,7.83C56.3,7.83 11.78,-0.08 4.17,0C1.92,0.03 0.66,0.43 0,0.98Z " /><path id="Fill 103" fill-rule="evenodd" style="fill:#000523" transform="translate(122.5816023738872 142.5578635014837)  rotate(0 28.148367952522253 16.79821958456975)" opacity="1" d="M2.59,25.24C2.39,28.36 1.36,31.17 0,33.6C16.65,30.24 55.03,0.97 56.3,0C20.08,21.23 7.26,23.64 2.85,23.22C2.71,23.92 2.63,24.6 2.59,25.24Z " /><path id="Fill 105" fill-rule="evenodd" style="fill:#000523" transform="translate(113.5014836795252 185.2344213649851)  rotate(0 13.62017804154303 10.896142433234415)" opacity="1" d="M1.88,1.42C1.37,1.82 0.88,2.19 0.42,2.49C2.48,10.09 10.97,17.91 17.91,21.79C19.16,21.08 20.47,20.34 21.81,19.59C22.39,19.27 23.12,18.71 23.99,17.97L27.24,20.41C23.93,8.8 0.73,0.26 0,0L1.88,1.42Z " /><path id="Fill 107" fill-rule="evenodd" style="fill:#000523" transform="translate(127.1216617210683 69.91691394658753)  rotate(0 50.8486646884273 36.32047477744806)" opacity="1" d="M83.97,71.19C91.84,73.37 94.65,72.87 98.71,70.59C100.52,69.57 101.34,68.21 101.7,67C99.89,66.31 93.85,64.77 90.04,63.82C89.69,63.59 89.33,63.36 88.97,63.14C87.72,64.18 86.2,65.28 84.77,65.82C81.6,67.04 75.78,63.05 75.78,63.05C75.78,63.05 82.13,60.02 78.82,59.14C76.25,58.46 67.79,60.39 64.09,61.3C60.03,59.25 53.77,55.64 51.18,51.75C51.18,51.75 56.98,53.86 59.51,53.16C62.03,52.45 37.79,38.07 32.8,34.52C33.51,34.79 47.04,40.08 45.92,38.02C44.76,35.91 9.84,12.68 13.02,0C13.02,0 2.8,10.55 25.7,22.17C25.01,21.96 -1.27,13.77 0.05,16.9C1.33,19.95 26.23,32.18 28,33.05C26.55,32.4 9.51,24.72 9.84,26.4C10.19,28.14 35.56,43.91 36.28,44.35C35.72,44.2 14.09,38.41 15.13,40.84C15.96,42.74 35.74,57.39 53.26,62.09C50.98,60.03 48.47,57.8 47.81,55.84C47.42,54.7 47.3,53.57 47.36,52.47C51.19,55.8 56.53,59.69 62.34,61.74L62.66,61.85C62.66,61.85 63.31,62.07 63.64,62.17L65.02,62.54C65.02,62.54 65.46,62.64 65.69,62.69C65.69,62.69 66.17,62.8 66.42,62.84C66.89,62.93 67.35,63 67.83,63.05C67.83,63.05 73.35,67.69 82.43,70.42C83.1,70.75 83.62,71.01 83.97,71.19Z " /><path id="Fill 109" fill-rule="evenodd" style="fill:#000523" transform="translate(191.5905044510386 166.166172106825)  rotate(0 66.73887240356085 47.216617210682486)" opacity="1" d="M85.36,77.84C83.78,83.54 96.14,94.14 96.14,94.14C109.6,95.81 107.86,89.94 118.11,86.71C123.65,84.96 134.92,74.73 133.33,73.68C130.85,77.56 120.24,78.26 117.41,81.43C114.58,84.59 103.61,85.3 102.54,84.59C101.48,83.89 100.07,75.44 96.88,74.73C93.69,74.04 90.15,68.4 90.15,68.4C86.69,71.16 85.91,66.99 81.66,61.7C77.42,56.42 55.47,41.25 55.47,41.25C52.64,42.99 48.05,36.71 46.64,34.24C46.64,34.24 54.25,33.71 59.01,28.08L55.86,26.45L54.49,25.02C52.92,25.87 50.81,26.9 48.6,27.71C46.42,25.67 43.61,22.8 42.21,20.35C38.67,18.59 35.29,16.55 31.91,14.51C33.53,16.85 33.54,19.45 33.54,19.45C27,20.77 16.98,16.25 12.2,13.81C20.65,7.33 29.29,0.08 29.29,0.08C29.29,0.08 15,-2.14 0,17.07L0.99,16.98C0.99,16.98 4.46,17.09 6.27,17.57C7.66,17.95 8.16,18.11 8.16,18.11L31.06,25.96C31.06,25.96 35.67,31.07 37.79,35.65C39.91,40.23 51.94,52.72 55.3,54.31C58.66,55.9 65.38,58.75 74.65,67.62L85.36,77.84Z " /><path id="Fill 111" fill-rule="evenodd" style="fill:#000523" transform="translate(79.90504451038576 32.68842729970328)  rotate(0 32.23442136498516 16.798219584569736)" opacity="1" d="M52.77,4.09C52.77,4.09 43.01,0.63 36.86,3.72C31.79,2.73 26.45,1.51 21.24,0C21.6,2.08 22.02,3.7 22.02,4.25C22.02,6.04 33.67,9.61 33.67,9.61C24.87,10.32 2.3,4.61 0.89,5.32C-0.52,6.04 16.39,13.87 16.39,13.87C11.82,13.51 5.89,12 0,10.16C6.38,15.35 12.73,19.33 17.45,19.68C19.3,21.37 21.49,22.87 23.99,23.7C27.74,27.42 31.85,31.07 35.7,33.6C40.2,26.14 37.17,14.61 47.22,10.68C57.16,6.79 64.47,6.77 64.47,6.77L63.66,6.23C63.53,6.15 63.28,6 63.28,6C63.28,6 62.99,5.81 62.84,5.72C61.31,4.81 59.99,4.22 58.95,4.09C52.77,3.27 52.77,4.09 52.77,4.09Z " /><path id="Fill 113" fill-rule="evenodd" style="fill:#000523" transform="translate(39.95252225519289 8.172106824925805)  rotate(0 24.06231454005935 14.07418397626113)" opacity="1" d="M48.12,19.77C30.23,5.64 31.05,9.09 29.84,8.23C29.84,8.23 19.19,9.31 19.54,8.03C19.79,7.12 23.24,5.37 26.21,5.04C23.88,3.7 21.68,3.57 21.68,3.57L18.84,0.59C18.84,0.59 13.31,1.61 12.96,3.69C12.6,5.8 8.11,0.28 8.11,0.28C6.62,0.4 3.72,0.57 2.42,0.2C-0.47,-0.62 0.03,1.35 0.03,1.35C0.03,1.35 3.29,1.75 6.65,4.69C7.34,5.29 10.51,6.63 13.47,7.81C13.52,8.32 13.59,8.65 13.59,8.65C13.59,8.65 15.07,10.51 17.96,13.52C21.49,17.33 26.8,22.87 32.6,28.15C32.31,27.79 28.24,22.83 28.24,20.57C28.24,18.22 48.12,19.77 48.12,19.77Z " /><path id="Fill 115" fill-rule="evenodd" style="fill:#000523" transform="translate(140.7418397626113 34.50445103857567)  rotate(0 14.98219584569732 16.798219584569736)" opacity="1" d="M27.47,28.73C25.9,25.91 23.63,23.09 21.11,20.43C21.11,20.43 21.05,20.36 21.01,20.32C20.57,19.86 20.13,19.4 19.68,18.96C19.81,18.19 19.98,17.42 20.18,16.65C20.43,16.36 20.72,16.17 21.04,16.07C21.87,11.89 21.14,4.97 20.59,4.94C19.87,4.89 18.74,14.59 18.74,14.59C18.74,14.59 18.27,11.86 15.72,7.31C13.15,2.76 8.1,0 8.1,0L3.43,4.77C9.25,6.85 16.28,16 16.5,16.29C16.1,15.99 3.01,6.37 1.62,6.03C0.22,5.68 -0.96,7.08 1.15,8.59C3.07,9.97 14.18,16.36 16.2,17.52C11.77,15.15 6.42,16.67 5.85,17.7C5.25,18.74 9.95,18.98 16.98,20.73C22.41,22.08 27.47,30.35 29.96,33.6C29.07,31.76 28.23,30.11 27.47,28.73Z " /><path id="Fill 117" fill-rule="evenodd" style="fill:#000523" transform="translate(168.8902077151335 10.89614243323442)  rotate(0 8.626112759643915 20.43026706231454)" opacity="1" d="M8.47,19.66L7.05,17.12L7.05,20.43L5.76,20.43L5.76,22.38L4.56,23.2C4.56,23.2 5.4,18.01 2.81,18.01C0.21,18.01 -0.5,24.5 0.33,26.74L1.15,28.99C1.15,28.99 2.01,30.05 2.29,29.81C2.57,29.58 2.26,25.92 3.42,25.33C4.58,24.74 6.47,22.02 7.18,21.82C7.89,21.63 8.47,21.95 9.51,21.82C10.14,21.74 11.92,19.75 12.05,17.64C12.15,18.61 12.16,19.85 11.98,21.43C11.98,21.43 10.55,26.18 9.51,25.51C8.15,24.62 6.67,25.6 6.49,26.66C6.32,27.72 7.82,31.12 5.08,35.57C4.03,37.26 3.58,39.16 3.42,40.86C4.16,39.79 6.11,39.64 6.29,37.9C6.29,37.9 7.3,37.27 7.13,36.91C7.13,36.91 7.37,36.03 8.26,35.56C8.26,35.56 9.3,36.34 10.21,36.12C11.09,35.91 10.68,33.86 10.94,32C11.09,30.96 10.96,29.72 10.82,28.82C10.72,28.14 10.89,27.44 11.32,26.91C12.61,25.31 13.16,22.73 13.31,20.43L13.75,19.57C14.2,19 14.69,19.06 15.08,18.44C14.43,17.68 16.19,15.08 17.03,14.53C16.64,14.28 16.68,14.33 16.29,14.08C16.58,13.67 16.74,12.81 17.03,12.4C16.97,12.4 17.25,11.58 17.25,11.58L17.03,10.81C17.75,9.56 16.49,9.98 16.25,8.56C15.62,8.66 16.78,7.48 16.29,7.89C16.82,7.11 15.11,7.49 14.65,6.66C14.95,6.1 15.09,5.46 15.06,4.82C14.78,4.79 14.5,4.76 14.22,4.73C14.23,4.12 14.24,3.52 14.26,2.92C13.81,3.06 13.34,3.12 12.87,3.06C12.62,2.27 12.37,1.48 12.12,0.69C11.91,0.94 11.7,1.2 11.49,1.44C11.22,0.97 10.96,0.49 10.7,0L10.3,2.39L11.02,1.87C11.02,1.87 11.57,3.64 11.02,5.93C11.02,5.93 12.33,5.77 12.6,5.23C12.6,5.23 12.33,9.12 11.72,10.01L13.04,10.81C13.04,10.81 11.66,14.35 11.02,14.62C11.02,14.62 11.29,14.88 11.56,15.54C11.36,16.29 11.01,17.32 10.48,18.13L9.18,17.42L8.47,19.66Z " /><path id="Fill 119" fill-rule="evenodd" style="fill:#000523" transform="translate(16.34421364985162 147.0979228486647)  rotate(0 49.486646884273 35.41246290801186)" opacity="1" d="M43.36,6.64C34.99,2.9 31.56,8.44 28.9,7.56C26.25,6.67 21.82,11.44 20.41,7.2C18.99,2.97 8.37,20.26 7.49,16.2C6.91,13.54 10.52,5.33 13.07,0C11.33,1.67 9.68,3.25 8.67,4.5C5.84,8.03 -3.13,26.61 1.12,25.43C5.37,24.26 17.96,15.86 20.94,16.25C23.92,16.66 28.02,18.85 28.02,18.85L30.96,18.85L38.79,24.91L39.43,25.55C47.13,33.21 56.8,43.07 56.8,43.07L56.8,45.27L62.7,50.6L66.01,50.6C66.01,50.6 74.02,55.77 78.51,57.42C82.99,59.06 90.3,70.82 93.37,70.82C94.73,70.82 96.83,70.41 98.97,69.73C94.77,68.57 87.87,65.83 85.7,60.09C85.7,60.09 83.23,52.54 81.1,51.65C78.98,50.77 70.84,49.17 70.84,49.17L76.15,54.83C76.15,54.83 70.61,52.36 67.48,50.6C67.48,50.6 74.98,32.71 86.81,33.46C86.05,32.71 85.25,31.98 84.4,31.31C83.46,30.55 82.07,29.8 80.28,28.97C74.87,31.48 65.98,36.83 65,45.27L58.45,42.66C58.45,42.66 57.39,36.98 58.44,32.33C58.44,32.33 55.96,36.21 55.79,38.25L39.46,20.5C40.26,15.01 43.53,12.18 44.95,10.24L42.4,8.47C43.53,8 44.05,7.39 43.36,6.64Z " /><path id="Fill 121" fill-rule="evenodd" style="fill:#F4C7A2" transform="translate(102.6053412462908 197.946587537092)  rotate(0 7.26409495548962 3.1780415430267084)" opacity="1" d="M5.02,6.35C8.61,6.18 14.53,0.51 14.53,0.51L0,0C0,0 1.44,6.53 5.02,6.35Z " /><path id="Fill 123" fill-rule="evenodd" style="fill:#010723" transform="translate(219.7388724035608 239.7151335311572)  rotate(0 20.430267062314524 17.25222551928782)" opacity="1" d="M28.36,3.72C17.97,-2.19 5.99,-0.92 1.61,6.55C-2.77,14.02 2.1,24.87 12.5,30.78C22.9,36.69 34.87,35.43 39.25,27.96C43.63,20.49 38.76,9.63 28.36,3.72Z " /><path id="Fill 125" fill-rule="evenodd" style="fill:#CFD1D2" transform="translate(237.8991097922849 242.4391691394659)  rotate(0 6.810089020771515 4.994065281899125)" opacity="1" d="M0.57,4.88C0.57,4.88 6.18,6.46 9.38,9.99L13.62,9.99C13.62,9.99 12.76,4.5 9.73,1.66C9.73,1.66 5.95,-0.58 0,0.15L0.57,4.88Z " /><path id="Fill 127" fill-rule="evenodd" style="fill:#CFD1D2" transform="translate(246.9792284866469 253.3353115727002)  rotate(0 4.540059347181 4.086053412462917)" opacity="1" d="M0,7.66C4.28,8.81 9.08,7.66 9.08,7.66C8.28,4.35 5.48,0 5.48,0L1.19,0C1.79,1.26 0,7.66 0,7.66Z " /><path id="Fill 129" fill-rule="evenodd" style="fill:#CFD1D2" transform="translate(250.6112759643917 246.0712166172107)  rotate(0 4.086053412462903 6.81008902077154)" opacity="1" d="M2.35,6.52C2.35,6.52 6.44,11.79 6.94,13.62C6.94,13.62 8.74,10.83 7.99,8.81C7.23,6.79 2.04,0.41 0,0C0,0 1.9,3.53 2.35,6.52Z " /><path id="Fill 131" fill-rule="evenodd" style="fill:#CFD1D2" transform="translate(227.9109792284866 239.7151335311572)  rotate(0 9.08011869436203 1.3620178041542914)" opacity="1" d="M18.16,2.72C18.16,2.72 10.7,-2.27 0,1.26L9.61,1.83C9.61,1.83 14.24,2.02 18.16,2.72Z " /><path id="Fill 133" fill-rule="evenodd" style="fill:#CFD1D2" transform="translate(226.0949554896142 242.4391691394659)  rotate(0 5.44807121661722 4.086053412462917)" opacity="1" d="M1.75,0.64C1.75,0.64 -0.41,3.13 0.07,4.4C0.55,5.68 3.66,8.17 3.66,8.17L10.9,5.46L10.9,0.64C4.62,-0.8 1.75,0.64 1.75,0.64Z " /><path id="Fill 135" fill-rule="evenodd" style="fill:#CFD1D2" transform="translate(229.7270029673591 248.7952522255192)  rotate(0 8.626112759643915 6.356083086053415)" opacity="1" d="M0,3.66C5.42,12.01 15.15,12.71 15.15,12.71L17.25,5.31C16.18,2.55 8.02,0.02 8.02,0.02C5.38,-0.33 0,3.66 0,3.66Z " /><path id="Fill 137" fill-rule="evenodd" style="fill:#FFFFFF" transform="translate(237.8991097922849 249.7032640949555)  rotate(0 4.086053412462917 4.994065281899125)" opacity="1" d="M2.97,4.99C5.2,5.99 6.31,9.99 6.31,9.99L8.17,4.2C6.5,2.27 0,0 0,0C0,0 0.74,4 2.97,4.99Z " /><path id="Fill 139" fill-rule="evenodd" style="fill:#FFFFFF" transform="translate(240.6231454005935 243.3471810089021)  rotate(0 5.44807121661721 4.086053412462903)" opacity="1" d="M1.73,4.2C3.55,4.97 6.4,6.29 7.52,8.17L10.9,8.17C10.9,8.17 10.9,3.88 7.73,1.12C7.73,1.12 1.9,-0.74 0.44,0.34C-0.39,0.95 -0.08,3.43 1.73,4.2Z " /><path id="Fill 141" fill-rule="evenodd" style="fill:#FFFFFF" transform="translate(251.5192878338279 246.0712166172107)  rotate(0 3.1780415430267226 5.90207715133532)" opacity="1" d="M2.81,6.49L6.23,11.8C6.23,11.8 7.79,4.84 0,0C0,0 2.72,3.98 2.81,6.49Z " /><path id="Fill 143" fill-rule="evenodd" style="fill:#FFFFFF" transform="translate(231.5430267062314 239.7151335311572)  rotate(0 7.264094955489625 1.3620178041542914)" opacity="1" d="M0.12,0.57C1.44,1.42 14.53,2.72 14.53,2.72C8.61,-0.62 -1.2,-0.27 0.12,0.57Z " /><path id="Fill 145" fill-rule="evenodd" style="fill:#FFFFFF" transform="translate(231.5430267062314 242.4391691394659)  rotate(0 2.2700296735905 2.270029673590514)" opacity="1" d="M0.02,1.14C0.42,3.37 4.54,4.54 4.54,4.54L4.54,0.62C4.54,0.62 -0.38,-1.08 0.02,1.14Z " /><path id="Fill 147" fill-rule="evenodd" style="fill:#FFFFFF" transform="translate(248.7952522255193 254.2433234421365)  rotate(0 2.2700296735905 2.270029673590514)" opacity="1" d="M0,4.51C0,4.51 3.82,4.79 4.41,3.58C5,2.36 3.41,0 3.41,0L0,0L0,4.51Z " /><path id="Fill 149" fill-rule="evenodd" style="fill:#000523" transform="translate(19.06824925816024 179.786350148368)  rotate(0 118.0415430267062 49.486646884272986)" opacity="1" d="M79.35,48.84C87,53.64 94.1,59.6 101.47,65.17C108.81,70.8 116.34,76.27 124.44,80.68C128.48,82.89 132.61,84.85 136.88,86.43C141.13,87.98 145.43,89.36 149.96,89.96C149.96,89.96 154.63,90.3 157.04,89.65C158.25,89.32 159.43,88.79 160.49,88.08C161.53,87.36 163.13,85.65 163.13,85.65C163.87,84.82 164.5,84.03 165.09,83.46C165.09,83.46 166.27,82.54 166.91,82.35C166.91,82.35 168.37,82.11 170.36,82.47L171.66,82.89C175.2,84.17 178.67,85.92 182.04,87.48C185.42,89.08 188.7,90.61 191.89,91.99C198.31,94.73 204.4,96.88 210.04,97.99C215.64,99.13 220.76,99.28 224.85,98.43C228.93,97.59 231.81,95.93 233.56,94.62C234.45,93.96 235.47,93 235.47,93L235.85,92.13C235.85,92.13 235.61,92.31 235.19,92.67C234.76,93.01 234.1,93.5 233.18,94.05C231.39,95.18 228.53,96.54 224.61,97.02C222.65,97.25 220.48,97.32 218.12,97.11C215.76,96.91 213.23,96.44 210.56,95.75C205.23,94.33 199.4,92.04 193.19,89.1C190.09,87.64 186.88,86.03 183.55,84.35C181.9,83.49 180.2,82.65 178.43,81.81C176.68,80.97 174.87,80.13 171.37,78.89C170.83,78.73 169.63,78.5 169.63,78.5C168.47,78.34 167.19,78.33 165.9,78.69C165.9,78.69 163.37,79.86 162.5,80.7C161.62,81.56 160.96,82.42 160.3,83.14C159.05,84.61 157.77,85.55 156.05,86.02C154.35,86.48 152.39,86.52 150.36,86.3C146.32,85.88 142.17,84.65 138.04,83.22C133.91,81.8 129.87,79.96 125.88,77.92C117.92,73.79 110.18,68.85 102.58,63.63C98.8,61.01 95.05,58.32 91.29,55.67C89.4,54.33 87.54,53 85.65,51.7C83.76,50.4 81.85,49.12 79.91,47.92C77.95,46.74 76,45.58 73.87,44.68L70.57,43.59C69.38,43.34 68.25,43.26 67.05,43.39C67.05,43.39 64.62,43.94 63.65,44.77C62.68,45.58 62.02,46.67 61.57,47.75C60.67,49.94 60.37,52.16 59.8,54.18C59.28,56.19 58.45,58.04 56.97,58.73C55.5,59.45 53.47,59.29 51.7,58.77C49.86,58.25 48.09,57.35 46.39,56.39C44.69,55.43 43.06,54.33 41.53,53.18C38.39,50.91 35.53,48.39 32.84,45.89C30.15,43.37 27.69,40.8 25.4,38.23C20.82,33.15 17.02,28.12 13.81,23.55C10.62,18.95 8.1,14.78 6.09,11.28C4.11,7.79 2.69,4.94 1.75,3C0.8,1.06 0.33,0 0.33,0C0.33,0 0.35,1.23 1.11,3.28C1.87,5.31 3.07,8.27 4.79,11.97C5.64,13.82 6.68,15.83 7.84,17.98C9.02,20.14 10.34,22.45 11.87,24.84C14.87,29.66 18.63,34.89 23.16,40.22C27.76,45.5 33.08,50.99 39.71,55.72C43.04,58.01 46.65,60.27 51.04,61.35L54.49,61.7C55.67,61.65 56.92,61.42 58.08,60.77C58.08,60.77 60.11,59.05 60.63,57.96C61.17,56.86 61.48,55.73 61.71,54.63C62.16,52.45 62.37,50.28 63.03,48.33C63.39,47.37 63.86,46.49 64.57,45.84C65.28,45.19 67.21,44.68 67.21,44.68C68.2,44.53 69.31,44.57 70.33,44.75L73.45,45.72C75.48,46.57 77.44,47.66 79.35,48.84Z " /><g opacity="1" transform="translate(214.2908011869436 226.0949554896143)  rotate(0 62.5 28)"><mask id="mask-0" fill="white"><use xlink:href="#path_0"></use></mask><g mask="url(#mask-0)"></g><g mask="url(#mask-0)"><path id="Fill 151" fill-rule="evenodd" style="fill:#000523" transform="translate(0.409743924053905 0.505961473472162)  rotate(0 62.0915064269344 27.377883362329236)" opacity="1" d="M98.79,35.94C97.36,35.74 95.76,35.65 94.18,36.34C93.41,36.69 92.73,37.24 92.21,37.85C91.67,38.47 91.26,39.13 90.9,39.79C90.18,41.12 89.6,42.44 88.92,43.7C87.59,46.25 85.88,48.57 83.72,50.51C82.67,51.44 81.48,52.2 80.2,52.53C78.92,52.86 77.56,52.78 76.26,52.29C73.64,51.34 71.32,49.25 69.24,47.05C67.16,44.82 65.26,42.36 63.43,39.85C61.59,37.33 59.83,34.75 58.11,32.16C56.39,29.58 54.65,26.92 52.73,24.46C48.9,19.53 44.63,15.07 40.1,11.21C35.55,7.38 30.66,4.18 25.54,2.11C22.99,1.09 20.35,0.39 17.76,0.12C15.15,-0.16 12.58,0.05 10.23,0.79C7.94,1.52 5.82,2.66 4.16,4.14C2.52,5.63 1.32,7.46 0.71,9.34C0.07,11.21 -0.06,13.07 0.02,14.75C0.1,16.42 0.4,17.94 0.75,19.27C1.44,21.95 2.38,23.92 3.04,25.23C3.7,26.55 4.12,27.21 4.12,27.21C4.12,27.21 3.74,26.52 3.14,25.18C2.55,23.84 1.75,21.83 1.14,19.18C0.84,17.85 0.62,16.36 0.61,14.73C0.58,13.1 0.78,11.33 1.45,9.6C2.07,7.86 3.25,6.23 4.83,4.91C6.42,3.59 8.38,2.56 10.59,1.92C12.74,1.3 15.18,1.14 17.61,1.47C20.04,1.77 22.53,2.49 24.96,3.53C29.82,5.62 34.49,8.85 38.88,12.63C43.28,16.43 47.38,20.87 51.1,25.71C52.99,28.12 54.64,30.68 56.37,33.31C58.11,35.92 59.87,38.53 61.72,41.09C63.58,43.64 65.54,46.15 67.73,48.48C68.82,49.64 69.99,50.75 71.27,51.76C72.55,52.76 73.98,53.64 75.59,54.21C77.18,54.81 79.03,54.94 80.72,54.48C82.41,54.02 83.85,53.05 85.04,51.97C87.36,49.84 89.21,47.25 90.57,44.57C91.26,43.24 91.85,41.88 92.49,40.66C93.15,39.44 93.88,38.39 94.91,37.91C95.96,37.41 97.27,37.4 98.56,37.57C99.22,37.64 99.87,37.77 100.51,37.92C100.51,37.92 101.16,38.08 101.95,38.29L102.51,38.41L104.64,38.67C105.34,38.64 106.05,38.65 106.74,38.52C108.1,38.35 109.39,37.95 110.62,37.5C113.06,36.54 115.23,35.24 117.13,33.76C119.02,32.26 120.64,30.59 121.89,28.77C123.12,26.96 124.03,24.97 124.16,22.95C124.33,20.94 123.59,19.01 122.36,17.8C121.17,16.54 119.71,15.87 118.45,15.32L116.58,14.7C115.99,14.55 114.91,14.3 114.91,14.3C113.84,14.13 112.94,13.96 112.21,13.89C110.75,13.77 109.96,13.69 109.96,13.69C109.96,13.69 110.75,13.8 112.2,14.01C112.93,14.11 113.8,14.33 114.84,14.54C115.35,14.69 115.9,14.85 116.48,15.02C117.07,15.19 117.65,15.46 118.3,15.7C119.5,16.28 120.87,16.98 121.92,18.19C123.02,19.36 123.59,21.09 123.38,22.88C123.2,24.69 122.28,26.51 121.05,28.18C119.81,29.85 118.23,31.43 116.4,32.82C114.56,34.18 112.45,35.38 110.15,36.22C108.98,36.62 107.78,36.96 106.55,37.08C105.93,37.19 105.31,37.16 104.69,37.17C104.69,37.17 103.53,37.1 102.85,36.9L101.9,36.65C101.9,36.65 101.23,36.46 100.89,36.37L98.79,35.94Z " /></g></g><path id="Fill 154" fill-rule="evenodd" style="fill:#000523" transform="translate(24.51632047477745 14.52818991097922)  rotate(0 100.3353115727003 69.46290801186944)" opacity="1" d="M41.7,26.72C45.51,28.54 49.2,30.9 52.68,33.69C56.15,36.48 59.4,39.68 62.33,43.26C65.28,46.82 67.93,50.75 70.07,54.97C71.14,57.08 72.08,59.29 72.78,61.57C73.49,63.82 74.01,66.23 74.01,68.5C73.95,70.88 73.33,73.17 72.36,75.37C71.4,77.58 70.11,79.66 68.85,81.79C67.59,83.91 66.28,86.09 65.34,88.5C64.86,89.69 64.5,90.95 64.27,92.26C64.03,93.55 64.03,94.89 64.15,96.21C64.44,98.85 65.4,101.35 66.68,103.57C67.97,105.81 69.55,107.81 71.26,109.68C72.1,110.65 72.98,111.5 73.85,112.39C74.79,113.31 75.73,114.11 76.72,114.91C78.7,116.48 80.79,117.85 82.94,119.1C87.23,121.6 91.71,123.63 96.2,125.41C100.7,127.19 105.21,128.7 109.69,130.03C118.66,132.72 127.49,134.72 135.93,136.23C140.15,136.98 144.28,137.61 148.3,138.09C152.31,138.56 156.2,138.91 160.05,138.93L162.96,138.79L164.51,138.54C164.51,138.54 165.07,138.38 165.41,138.23L166.64,137.11C166.64,137.11 166.74,136.9 166.78,135.54C166.74,135.34 166.66,134.41 166.66,134.41C166.66,134.41 166.68,134.06 166.68,133.9C166.68,133.9 166.9,132.79 167.18,132.47L168.6,131.69L170.67,131.4C170.67,131.4 171.39,131.37 172.86,131.41C173.6,131.49 175.04,131.63 175.04,131.63C175.77,131.74 177.19,131.95 177.19,131.95C177.87,132.08 179.24,132.33 179.24,132.33C180.6,132.6 183.21,133.19 183.21,133.19C184.58,133.45 187.15,133.81 187.15,133.81L189.03,133.92C189.65,133.91 190.86,133.88 190.86,133.88C193.27,133.66 195.51,132.88 197.14,131.56C198.78,130.24 199.65,128.59 200.09,127.27C200.55,125.94 200.61,124.88 200.65,123.05L197.14,124.05C197.12,124.53 197.08,125.3 196.78,126.17C196.78,126.17 195.97,128.06 194.97,128.88C194.97,128.88 192.46,130.3 190.56,130.51L188.25,130.53C188.25,130.53 187.71,130.49 187.43,130.47L183.91,129.95C182.63,129.72 179.9,129.13 179.9,129.13C179.18,129.01 177.71,128.74 177.71,128.74C176.97,128.63 176.21,128.55 175.43,128.44C175.43,128.44 173.84,128.3 171.77,128.21C171.35,128.2 170.49,128.24 170.49,128.24C170.49,128.24 168.68,128.41 167.72,128.69C167.24,128.87 166.26,129.3 166.26,129.3C166.26,129.3 165.75,129.56 165.53,129.77C165.31,129.97 164.85,130.4 164.85,130.4C164.01,131.37 163.67,132.63 163.61,133.7L163.65,135.27C163.67,135.54 163.75,135.59 163.75,135.59C163.43,135.67 162.62,135.79 162.62,135.79L160.01,135.94C156.4,135.97 152.57,135.66 148.62,135.24C144.66,134.83 140.57,134.24 136.4,133.55C128.03,132.15 119.26,130.26 110.37,127.71C105.91,126.44 101.44,124.99 97,123.3C92.57,121.6 88.17,119.66 83.98,117.28C81.89,116.09 79.87,114.78 77.96,113.32C77.02,112.59 76.07,111.79 75.25,110.99C74.37,110.11 73.47,109.25 72.66,108.36C71.04,106.6 69.49,104.69 68.29,102.64C67.06,100.58 66.18,98.33 65.9,96.01C65.64,93.69 66.04,91.34 66.9,89.11C67.75,86.87 68.99,84.74 70.23,82.61C71.48,80.47 72.76,78.31 73.75,75.98C74.75,73.66 75.41,71.1 75.43,68.57C75.43,65.93 74.83,63.52 74.09,61.16C73.33,58.79 72.32,56.54 71.2,54.39C68.95,50.08 66.22,46.12 63.19,42.54C60.16,38.94 56.83,35.73 53.28,32.94C49.73,30.13 45.95,27.79 42.04,25.98C38.15,24.16 34.13,22.87 30.16,22.16C28.17,21.81 26.19,21.6 24.24,21.52L21.33,21.51C20.39,21.52 19.47,21.53 18.52,21.55C16.68,21.58 13.12,21.19 13.12,21.19C12.24,21.08 11.4,20.84 9.33,20.31C8.93,20.19 8.15,19.88 8.15,19.88C8.15,19.88 7.36,19.56 5.9,18.81L5.38,18.52L3.93,17.45C2.69,16.43 1.77,15.17 1.14,13.82C0.52,12.48 0.24,11.02 0.28,9.61C0.36,8.22 0.74,6.9 1.32,5.74C2.47,3.4 4.47,1.85 6.44,0.99C8.45,0.17 10.41,0 12.1,0.15C13.77,0.31 15.17,0.67 16.25,1.06L17.7,1.61C17.7,1.61 18.42,1.96 18.7,2.1C19.24,2.36 19.51,2.5 19.51,2.5C19.51,2.5 19.24,2.36 18.7,2.08C18.42,1.96 17.7,1.58 17.7,1.58L16.27,1.01C15.17,0.61 13.79,0.24 12.1,0.06C10.41,-0.1 8.43,0.04 6.38,0.85C4.39,1.69 2.33,3.25 1.12,5.64C0.5,6.82 0.1,8.17 0.02,9.6C-0.06,11.04 0.2,12.55 0.84,13.96C1.46,15.35 2.43,16.68 4.66,18.49L6.8,19.78C7.18,19.95 7.59,20.12 7.99,20.28C7.99,20.28 8.79,20.6 10.43,21.13C11.3,21.3 12.16,21.55 13.04,21.67C13.04,21.67 16.68,22.1 18.52,22.1C19.47,22.1 20.41,22.1 21.35,22.09L24.2,22.14C26.13,22.24 28.07,22.46 30.04,22.84C33.95,23.58 37.89,24.88 41.7,26.72Z " /><path id="Fill 156" fill-rule="evenodd" style="fill:#000523" transform="translate(194.3145400593472 225.1869436201781)  rotate(0 17.70623145400593 22.24629080118693)" opacity="1" d="M24.19,0.05C23.61,0.1 22.76,0.14 21.69,0.29C20.62,0.42 19.32,0.64 17.85,0.97C16.39,1.32 14.72,1.75 12.98,2.46C11.24,3.15 9.39,4.04 7.6,5.28C5.81,6.52 4.08,8.11 2.69,10.06L2.16,10.8C2,11.06 1.86,11.33 1.71,11.59L1.26,12.39C1.18,12.55 1.11,12.62 1.02,12.84L0.85,13.25L0.67,13.65L0.51,14.13C0.51,14.13 0.3,14.78 0.24,15.1C0.1,15.74 0.04,16.4 0,17.05C-0.07,19.7 0.81,22.27 2.07,24.49C3.36,26.72 5.03,28.64 6.8,30.37C8.58,32.09 10.53,33.55 12.46,34.86C14.39,36.17 16.35,37.29 18.24,38.26C20.14,39.23 21.97,40.07 23.69,40.76C25.4,41.47 27,42.03 28.42,42.51C29.85,42.98 31.1,43.36 32.14,43.65C33.17,43.95 34,44.14 34.56,44.28C35.11,44.42 35.41,44.49 35.41,44.49C35.41,44.49 34.27,44.04 32.27,43.25C31.28,42.86 30.09,42.34 28.72,41.76C27.36,41.16 25.83,40.46 24.19,39.66C22.55,38.86 20.82,37.91 19.01,36.88C17.21,35.84 15.37,34.65 13.53,33.34C11.7,32.03 9.92,30.54 8.24,28.92C6.59,27.28 5.06,25.46 3.92,23.45C2.77,21.47 2.01,19.26 2.06,17.1C2.08,16.56 2.12,16.03 2.23,15.51C2.27,15.24 2.35,15.01 2.41,14.76L2.51,14.4L2.84,13.58C2.85,13.53 3,13.25 3,13.25L3.39,12.52C3.39,12.52 3.64,12.03 3.77,11.79L4.23,11.11C5.45,9.32 6.93,7.78 8.54,6.54C10.16,5.32 11.85,4.35 13.47,3.56C15.1,2.78 16.67,2.22 18.07,1.74C19.48,1.3 20.73,0.94 21.77,0.7C22.81,0.45 23.63,0.28 24.2,0.16C24.77,0.06 25.07,0 25.07,0C25.07,0 24.76,0.02 24.19,0.05Z " /><path id="Fill 158" fill-rule="evenodd" style="fill:#000523" transform="translate(165.2581602373887 231.5430267062315)  rotate(0 14.982195845697335 13.166172106824915)" opacity="1" d="M0.04,3.6C0.16,4.43 0.49,5.31 0.99,6.19C1.99,7.94 3.56,9.7 5.41,11.36C7.26,13.02 9.37,14.63 11.54,16.14C13.72,17.62 15.97,19.01 18.1,20.26C20.23,21.51 22.28,22.58 24.03,23.49C25.78,24.41 27.27,25.1 28.31,25.59C29.36,26.08 29.96,26.33 29.96,26.33C29.96,26.33 27.64,25.09 24.22,23.14C22.5,22.17 20.53,20.99 18.42,19.72C16.31,18.45 14.1,17.04 11.94,15.54C9.77,14.07 7.66,12.51 5.82,10.89C3.98,9.28 2.36,7.64 1.33,5.98C0.83,5.15 0.46,4.33 0.3,3.56C0.15,2.79 0.22,2.09 0.4,1.55C0.57,1.01 0.82,0.63 0.99,0.37C1.18,0.13 1.29,0 1.29,0C1.29,0 1.17,0.12 0.96,0.35C0.77,0.59 0.47,0.95 0.27,1.5C0.05,2.05 -0.07,2.78 0.04,3.6Z " /><path id="Fill 160" fill-rule="evenodd" style="fill:#010723" transform="translate(214.2908011869436 238.8071216617211)  rotate(0 28.60237388724036 24.06231454005936)" opacity="1" d="M4.46,40.24C1.62,39.36 0,38.82 0,38.82C0,38.82 0.39,38.99 1.13,39.3C1.86,39.62 2.93,40.09 4.32,40.64C7.1,41.74 11.1,43.25 16.03,44.68C18.49,45.4 21.19,46.1 24.08,46.68C26.97,47.26 30.06,47.76 33.29,47.98C36.51,48.19 39.91,48.24 43.33,47.65C46.71,47.06 50.27,45.91 53.05,43.38C54.41,42.13 55.51,40.54 56.19,38.81C56.88,37.08 57.16,35.24 57.2,33.46C57.23,29.89 56.45,26.5 55.26,23.41C54.08,20.31 52.42,17.57 50.64,15.16C48.86,12.75 46.91,10.68 45,8.94C41.17,5.42 37.47,3.15 34.8,1.8C33.47,1.11 32.38,0.67 31.62,0.4C30.87,0.12 30.46,0 30.46,0C30.46,0 30.86,0.16 31.58,0.51C32.3,0.84 33.33,1.4 34.6,2.17C37.14,3.71 40.6,6.21 44.16,9.82C45.94,11.62 47.72,13.72 49.36,16.09C50.99,18.47 52.46,21.14 53.52,24.07C54.05,25.54 54.48,27.07 54.76,28.63C54.89,29.42 55.01,30.21 55.07,31.02L55.13,31.6L55.16,32.22C55.17,32.65 55.16,33.41 55.16,33.41C55.12,35 54.85,36.58 54.26,38.02C53.68,39.47 52.78,40.76 51.63,41.81C49.32,43.94 46.14,45.05 42.98,45.62C39.79,46.17 36.54,46.26 33.4,46.11C27.12,45.79 21.28,44.64 16.33,43.5C11.38,42.33 7.31,41.11 4.46,40.24Z " /><path id="Fill 164" fill-rule="evenodd" style="fill:#FF5858" transform="translate(0 19.97626112759644)  rotate(0 100.7893175074184 55.3887240356083)" opacity="1" d="M193.52,107.81C192.67,108.03 190.77,108.27 190.77,108.27C189.81,108.36 188.78,108.46 187.71,108.53C187.71,108.53 185.51,108.61 184.38,108.58L180.9,108.25C176.06,107.44 170.64,105.84 164.79,103.9C158.92,101.99 152.64,99.67 145.92,97.31C139.23,94.93 132.11,92.55 124.7,90.18C120.99,89.01 117.2,87.87 113.33,86.81C111.39,86.3 109.44,85.8 107.42,85.42L104.34,85.05C103.79,85.03 102.72,85.1 102.72,85.1L101.07,85.63C100.31,86.14 98.39,86.34 98.39,86.34C97.42,86.38 96.42,86.33 95.43,86.22C93.43,85.97 91.44,85.52 89.48,84.98C85.55,83.86 81.72,82.35 77.99,80.67C70.53,77.23 63.48,72.98 57.13,68.12C53.96,65.66 51.02,63.02 48.44,60.13C45.9,57.24 43.7,54.1 42.31,50.76C42.13,50.33 41.77,49.44 41.77,49.44L41.36,48.22C41.14,47.4 40.92,46.55 40.84,45.75C40.62,44.11 40.78,42.58 41.42,41.29C42.07,39.98 43.16,38.86 44.51,37.81L46.65,36.18C47.41,35.58 48.22,34.98 48.98,33.95C49.17,33.65 49.35,33.38 49.49,33.07L49.83,31.98L49.87,30.84L49.65,29.8C49.65,29.8 49.41,29.21 49.29,28.92C49.29,28.92 49,28.45 48.84,28.2C48.84,28.2 48.22,27.36 47.9,26.96C46.58,25.5 45.19,24.4 43.8,23.36C41,21.31 38.26,19.61 35.52,18.01C30.04,14.86 24.71,12.53 19.86,10.93C15,9.31 10.64,8.43 7.24,7.41C5.54,6.89 4.09,6.3 3.06,5.47C2.02,4.67 1.07,2.81 1.07,2.81C0.73,1.95 0.48,0.74 0.48,0.74C0.4,0.25 0,0.03 0,0.03C0,0.03 0.02,0.29 0.04,0.8C0.04,0.8 0.18,2.07 0.44,3.05C0.71,4.01 1.31,5.21 2.42,6.23C3.53,7.28 5.06,8.04 6.77,8.75C8.49,9.44 10.4,10.05 12.48,10.75C14.53,11.43 16.73,12.21 19.05,13.13C23.67,14.97 28.72,17.45 33.89,20.72C36.45,22.33 39.15,24.14 41.69,26.13C42.94,27.14 44.21,28.2 45.17,29.33C45.4,29.61 45.8,30.16 45.8,30.16C45.8,30.16 46,30.44 46.16,31.52C46.1,31.59 46,31.77 46,31.77L44.39,33.19L42.17,34.82C40.64,35.99 39.05,37.55 38.04,39.61C36.99,41.69 36.81,44.09 37.09,46.23C37.21,47.31 37.49,48.32 37.82,49.35L38.36,50.87L38.94,52.23C40.64,56.04 43.14,59.4 45.92,62.43C48.74,65.46 51.89,68.17 55.25,70.63C61.95,75.54 69.46,79.41 77.22,82.46C81.12,83.99 85.09,85.31 89.14,86.26C91.17,86.76 93.21,87.16 95.31,87.36C96.33,87.45 97.4,87.51 98.45,87.45C98.45,87.45 99.54,87.35 100.06,87.22C100.06,87.22 100.61,87.06 101.62,86.56C102.32,86.11 103.31,86.09 104.28,86.13L107.2,86.53C109.15,86.9 111.09,87.44 112.98,88.02C116.77,89.19 120.46,90.59 124.07,91.99C131.29,94.79 138.2,97.72 144.87,100.23C151.53,102.75 157.92,104.94 163.88,106.78C169.87,108.56 175.43,110.04 180.59,110.59C180.59,110.59 181.88,110.71 184.4,110.77C185.63,110.7 187.87,110.47 187.87,110.47C188.98,110.32 190.05,110.15 191.06,109.98C191.06,109.98 192.04,109.75 193.9,109.26L196.38,108.33C197.16,108.03 198.45,107.2 198.45,107.2C199.68,106.36 200.53,105.36 201.01,104.44C201.48,103.52 201.58,102.7 201.48,101.37C201.09,102.62 200.89,103.33 200.39,104.09C199.89,104.84 199.06,105.64 197.89,106.28C197.89,106.28 195.25,107.47 193.52,107.81Z " /><path id="Fill 166" fill-rule="evenodd" style="fill:#FF5858" transform="translate(9.988130563798222 111.6854599406528)  rotate(0 34.504451038575674 69.00890207715135)" opacity="1" d="M12.52,102.26C16.09,107.87 20.16,112.71 24.19,116.86C28.26,120.99 32.32,124.42 36.11,127.2C39.9,129.97 43.41,132.1 46.37,133.7C49.35,135.3 51.78,136.33 53.44,137.04C55.12,137.67 56.03,138.02 56.03,138.02C56.03,138.02 55.13,137.66 53.45,137C51.8,136.28 49.39,135.2 46.45,133.57C43.52,131.93 40.05,129.76 36.31,126.93C32.57,124.12 28.57,120.64 24.58,116.47C20.64,112.29 16.67,107.43 13.2,101.82C11.44,99.03 9.83,96.05 8.38,92.9C6.89,89.78 5.64,86.47 4.58,83.03C3.51,79.61 2.71,76.03 2.18,72.39C1.88,70.57 1.74,68.71 1.57,66.86C1.5,64.99 1.37,63.12 1.44,61.25C1.42,59.39 1.58,57.48 1.71,55.57C1.79,54.66 1.93,53.69 2.04,52.76L2.21,51.34L2.44,49.93C3.02,46.17 3.9,42.44 5.07,38.81C7.37,31.56 10.85,24.66 15.51,18.85C20.14,13.04 25.93,8.28 32.34,5.47C35.53,4.04 38.85,3.11 42.16,2.75C45.46,2.42 48.72,2.68 51.72,3.53C52.45,3.77 53.13,3.99 53.86,4.28C54.23,4.44 54.61,4.61 54.97,4.78L55.47,5L55.98,5.27C57.37,5.98 58.64,6.79 59.86,7.63C61.05,8.52 62.15,9.44 63.09,10.46C64.01,11.48 64.78,12.59 65.3,13.72C66.37,15.98 66.17,18.44 64.85,19.94C63.58,21.52 61.43,22.01 59.54,21.71C59.54,21.71 59.06,21.64 58.83,21.57C58.83,21.57 58.35,21.46 58.15,21.38C58.15,21.38 57.77,21.27 57.51,21.14C57.51,21.14 57,20.91 56.75,20.8C56.23,20.58 55.71,20.34 55.21,20.12C54.7,19.87 53.6,19.57 53.6,19.57C51.46,18.92 49.31,18.73 47.43,19.01C45.55,19.24 43.92,19.81 42.61,20.43C41.31,21.09 40.28,21.78 39.49,22.39C38.71,23.02 37.78,23.92 37.78,23.92C37.6,24.1 37.22,24.54 37.22,24.54L40.32,26.36C40.58,26.07 41.03,25.64 41.65,25.12C42.28,24.62 43.1,24.06 44.12,23.52C45.16,23.01 46.41,22.57 47.86,22.35C49.3,22.12 50.96,22.25 52.7,22.73C53.13,22.86 54.01,23.17 54.01,23.17C54.48,23.37 55.43,23.78 55.43,23.78C55.68,23.89 56.19,24.11 56.19,24.11C56.44,24.22 56.82,24.33 57.13,24.44L58.11,24.71C58.42,24.79 58.75,24.86 59.1,24.88C60.45,25.08 61.93,25.01 63.37,24.54C64.1,24.32 64.79,23.96 65.46,23.55C66.1,23.09 67.24,21.92 67.24,21.92C68.29,20.65 68.9,18.99 68.99,17.31C69.11,15.62 68.68,13.95 67.99,12.48C67.29,10.99 66.32,9.66 65.21,8.47C64.09,7.29 62.83,6.27 61.49,5.31C60.14,4.4 58.73,3.53 57.24,2.8L56.35,2.36L56.08,2.25L54.96,1.77C54.18,1.46 53.29,1.17 52.45,0.92C49.08,0.01 45.46,-0.21 41.87,0.19C38.28,0.63 34.73,1.71 31.35,3.26C24.58,6.36 18.6,11.44 13.88,17.56C9.12,23.66 5.64,30.82 3.39,38.29C2.24,42.03 1.4,45.85 0.86,49.69L0.65,51.14L0.49,52.57C0.4,53.55 0.28,54.48 0.21,55.47C0.1,57.39 -0.03,59.28 0.01,61.22C-0.03,63.16 0.12,65.06 0.23,66.95C0.43,68.84 0.59,70.73 0.93,72.58C1.53,76.3 2.38,79.91 3.53,83.38C4.64,86.84 5.96,90.18 7.51,93.31C9.03,96.47 10.7,99.47 12.52,102.26Z " /></g></g></svg>