<svg xmlns="http://www.w3.org/2000/svg" xmlns:xlink="http://www.w3.org/1999/xlink" width="259.8574243839887" height="183.3692112065538" viewBox="0 0 259.8574243839887 183.3692112065538" fill="none"><g opacity="1" transform="translate(0 0)  rotate(0 129.92871219199435 91.6846056032769)"><g opacity="1" transform="translate(0 0)  rotate(0 129.92871219199435 91.6846056032769)"><path id="路径 33" fill-rule="evenodd" style="fill:#F8F8FF" transform="translate(0 0)  rotate(0 129.92871219199435 91.6846056032769)" opacity="1" d="M26.21 151.03C14.49 144.1 -15.27 105.82 9.7 78.08C19.35 67.35 19.67 64.57 19.43 63.9C19.31 63.59 19.23 63.26 19.17 62.93C18.24 57.2 13.86 24.99 38.19 14.18C38.9702 13.8329 39.7572 13.4711 40.559 13.1026C52.0675 7.8125 66.6104 1.12766 107.67 16.31C147.485 31.0304 176.704 15.2953 191.741 7.19762C196.286 4.7499 199.535 3 201.39 3C203.05 3 205.146 2.49419 207.617 1.89805C217.038 -0.375407 231.905 -3.96266 248.78 14.18C270.08 37.08 254.11 64.76 254.11 64.76C254.11 64.76 243.99 90.86 247.18 104.17C248.096 107.98 249.055 111.572 249.933 114.858C252.122 123.053 253.804 129.349 253.04 132.39C251.98 136.65 251.44 165.4 233.87 171.79C227.749 174.016 224.472 175.338 221.067 176.025C214.696 177.312 207.878 176.378 181.16 174.99C140.16 172.86 118.86 178.71 110.34 181.91C101.82 185.1 89.04 184.04 66.14 168.6C43.24 153.16 37.92 157.95 26.21 151.03Z" /><path id="椭圆 5" fill-rule="evenodd" style="fill:#FFFFFF" transform="translate(44.062083136419915 35.26194951030959)  rotate(0 8.008492469787598 8.008493423461914)" opacity="1" d="M8.01,0C3.59,0 0,3.59 0,8.01C0,12.43 3.59,16.02 8.01,16.02C12.43,16.02 16.02,12.43 16.02,8.01C16.02,3.59 12.43,0 8.01,0Z " /><path id="椭圆 6" fill-rule="evenodd" style="fill:#FFFFFF" transform="translate(55.31603897748437 37.78057667705764)  rotate(0 5.4525909423828125 5.452590465545654)" opacity="1" d="M5.45,0C2.44,0 0,2.44 0,5.45C0,8.46 2.44,10.91 5.45,10.91C8.46,10.91 10.91,8.46 10.91,5.45C10.91,2.44 8.46,0 5.45,0Z " /><path id="椭圆 7" fill-rule="evenodd" style="fill:#FFFFFF" transform="translate(38.55890549359765 38.733713121149435)  rotate(0 4.387631416320801 4.387631416320801)" opacity="1" d="M4.39,0C1.96,0 0,1.96 0,4.39C0,6.81 1.96,8.78 4.39,8.78C6.81,8.78 8.78,6.81 8.78,4.39C8.78,1.96 6.81,0 4.39,0Z " /><path id="椭圆 8" fill-rule="evenodd" style="fill:#FFFFFF" transform="translate(201.14622772870507 22.564971894953146)  rotate(0 8.008492469787598 8.008493423461914)" opacity="1" d="M8.01,0C3.59,0 0,3.59 0,8.01C0,12.43 3.59,16.02 8.01,16.02C12.43,16.02 16.02,12.43 16.02,8.01C16.02,3.59 12.43,0 8.01,0Z " /><path id="椭圆 9" fill-rule="evenodd" style="fill:#FFFFFF" transform="translate(212.40017975507226 25.083600969049826)  rotate(0 5.4525909423828125 5.452590465545654)" opacity="1" d="M5.45,0C2.44,0 0,2.44 0,5.45C0,8.46 2.44,10.91 5.45,10.91C8.46,10.91 10.91,8.46 10.91,5.45C10.91,2.44 8.46,0 5.45,0Z " /><path id="椭圆 10" fill-rule="evenodd" style="fill:#FFFFFF" transform="translate(195.64305390058007 26.036739320490256)  rotate(0 4.387631416320801 4.387631416320801)" opacity="1" d="M4.39,0C1.96,0 0,1.96 0,4.39C0,6.81 1.96,8.78 4.39,8.78C6.81,8.78 8.78,6.81 8.78,4.39C8.78,1.96 6.81,0 4.39,0Z " /><path id="椭圆 11" fill-rule="evenodd" style="fill:#FFFFFF" transform="translate(114.23755921063866 50.48021885845412)  rotate(0 8.008492469787598 8.008493423461914)" opacity="1" d="M8.01,0C3.59,0 0,3.59 0,8.01C0,12.43 3.59,16.02 8.01,16.02C12.43,16.02 16.02,12.43 16.02,8.01C16.02,3.59 12.43,0 8.01,0Z " /><path id="椭圆 12" fill-rule="evenodd" style="fill:#FFFFFF" transform="translate(125.48885620770898 52.998842210504904)  rotate(0 5.4525909423828125 5.452590465545654)" opacity="1" d="M5.45,0C2.44,0 0,2.44 0,5.45C0,8.46 2.44,10.91 5.45,10.91C8.46,10.91 10.91,8.46 10.91,5.45C10.91,2.44 8.46,0 5.45,0Z " /><path id="椭圆 13" fill-rule="evenodd" style="fill:#FFFFFF" transform="translate(108.73438538251366 53.95198246929397)  rotate(0 4.387631416320801 4.387631416320801)" opacity="1" d="M4.39,0C1.96,0 0,1.96 0,4.39C0,6.81 1.96,8.78 4.39,8.78C6.81,8.78 8.78,6.81 8.78,4.39C8.78,1.96 6.81,0 4.39,0Z " /></g><g opacity="1" transform="translate(6.2373937481447825 110.82346150371781)  rotate(0 13.045745849609375 21.2991943359375)"><path id="路径 34" fill-rule="evenodd" style="fill:#BAC6F2" transform="translate(0 0)  rotate(0 13.045745849609375 21.2991943359375)" opacity="1" d="M15.18 9.05L22.9 21.83L26.09 21.83L26.09 42.6C26.09 42.6 7.19 32.75 0 18.37C0 18.37 5.06 10.92 5.59 9.85C6.12 8.79 5.86 4.53 5.86 4.53L3.99 4.53C3.99 4.53 5.59 0 10.12 0C14.64 0 15.97 2.13 16.51 3.19C17.04 4.26 16.77 4.79 16.77 4.79L15.18 4.79L15.18 9.05Z" /><path id="路径 35" fill-rule="evenodd" style="fill:#FFFFFF" transform="translate(17.8380126953125 30.647169325086793)  rotate(0 1.863677978515625 3.3132256401909785)" opacity="1" d="M0 1.3C1.86 -1.63 3.73 1.3 3.73 1.3L3.73 6.63L0 6.63L0 1.3Z" /><path id="椭圆 14" fill-rule="evenodd" style="fill:#E9EDFA" transform="translate(16.64531135559082 21.743806838989258)  rotate(0 2.3508973121643066 2.3508973121643066)" opacity="1" d="M2.35,0C1.05,0 0,1.05 0,2.35C0,3.65 1.05,4.7 2.35,4.7C3.65,4.7 4.7,3.65 4.7,2.35C4.7,1.05 3.65,0 2.35,0Z " /><path id="路径 36" fill-rule="evenodd" style="fill:#E9EDFA" transform="translate(1.54150390625 20.80650003075891)  rotate(0 1.8650960621517356 2.127420150636169)" opacity="1" d="M2.76,4.25C3.81,3.49 4.04,2.02 3.28,0.97C2.52,-0.08 1.05,-0.31 0,0.45L2.76,4.25Z " /><path id="椭圆 15" fill-rule="evenodd" style="fill:#E9EDFA" transform="translate(8.240123748779297 11.083562850952148)  rotate(0 2.3508973121643066 2.3508973121643066)" opacity="1" d="M2.35,0C1.05,0 0,1.05 0,2.35C0,3.65 1.05,4.7 2.35,4.7C3.65,4.7 4.7,3.65 4.7,2.35C4.7,1.05 3.65,0 2.35,0Z " /><path id="路径 37" fill-rule="evenodd" style="fill:#FFFFFF" transform="translate(6.6373291015625 18.994655226143095)  rotate(0 3.8082843819303207 5.314897728725327)" opacity="1" d="M1.82 10.6L0 8.69L0.05 3.21C0.06 2.6 0.28 2.02 0.67 1.55C1.42 0.62 2.53 0.06 3.72 0C6.2 -0.07 7.28 2.02 7.43 2.87C7.66 4.15 7.61 10.63 7.61 10.63L1.82 10.6Z" /></g><g opacity="1" transform="translate(31.471590887884773 112.47681996319047)  rotate(0 15.926483154296875 26.56805419921875)"><path id="路径 38" fill-rule="evenodd" style="fill:#E9EDFA" transform="translate(0.25030517578125 11.88226318359375)  rotate(0 15.80133056640625 20.626922607421875)" opacity="1" d="M0.61,29.06C0.61,29.06 11.58,33.16 16.21,34.13C20.84,35.11 31.6,41.25 31.6,41.25L31.42,0.21L0.01,0L0,0.07L0.61,29.06Z " /><path id="路径 39" fill-rule="evenodd" style="fill:#BAC6F2" transform="translate(0 0)  rotate(0 15.83599853515625 6.04498291015625)" opacity="1" d="M22.16 4.53L31.53 4.53L31.67 12.09L0.03 11.96L0 4.66L10.38 4.77C10.38 4.77 11.28 0 16.63 0C20.99 0 22.16 4.53 22.16 4.53Z" /><path id="矩形 1" fill-rule="evenodd" style="fill:#BAC6F2" transform="translate(3.37326979637146 16.256593704223633)  rotate(0 2.798180341720581 3.0351333618164062)" opacity="1" d="M0,6.07L5.6,6.07L5.6,0L0,0L0,6.07Z " /><path id="矩形 2" fill-rule="evenodd" style="fill:#BAC6F2" transform="translate(13.485055923461914 16.171401977539062)  rotate(0 2.798180341720581 3.0351333618164062)" opacity="1" d="M0,6.07L5.6,6.07L5.6,0L0,0L0,6.07Z " /><path id="矩形 3" fill-rule="evenodd" style="fill:#FFFFFF" transform="translate(23.466386795043945 16.25925636291504)  rotate(0 2.798180341720581 3.0351333618164062)" opacity="1" d="M0,6.07L5.6,6.07L5.6,0L0,0L0,6.07Z " /><path id="矩形 4" fill-rule="evenodd" style="fill:#BAC6F2" transform="translate(23.55158233642578 27.67827606201172)  rotate(0 2.798180341720581 3.0351333618164062)" opacity="1" d="M0,6.07L5.6,6.07L5.6,0L0,0L0,6.07Z " /><path id="矩形 5" fill-rule="evenodd" style="fill:#BAC6F2" transform="translate(23.631454467773438 40.96631622314453)  rotate(0 2.798180341720581 3.0351333618164062)" opacity="1" d="M0,6.07L5.6,6.07L5.6,0L0,0L0,6.07Z " /><path id="矩形 6" fill-rule="evenodd" style="fill:#BAC6F2" transform="translate(13.26673698425293 27.505229949951172)  rotate(0 2.798180341720581 3.0351333618164062)" opacity="1" d="M0,6.07L5.6,6.07L5.6,0L0,0L0,6.07Z " /><path id="矩形 7" fill-rule="evenodd" style="fill:#FFFFFF" transform="translate(13.26673698425293 27.505229949951172)  rotate(0 2.798180341720581 3.0351333618164062)" opacity="1" d="M0,6.07L5.6,6.07L5.6,0L0,0L0,6.07Z " /><path id="矩形 8" fill-rule="evenodd" style="fill:#BAC6F2" transform="translate(3.415864944458008 27.766141891479492)  rotate(0 2.798180341720581 3.0351333618164062)" opacity="1" d="M0,6.07L5.6,6.07L5.6,0L0,0L0,6.07Z " /><path id="路径 40" fill-rule="evenodd" style="fill:#BAC6F2" transform="translate(3.4984130859375 40.09307861328125)  rotate(0 2.7249755859375 1.841064453125)" opacity="1" d="M5.43 0.11L5.45 3.68C5.45 3.68 1.43 2.35 0.04 1.77L0 0L5.43 0.11Z" /><path id="路径 41" fill-rule="evenodd" style="fill:#BAC6F2" transform="translate(13.487716674804688 40.686767578125)  rotate(0 2.7542495727539062 3.01385498046875)" opacity="1" d="M5.51 0.11L5.39 6.03L0.08 4.52L0 0L5.51 0.11Z" /><path id="椭圆 16" fill-rule="evenodd" style="fill:#FFFFFF" transform="translate(13.25342845916748 2.758240222930908)  rotate(0 3.0777320861816406 3.0777318477630615)" opacity="1" d="M3.08,0C1.38,0 0,1.38 0,3.08C0,4.78 1.38,6.16 3.08,6.16C4.78,6.16 6.16,4.78 6.16,3.08C6.16,1.38 4.78,0 3.08,0Z " /></g><g opacity="1" transform="translate(63.050307165960945 121.29200551006552)  rotate(0 16.135467529296875 30.70007324218747)"><path id="路径 42" fill-rule="evenodd" style="fill:#BAC6F2" transform="translate(0 4.909423828124943)  rotate(0 16.13543701171875 28.245361328125)" opacity="1" d="M0,18.58L0.27,39.41C0.27,39.41 16.85,50.45 17.9,51.24C18.95,52.02 27.62,56.23 31.56,56.49L32.27,14.44L29.94,14.35L18.55,0.2L14.33,0L0,18.56L0,18.58Z " /><path id="路径 43" fill-rule="evenodd" style="fill:#E9EDFA" transform="translate(5.684341886080802e-14 0)  rotate(0 16.135467529296847 11.742507934570284)" opacity="1" d="M18.74 5.74L17.74 5.63L15.93 5.53L14.34 5.47L0 23.49L0.18 11.83L13.96 5.19L14.16 0L19.36 0.27L19.29 5.34L30.03 18.46L32.27 18.55L32.27 19.36L29.94 19.27L18.74 5.74Z" /><path id="矩形 9" fill-rule="evenodd" style="fill:#FFFFFF" transform="translate(9.102739334106445 19.57660293579096)  rotate(0 1.304574966430664 1.5255539417266846)" opacity="1" d="M0,3.05L2.61,3.05L2.61,0L0,0L0,3.05Z " /><path id="矩形 10" fill-rule="evenodd" style="fill:#FFFFFF" transform="translate(20.606958389282227 19.600572586059513)  rotate(0 1.304574966430664 1.5255539417266846)" opacity="1" d="M0,3.05L2.61,3.05L2.61,0L0,0L0,3.05Z " /><path id="矩形 11" fill-rule="evenodd" style="fill:#FFFFFF" transform="translate(16.373746871948242 19.592576980590763)  rotate(0 1.304574966430664 1.5255539417266846)" opacity="1" d="M0,3.05L2.61,3.05L2.61,0L0,0L0,3.05Z " /><path id="矩形 12" fill-rule="evenodd" style="fill:#FFFFFF" transform="translate(12.909964561462402 19.56862258911127)  rotate(0 1.304574966430664 1.5255539417266846)" opacity="1" d="M0,3.05L2.61,3.05L2.61,0L0,0L0,3.05Z " /><path id="矩形 13" fill-rule="evenodd" style="fill:#FFFFFF" transform="translate(9.105396270751953 24.241128921508732)  rotate(0 1.304574966430664 1.5255539417266846)" opacity="1" d="M0,3.05L2.61,3.05L2.61,0L0,0L0,3.05Z " /><path id="矩形 14" fill-rule="evenodd" style="fill:#FFFFFF" transform="translate(20.609622955322266 24.265098571777287)  rotate(0 1.304574966430664 1.5255539417266846)" opacity="1" d="M0,3.05L2.61,3.05L2.61,0L0,0L0,3.05Z " /><path id="矩形 15" fill-rule="evenodd" style="fill:#FFFFFF" transform="translate(16.37906837463379 24.259767532348576)  rotate(0 1.304574966430664 1.5255539417266846)" opacity="1" d="M0,3.05L2.61,3.05L2.61,0L0,0L0,3.05Z " /><path id="矩形 16" fill-rule="evenodd" style="fill:#FFFFFF" transform="translate(12.915287017822266 24.235799789428654)  rotate(0 1.304574966430664 1.5255539417266846)" opacity="1" d="M0,3.05L2.61,3.05L2.61,0L0,0L0,3.05Z " /><path id="矩形 17" fill-rule="evenodd" style="fill:#FFFFFF" transform="translate(2.9153249263763428 38.02436447143549)  rotate(0 1.304574966430664 1.5255539417266846)" opacity="1" d="M0,3.05L2.61,3.05L2.61,0L0,0L0,3.05Z " /><path id="矩形 18" fill-rule="evenodd" style="fill:#FFFFFF" transform="translate(6.304556369781494 34.51533126831049)  rotate(0 1.304574966430664 1.5255539417266846)" opacity="1" d="M0,3.05L2.61,3.05L2.61,0L0,0L0,3.05Z " /><path id="矩形 19" fill-rule="evenodd" style="fill:#FFFFFF" transform="translate(2.840778112411499 34.49136352539057)  rotate(0 1.304574966430664 1.5255539417266846)" opacity="1" d="M0,3.05L2.61,3.05L2.61,0L0,0L0,3.05Z " /><path id="矩形 20" fill-rule="evenodd" style="fill:#FFFFFF" transform="translate(6.339168548583984 38.05364990234369)  rotate(0 1.304574966430664 1.5255539417266846)" opacity="1" d="M0,3.05L2.61,3.05L2.61,0L0,0L0,3.05Z " /><path id="矩形 21" fill-rule="evenodd" style="fill:#FFFFFF" transform="translate(13.136269569396973 38.096240997314396)  rotate(0 1.304574966430664 1.5255539417266846)" opacity="1" d="M0,3.05L2.61,3.05L2.61,0L0,0L0,3.05Z " /><path id="矩形 22" fill-rule="evenodd" style="fill:#FFFFFF" transform="translate(16.52284049987793 34.58720397949213)  rotate(0 1.304574966430664 1.5255539417266846)" opacity="1" d="M0,3.05L2.61,3.05L2.61,0L0,0L0,3.05Z " /><path id="矩形 23" fill-rule="evenodd" style="fill:#FFFFFF" transform="translate(13.05905818939209 34.56325149536127)  rotate(0 1.304574966430664 1.5255539417266846)" opacity="1" d="M0,3.05L2.61,3.05L2.61,0L0,0L0,3.05Z " /><path id="矩形 24" fill-rule="evenodd" style="fill:#FFFFFF" transform="translate(16.557453155517578 38.125537872314396)  rotate(0 1.304574966430664 1.5255539417266846)" opacity="1" d="M0,3.05L2.61,3.05L2.61,0L0,0L0,3.05Z " /><path id="矩形 25" fill-rule="evenodd" style="fill:#FFFFFF" transform="translate(23.029741287231445 38.1974143981933)  rotate(0 1.304574966430664 1.5255539417266846)" opacity="1" d="M0,3.05L2.61,3.05L2.61,0L0,0L0,3.05Z " /><path id="矩形 26" fill-rule="evenodd" style="fill:#FFFFFF" transform="translate(26.416311264038086 34.685710906982365)  rotate(0 1.304574966430664 1.5255539417266846)" opacity="1" d="M0,3.05L2.61,3.05L2.61,0L0,0L0,3.05Z " /><path id="矩形 27" fill-rule="evenodd" style="fill:#FFFFFF" transform="translate(22.952529907226562 34.661758422851506)  rotate(0 1.304574966430664 1.5255539417266846)" opacity="1" d="M0,3.05L2.61,3.05L2.61,0L0,0L0,3.05Z " /><path id="矩形 28" fill-rule="evenodd" style="fill:#FFFFFF" transform="translate(26.450923919677734 38.2267112731933)  rotate(0 1.304574966430664 1.5255539417266846)" opacity="1" d="M0,3.05L2.61,3.05L2.61,0L0,0L0,3.05Z " /><path id="矩形 29" fill-rule="evenodd" style="fill:#FFFFFF" transform="translate(22.89129066467285 53.0935325622558)  rotate(0 1.304574966430664 2.1765100955963135)" opacity="1" d="M0,4.35L2.61,4.35L2.61,0L0,0L0,4.35Z " /><path id="矩形 30" fill-rule="evenodd" style="fill:#FFFFFF" transform="translate(26.280527114868164 49.581829071044865)  rotate(0 1.304574966430664 1.5255539417266846)" opacity="1" d="M0,3.05L2.61,3.05L2.61,0L0,0L0,3.05Z " /><path id="矩形 31" fill-rule="evenodd" style="fill:#FFFFFF" transform="translate(22.81674575805664 49.56052398681635)  rotate(0 1.304574966430664 1.5255539417266846)" opacity="1" d="M0,3.05L2.61,3.05L2.61,0L0,0L0,3.05Z " /><path id="矩形 32" fill-rule="evenodd" style="fill:#FFFFFF" transform="translate(16.01165771484375 49.496631622314396)  rotate(0 1.304574966430664 1.5255539417266846)" opacity="1" d="M0,3.05L2.61,3.05L2.61,0L0,0L0,3.05Z " /><path id="路径 44" fill-rule="evenodd" style="fill:#FFFFFF" transform="translate(16.02496337890625 53.22662353515619)  rotate(0 1.3098907470703125 1.685302734375)" opacity="1" d="M0 0L2.61 0L2.62 3.37L0.01 1.67L0 0Z" /><path id="矩形 33" fill-rule="evenodd" style="fill:#FFFFFF" transform="translate(12.547883033752441 49.47267532348627)  rotate(0 1.304574966430664 1.5255539417266846)" opacity="1" d="M0,3.05L2.61,3.05L2.61,0L0,0L0,3.05Z " /><path id="路径 45" fill-rule="evenodd" style="fill:#FFFFFF" transform="translate(13.39453125 53.08819580078119)  rotate(0 0.8746032714843466 0.587066650390625)" opacity="1" d="M0 0L1.74 0.01L1.75 1.17L1.09 0.72L0 0Z" /><path id="矩形 34" fill-rule="evenodd" style="fill:#FFFFFF" transform="translate(26.315139770507812 53.12281417846674)  rotate(0 1.304574966430664 2.167191982269287)" opacity="1" d="M0,4.33L2.61,4.33L2.61,0L0,0L0,4.33Z " /></g><g opacity="1" transform="translate(94.62900818524805 110.42676350567093)  rotate(0 16.373748779296875 36.34711106140077)"><path id="路径 46" fill-rule="evenodd" style="fill:#BAC6F2" transform="translate(14.116058349609318 0)  rotate(0 2.4986572265625 1.2247009277344034)" opacity="1" d="M0 0L4.92 0.05L5 2.45L0.08 2.45L0 0Z" /><path id="路径 47" fill-rule="evenodd" style="fill:#E9EDFA" transform="translate(0 2.44940185546875)  rotate(0 16.373748779296875 35.12241013366639)" opacity="1" d="M19.33 5.75L27.63 20.44L32.75 22.96L32.45 65.2C32.45 65.2 23.65 67.28 16.05 69.2C8.45 71.12 0 69.81 0 69.81L0.47 22.51L5.3 20.18L14.04 5.75L14.2 0L19.12 0L19.33 5.75Z" /><path id="矩形 35" fill-rule="evenodd" style="fill:#BAC6F2" transform="translate(13.106986999511719 29.01214027404785)  rotate(0 1.6134130954742432 2.0074479579925537)" opacity="1" d="M0,4.01L3.23,4.01L3.23,0L0,0L0,4.01Z " /><path id="矩形 36" fill-rule="evenodd" style="fill:#BAC6F2" transform="translate(17.481304168701172 29.084030151367188)  rotate(0 1.7212402820587158 1.9715055227279663)" opacity="1" d="M0,3.94L3.44,3.94L3.44,0L0,0L0,3.94Z " /><path id="矩形 37" fill-rule="evenodd" style="fill:#BAC6F2" transform="translate(13.03510570526123 33.77783966064453)  rotate(0 1.6134130954742432 2.0074479579925537)" opacity="1" d="M0,4.01L3.23,4.01L3.23,0L0,0L0,4.01Z " /><path id="矩形 38" fill-rule="evenodd" style="fill:#BAC6F2" transform="translate(17.409423828125 33.8497314453125)  rotate(0 1.7212402820587158 1.9715055227279663)" opacity="1" d="M0,3.94L3.44,3.94L3.44,0L0,0L0,3.94Z " /><path id="矩形 39" fill-rule="evenodd" style="fill:#BAC6F2" transform="translate(13.176212310791016 43.343833923339844)  rotate(0 1.6134130954742432 2.0074479579925537)" opacity="1" d="M0,4.01L3.23,4.01L3.23,0L0,0L0,4.01Z " /><path id="矩形 40" fill-rule="evenodd" style="fill:#BAC6F2" transform="translate(5.572396755218506 43.31986618041992)  rotate(0 1.6134130954742432 2.0074479579925537)" opacity="1" d="M0,4.01L3.23,4.01L3.23,0L0,0L0,4.01Z " /><path id="矩形 41" fill-rule="evenodd" style="fill:#BAC6F2" transform="translate(24.656471252441406 43.49825668334961)  rotate(0 1.6134130954742432 2.0074479579925537)" opacity="1" d="M0,4.01L3.23,4.01L3.23,0L0,0L0,4.01Z " /><path id="矩形 42" fill-rule="evenodd" style="fill:#BAC6F2" transform="translate(24.749656677246094 61.18456268310547)  rotate(0 1.6134130954742432 2.0074479579925537)" opacity="1" d="M0,4.01L3.23,4.01L3.23,0L0,0L0,4.01Z " /><path id="矩形 43" fill-rule="evenodd" style="fill:#BAC6F2" transform="translate(5.609674453735352 61.299041748046875)  rotate(0 1.6134130954742432 2.0074479579925537)" opacity="1" d="M0,4.01L3.23,4.01L3.23,0L0,0L0,4.01Z " /><path id="矩形 44" fill-rule="evenodd" style="fill:#BAC6F2" transform="translate(17.5505313873291 43.41305923461914)  rotate(0 1.7212402820587158 1.9715055227279663)" opacity="1" d="M0,3.94L3.44,3.94L3.44,0L0,0L0,3.94Z " /><path id="矩形 45" fill-rule="evenodd" style="fill:#BAC6F2" transform="translate(13.10432243347168 48.10953140258789)  rotate(0 1.6134130954742432 2.0074479579925537)" opacity="1" d="M0,4.01L3.23,4.01L3.23,0L0,0L0,4.01Z " /><path id="矩形 46" fill-rule="evenodd" style="fill:#BAC6F2" transform="translate(17.478641510009766 48.18140411376953)  rotate(0 1.7212402820587158 1.9715055227279663)" opacity="1" d="M0,3.94L3.44,3.94L3.44,0L0,0L0,3.94Z " /><path id="矩形 47" fill-rule="evenodd" style="fill:#BAC6F2" transform="translate(13.117639541625977 60.74259567260742)  rotate(0 1.6134130954742432 2.0074479579925537)" opacity="1" d="M0,4.01L3.23,4.01L3.23,0L0,0L0,4.01Z " /><path id="矩形 48" fill-rule="evenodd" style="fill:#BAC6F2" transform="translate(17.49195671081543 60.81448745727539)  rotate(0 1.7212402820587158 1.9715055227279663)" opacity="1" d="M0,3.94L3.44,3.94L3.44,0L0,0L0,3.94Z " /><path id="矩形 49" fill-rule="evenodd" style="fill:#BAC6F2" transform="translate(13.04574966430664 65.5109634399414)  rotate(0 1.6134130954742432 2.0074479579925537)" opacity="1" d="M0,4.01L3.23,4.01L3.23,0L0,0L0,4.01Z " /><path id="矩形 50" fill-rule="evenodd" style="fill:#BAC6F2" transform="translate(17.420066833496094 65.58284759521484)  rotate(0 1.7212402820587158 1.9715055227279663)" opacity="1" d="M0,3.94L3.44,3.94L3.44,0L0,0L0,3.94Z " /><path id="椭圆 17" fill-rule="evenodd" style="fill:#BAC6F2" transform="translate(5.109142303466797 31.21927833557129)  rotate(0 2.2550508975982666 2.2550511360168457)" opacity="1" d="M2.26,0C1.01,0 0,1.01 0,2.26C0,3.5 1.01,4.51 2.26,4.51C3.5,4.51 4.51,3.5 4.51,2.26C4.51,1.01 3.5,0 2.26,0Z " /><path id="椭圆 18" fill-rule="evenodd" style="fill:#BAC6F2" transform="translate(23.397153854370117 31.719810485839844)  rotate(0 2.2550508975982666 2.2550511360168457)" opacity="1" d="M2.26,0C1.01,0 0,1.01 0,2.26C0,3.5 1.01,4.51 2.26,4.51C3.5,4.51 4.51,3.5 4.51,2.26C4.51,1.01 3.5,0 2.26,0Z " /><path id="路径 48" fill-rule="evenodd" style="fill:#BAC6F2" transform="translate(0.388702392578125 22.5052490234375)  rotate(0 2.5 1.224700927734375)" opacity="1" d="M0 0L4.92 0.05L5 2.45L0.08 2.45L0 0Z" /><path id="路径 49" fill-rule="evenodd" style="fill:#BAC6F2" transform="translate(27.7421875 22.9552001953125)  rotate(0 2.4986572265625 1.224700927734375)" opacity="1" d="M0 0L4.92 0.05L5 2.45L0.08 2.45L0 0Z" /><path id="椭圆 19" fill-rule="evenodd" style="fill:#BAC6F2" transform="translate(12.960551261901855 16.04094696044922)  rotate(0 3.8764514923095703 3.8764514923095703)" opacity="1" d="M3.88,0C1.74,0 0,1.74 0,3.88C0,6.02 1.74,7.75 3.88,7.75C6.02,7.75 7.75,6.02 7.75,3.88C7.75,1.74 6.02,0 3.88,0Z " /></g><g opacity="1" transform="translate(125.3370999210879 112.54869648906931)  rotate(0 16.500213623046875 32.85009439403089)"><path id="路径 50" fill-rule="evenodd" style="fill:#BAC6F2" transform="translate(0 4.922790527343807)  rotate(0 16.500213623046875 30.388699130358987)" opacity="1" d="M1.1 60.78C1.03 60.85 0.28 38.98 0.28 38.98L0 18.56L14.33 0L18.55 0.2L29.94 14.36L32.27 14.45L33 57.05C29.88 57.12 2.85 58.97 1.1 60.78Z" /><path id="路径 51" fill-rule="evenodd" style="fill:#E9EDFA" transform="translate(5.684341886080802e-14 0)  rotate(0 16.135467529296847 11.742492675781307)" opacity="1" d="M18.74 5.74L17.74 5.64L15.93 5.53L14.34 5.47L0 23.48L0.01 20.87L13.96 5.2L14.16 0L19.36 0.27L19.29 5.34L30.03 18.47L32.27 18.56L32.27 19.36L29.94 19.27L18.74 5.74Z" /><path id="矩形 51" fill-rule="evenodd" style="fill:#FFFFFF" transform="translate(9.100082397460938 19.576610565185604)  rotate(0 1.304574966430664 1.5255539417266846)" opacity="1" d="M0,3.05L2.61,3.05L2.61,0L0,0L0,3.05Z " /><path id="矩形 52" fill-rule="evenodd" style="fill:#FFFFFF" transform="translate(20.606958389282227 19.603229522705135)  rotate(0 1.304574966430664 1.5255539417266846)" opacity="1" d="M0,3.05L2.61,3.05L2.61,0L0,0L0,3.05Z " /><path id="矩形 53" fill-rule="evenodd" style="fill:#FFFFFF" transform="translate(16.373754501342773 19.595241546630916)  rotate(0 1.304574966430664 1.5255539417266846)" opacity="1" d="M0,3.05L2.61,3.05L2.61,0L0,0L0,3.05Z " /><path id="矩形 54" fill-rule="evenodd" style="fill:#FFFFFF" transform="translate(12.90997314453125 19.571281433105526)  rotate(0 1.304574966430664 1.5255539417266846)" opacity="1" d="M0,3.05L2.61,3.05L2.61,0L0,0L0,3.05Z " /><path id="矩形 55" fill-rule="evenodd" style="fill:#FFFFFF" transform="translate(9.105403900146484 24.241136550903377)  rotate(0 1.304574966430664 1.5255539417266846)" opacity="1" d="M0,3.05L2.61,3.05L2.61,0L0,0L0,3.05Z " /><path id="矩形 56" fill-rule="evenodd" style="fill:#FFFFFF" transform="translate(20.609622955322266 24.267753601074276)  rotate(0 1.304574966430664 1.5255539417266846)" opacity="1" d="M0,3.05L2.61,3.05L2.61,0L0,0L0,3.05Z " /><path id="矩形 57" fill-rule="evenodd" style="fill:#FFFFFF" transform="translate(16.37906837463379 24.259757995605526)  rotate(0 1.304574966430664 1.5255539417266846)" opacity="1" d="M0,3.05L2.61,3.05L2.61,0L0,0L0,3.05Z " /><path id="矩形 58" fill-rule="evenodd" style="fill:#FFFFFF" transform="translate(12.915302276611328 24.2358074188233)  rotate(0 1.304574966430664 1.5255539417266846)" opacity="1" d="M0,3.05L2.61,3.05L2.61,0L0,0L0,3.05Z " /><path id="矩形 59" fill-rule="evenodd" style="fill:#FFFFFF" transform="translate(2.976567029953003 40.21552276611334)  rotate(0 1.304574966430664 1.5255539417266846)" opacity="1" d="M0,3.05L2.61,3.05L2.61,0L0,0L0,3.05Z " /><path id="矩形 60" fill-rule="evenodd" style="fill:#FFFFFF" transform="translate(6.363137245178223 36.70647048950201)  rotate(0 1.304574966430664 1.5255539417266846)" opacity="1" d="M0,3.05L2.61,3.05L2.61,0L0,0L0,3.05Z " /><path id="矩形 61" fill-rule="evenodd" style="fill:#FFFFFF" transform="translate(2.899355173110962 36.68251800537115)  rotate(0 1.304574966430664 1.5255539417266846)" opacity="1" d="M0,3.05L2.61,3.05L2.61,0L0,0L0,3.05Z " /><path id="矩形 62" fill-rule="evenodd" style="fill:#FFFFFF" transform="translate(6.397741794586182 40.24480819702154)  rotate(0 1.304574966430664 1.5255539417266846)" opacity="1" d="M0,3.05L2.61,3.05L2.61,0L0,0L0,3.05Z " /><path id="矩形 63" fill-rule="evenodd" style="fill:#FFFFFF" transform="translate(13.194851875305176 40.287399291992244)  rotate(0 1.304574966430664 1.5255539417266846)" opacity="1" d="M0,3.05L2.61,3.05L2.61,0L0,0L0,3.05Z " /><path id="矩形 64" fill-rule="evenodd" style="fill:#FFFFFF" transform="translate(16.584077835083008 36.77835845947271)  rotate(0 1.304574966430664 1.5255539417266846)" opacity="1" d="M0,3.05L2.61,3.05L2.61,0L0,0L0,3.05Z " /><path id="矩形 65" fill-rule="evenodd" style="fill:#FFFFFF" transform="translate(13.120296478271484 36.754405975341854)  rotate(0 1.304574966430664 1.5255539417266846)" opacity="1" d="M0,3.05L2.61,3.05L2.61,0L0,0L0,3.05Z " /><path id="矩形 66" fill-rule="evenodd" style="fill:#FFFFFF" transform="translate(16.618690490722656 40.31668090820318)  rotate(0 1.304574966430664 1.5255539417266846)" opacity="1" d="M0,3.05L2.61,3.05L2.61,0L0,0L0,3.05Z " /><path id="矩形 67" fill-rule="evenodd" style="fill:#FFFFFF" transform="translate(23.088315963745117 40.388568878173885)  rotate(0 1.304574966430664 1.5255539417266846)" opacity="1" d="M0,3.05L2.61,3.05L2.61,0L0,0L0,3.05Z " /><path id="矩形 68" fill-rule="evenodd" style="fill:#FFFFFF" transform="translate(26.477542877197266 36.87686920166021)  rotate(0 1.304574966430664 1.5255539417266846)" opacity="1" d="M0,3.05L2.61,3.05L2.61,0L0,0L0,3.05Z " /><path id="矩形 69" fill-rule="evenodd" style="fill:#FFFFFF" transform="translate(23.013776779174805 36.85291290283209)  rotate(0 1.304574966430664 1.5255539417266846)" opacity="1" d="M0,3.05L2.61,3.05L2.61,0L0,0L0,3.05Z " /><path id="矩形 70" fill-rule="evenodd" style="fill:#FFFFFF" transform="translate(26.512155532836914 40.41785430908209)  rotate(0 1.304574966430664 1.5255539417266846)" opacity="1" d="M0,3.05L2.61,3.05L2.61,0L0,0L0,3.05Z " /><path id="矩形 71" fill-rule="evenodd" style="fill:#FFFFFF" transform="translate(3.0484488010406494 53.59672164916998)  rotate(0 1.304574966430664 1.5255539417266846)" opacity="1" d="M0,3.05L2.61,3.05L2.61,0L0,0L0,3.05Z " /><path id="矩形 72" fill-rule="evenodd" style="fill:#FFFFFF" transform="translate(6.435019016265869 50.08501815795904)  rotate(0 1.304574966430664 1.5255539417266846)" opacity="1" d="M0,3.05L2.61,3.05L2.61,0L0,0L0,3.05Z " /><path id="矩形 73" fill-rule="evenodd" style="fill:#FFFFFF" transform="translate(2.9712369441986084 50.06106567382818)  rotate(0 1.304574966430664 1.5255539417266846)" opacity="1" d="M0,3.05L2.61,3.05L2.61,0L0,0L0,3.05Z " /><path id="矩形 74" fill-rule="evenodd" style="fill:#FFFFFF" transform="translate(6.469631671905518 53.62335586547857)  rotate(0 1.304574966430664 1.5255539417266846)" opacity="1" d="M0,3.05L2.61,3.05L2.61,0L0,0L0,3.05Z " /><path id="矩形 75" fill-rule="evenodd" style="fill:#FFFFFF" transform="translate(13.266725540161133 53.66860961914068)  rotate(0 1.304574966430664 1.5255539417266846)" opacity="1" d="M0,3.05L2.61,3.05L2.61,0L0,0L0,3.05Z " /><path id="矩形 76" fill-rule="evenodd" style="fill:#FFFFFF" transform="translate(16.655967712402344 50.15690994262701)  rotate(0 1.304574966430664 1.5255539417266846)" opacity="1" d="M0,3.05L2.61,3.05L2.61,0L0,0L0,3.05Z " /><path id="矩形 77" fill-rule="evenodd" style="fill:#FFFFFF" transform="translate(13.19218635559082 50.13295745849615)  rotate(0 1.304574966430664 1.5255539417266846)" opacity="1" d="M0,3.05L2.61,3.05L2.61,0L0,0L0,3.05Z " /><path id="矩形 78" fill-rule="evenodd" style="fill:#FFFFFF" transform="translate(16.690580368041992 53.69522857666021)  rotate(0 1.304574966430664 1.5255539417266846)" opacity="1" d="M0,3.05L2.61,3.05L2.61,0L0,0L0,3.05Z " /><path id="矩形 79" fill-rule="evenodd" style="fill:#FFFFFF" transform="translate(23.16020393371582 53.767116546630916)  rotate(0 1.304574966430664 1.5255539417266846)" opacity="1" d="M0,3.05L2.61,3.05L2.61,0L0,0L0,3.05Z " /><path id="矩形 80" fill-rule="evenodd" style="fill:#FFFFFF" transform="translate(26.54943084716797 50.258083343505916)  rotate(0 1.304574966430664 1.5255539417266846)" opacity="1" d="M0,3.05L2.61,3.05L2.61,0L0,0L0,3.05Z " /><path id="矩形 81" fill-rule="evenodd" style="fill:#FFFFFF" transform="translate(23.085649490356445 50.23411178588873)  rotate(0 1.304574966430664 1.5255539417266846)" opacity="1" d="M0,3.05L2.61,3.05L2.61,0L0,0L0,3.05Z " /><path id="矩形 82" fill-rule="evenodd" style="fill:#FFFFFF" transform="translate(26.58404541015625 53.79640197753912)  rotate(0 1.304574966430664 1.5255539417266846)" opacity="1" d="M0,3.05L2.61,3.05L2.61,0L0,0L0,3.05Z " /></g><g opacity="1" transform="translate(157.53840807340043 104.43370625469437)  rotate(0 16.04244284767185 35.531036376953125)"><path id="路径 52" fill-rule="evenodd" style="fill:#E9EDFA" transform="translate(0 0)  rotate(0 16.04244284767185 35.531036376953125)" opacity="1" d="M2.92604 21.8831C3.04524 21.8812 3.11693 21.88 3.12 21.88C3.13 21.85 10 10.91 10.54 9.85C11.07 8.79 10.8 4.53 10.8 4.53L8.94 4.53C8.94 4.53 10.54 0 15.06 0C19.59 0 20.92 2.13 21.45 3.19C21.98 4.26 21.72 4.79 21.72 4.79L20.12 4.79L20.12 9.05L27.84 21.83L31.04 21.83L32.08 71.06C32.08 71.06 1.71 69.64 1.07 70.07C0.919102 70.1681 0.89344 69.4009 0.87705 68.9109C0.871717 68.7515 0.867365 68.6214 0.86 68.56C0.72 67.53 -0.41 29.87 0.16 21.92C0.16 21.9285 2.26768 21.8939 2.92604 21.8831Z" /><path id="路径 53" fill-rule="evenodd" style="fill:#FFFFFF" transform="translate(22.654709914093246 30.774943033854242)  rotate(0 1.8636474609379547 3.3132120768228788)" opacity="1" d="M0 1.3C1.86 -1.63 3.73 1.3 3.73 1.3L3.73 6.63L0 6.63L0 1.3Z" /><path id="路径 54" fill-rule="evenodd" style="fill:#FFFFFF" transform="translate(4.755417921905746 31.203626844618043)  rotate(0 1.8637084960939774 3.3132256401909785)" opacity="1" d="M0 1.3C1.86 -1.63 3.73 1.3 3.73 1.3L3.73 6.63L0 6.63L0 1.3Z" /><path id="路径 55" fill-rule="evenodd" style="fill:#FFFFFF" transform="translate(4.755417921905746 44.94959852430566)  rotate(0 1.8637084960939774 3.3131951226127967)" opacity="1" d="M0 1.3C1.86 -1.63 3.73 1.3 3.73 1.3L3.73 6.63L0 6.63L0 1.3Z" /><path id="路径 56" fill-rule="evenodd" style="fill:#FFFFFF" transform="translate(13.655808546906655 45.10932752821179)  rotate(0 1.8636474609370453 3.3131951226128535)" opacity="1" d="M0 1.3C1.86 -1.63 3.73 1.3 3.73 1.3L3.73 6.63L0 6.63L0 1.3Z" /><path id="路径 57" fill-rule="evenodd" style="fill:#FFFFFF" transform="translate(22.5536356953437 45.26902262369799)  rotate(0 1.8637084960939774 3.3132120768228788)" opacity="1" d="M0 1.3C1.86 -1.63 3.73 1.3 3.73 1.3L3.73 6.63L0 6.63L0 1.3Z" /><path id="路径 58" fill-rule="evenodd" style="fill:#FFFFFF" transform="translate(4.981736281281201 58.10182020399304)  rotate(0 1.8636474609375 3.3131951226128535)" opacity="1" d="M0 1.3C1.86 -1.63 3.73 1.3 3.73 1.3L3.73 6.63L0 6.63L0 1.3Z" /><path id="路径 59" fill-rule="evenodd" style="fill:#FFFFFF" transform="translate(13.8848124531562 58.26154920789929)  rotate(0 1.8637084960939774 3.3131951226128535)" opacity="1" d="M0 1.3C1.86 -1.63 3.73 1.3 3.73 1.3L3.73 6.63L0 6.63L0 1.3Z" /><path id="路径 60" fill-rule="evenodd" style="fill:#FFFFFF" transform="translate(22.787888625030746 58.42392985026038)  rotate(0 1.8636474609379547 3.3132120768229356)" opacity="1" d="M0 1.3C1.86 -1.63 3.73 1.3 3.73 1.3L3.73 6.63L0 6.63L0 1.3Z" /><path id="椭圆 20" fill-rule="evenodd" style="fill:#E9EDFA" transform="translate(21.461989500885693 21.868940353393555)  rotate(0 2.3508973121643066 2.3508973121643066)" opacity="1" d="M2.35,0C1.05,0 0,1.05 0,2.35C0,3.65 1.05,4.7 2.35,4.7C3.65,4.7 4.7,3.65 4.7,2.35C4.7,1.05 3.65,0 2.35,0Z " /><path id="椭圆 21" fill-rule="evenodd" style="fill:#E9EDFA" transform="translate(4.656935313111035 21.512170791625977)  rotate(0 2.3508973121643066 2.3508973121643066)" opacity="1" d="M2.35,0C1.05,0 0,1.05 0,2.35C0,3.65 1.05,4.7 2.35,4.7C3.65,4.7 4.7,3.65 4.7,2.35C4.7,1.05 3.65,0 2.35,0Z " /><path id="椭圆 22" fill-rule="evenodd" style="fill:#E9EDFA" transform="translate(13.235174277191845 33.112239837646484)  rotate(0 2.3508973121643066 2.3508973121643066)" opacity="1" d="M2.35,0C1.05,0 0,1.05 0,2.35C0,3.65 1.05,4.7 2.35,4.7C3.65,4.7 4.7,3.65 4.7,2.35C4.7,1.05 3.65,0 2.35,0Z " /><path id="椭圆 23" fill-rule="evenodd" style="fill:#E9EDFA" transform="translate(13.059462645416943 11.211353302001953)  rotate(0 2.3508973121643066 2.3508973121643066)" opacity="1" d="M2.35,0C1.05,0 0,1.05 0,2.35C0,3.65 1.05,4.7 2.35,4.7C3.65,4.7 4.7,3.65 4.7,2.35C4.7,1.05 3.65,0 2.35,0Z " /><path id="路径 61" fill-rule="evenodd" style="fill:#FFFFFF" transform="translate(11.4167948750312 19.122523833884316)  rotate(0 3.828236040934371 5.314897751026592)" opacity="1" d="M0 10.63L0.04 8.7L0.09 3.21C0.1 2.6 0.32 2.02 0.71 1.55C1.46 0.62 2.57 0.06 3.76 0C6.24 -0.07 7.32 2.02 7.47 2.87C7.7 4.15 7.65 10.63 7.65 10.63L0 10.63Z" /></g><g opacity="1" transform="translate(188.45456207929146 123.60297200176468)  rotate(0 15.843994140624773 26.487374869454868)"><path id="路径 62" fill-rule="evenodd" style="fill:#BAC6F2" transform="translate(0.25292968749954525 11.88226318359375)  rotate(0 15.717529296875 20.546243277657993)" opacity="1" d="M0.8,40.06C0.8,40.06 9.56,40.15 14.93,40.82C19.62,41.41 30.9,40.87 30.9,40.87L31.44,0.21L0.02,0L0,0.07L0.8,40.06Z " /><path id="路径 63" fill-rule="evenodd" style="fill:#BAC6F2" transform="translate(0 0)  rotate(0 15.837280273437045 6.044952392578125)" opacity="1" d="M22.16 4.53L31.53 4.53L31.67 12.09L0.03 11.96L0 4.66L10.38 4.77C10.38 4.77 11.28 0 16.63 0C20.99 0 22.16 4.53 22.16 4.53Z" /><path id="矩形 83" fill-rule="evenodd" style="fill:#FFFFFF" transform="translate(3.3759183883662445 16.256601333618164)  rotate(0 2.798180341720581 3.0351333618164062)" opacity="1" d="M0,6.07L5.6,6.07L5.6,0L0,0L0,6.07Z " /><path id="矩形 84" fill-rule="evenodd" style="fill:#FFFFFF" transform="translate(13.487700462340854 16.168737411499023)  rotate(0 2.798180341720581 3.0351333618164062)" opacity="1" d="M0,6.07L5.6,6.07L5.6,0L0,0L0,6.07Z " /><path id="矩形 85" fill-rule="evenodd" style="fill:#FFFFFF" transform="translate(23.469026565551303 16.256601333618164)  rotate(0 2.798180341720581 3.0351333618164062)" opacity="1" d="M0,6.07L5.6,6.07L5.6,0L0,0L0,6.07Z " /><path id="矩形 86" fill-rule="evenodd" style="fill:#FFFFFF" transform="translate(23.554225921630405 27.675628662109375)  rotate(0 2.798180341720581 3.0351333618164062)" opacity="1" d="M0,6.07L5.6,6.07L5.6,0L0,0L0,6.07Z " /><path id="矩形 87" fill-rule="evenodd" style="fill:#FFFFFF" transform="translate(23.634094238280795 40.96631622314453)  rotate(0 2.798180341720581 3.0351333618164062)" opacity="1" d="M0,6.07L5.6,6.07L5.6,0L0,0L0,6.07Z " /><path id="矩形 88" fill-rule="evenodd" style="fill:#FFFFFF" transform="translate(13.495695114135287 40.721378326416016)  rotate(0 2.798180341720581 3.0351333618164062)" opacity="1" d="M0,6.07L5.6,6.07L5.6,0L0,0L0,6.07Z " /><path id="矩形 89" fill-rule="evenodd" style="fill:#FFFFFF" transform="translate(3.3785834312434417 40.59623718261719)  rotate(0 2.798180341720581 3.0351333618164062)" opacity="1" d="M0,6.07L5.6,6.07L5.6,0L0,0L0,6.07Z " /><path id="矩形 90" fill-rule="evenodd" style="fill:#FFFFFF" transform="translate(13.26938152313187 27.502567291259766)  rotate(0 2.798180341720581 3.0351333618164062)" opacity="1" d="M0,6.07L5.6,6.07L5.6,0L0,0L0,6.07Z " /><path id="矩形 91" fill-rule="evenodd" style="fill:#FFFFFF" transform="translate(13.26938152313187 27.502567291259766)  rotate(0 2.798180341720581 3.0351333618164062)" opacity="1" d="M0,6.07L5.6,6.07L5.6,0L0,0L0,6.07Z " /><path id="矩形 92" fill-rule="evenodd" style="fill:#FFFFFF" transform="translate(3.4185097217555267 27.763492584228516)  rotate(0 2.798180341720581 3.0351333618164062)" opacity="1" d="M0,6.07L5.6,6.07L5.6,0L0,0L0,6.07Z " /><path id="椭圆 24" fill-rule="evenodd" style="fill:#FFFFFF" transform="translate(13.25607299804642 2.7555832862854004)  rotate(0 3.0777320861816406 3.0777318477630615)" opacity="1" d="M3.08,0C1.38,0 0,1.38 0,3.08C0,4.78 1.38,6.16 3.08,6.16C4.78,6.16 6.16,4.78 6.16,3.08C6.16,1.38 4.78,0 3.08,0Z " /></g><g opacity="1" transform="translate(219.41295136151712 98.8426723191475)  rotate(0 16.901535034179915 38.78448486328125)"><path id="路径 64" fill-rule="evenodd" style="fill:#FFFFFF" transform="translate(14.230468750000455 0)  rotate(0 2.5 1.2247161865234375)" opacity="1" d="M0 0L4.92 0.05L5 2.45L0.08 2.45L0 0Z" /><path id="路径 65" fill-rule="evenodd" style="fill:#E9EDFA" transform="translate(0 2.4547119140625)  rotate(0 16.901535034179915 37.55712890625)" opacity="1" d="M33.77 29C33.82 29.31 33.82 29.62 33.77 29.92L32.97 34.82L31.3 45.54C31.25 45.85 31.18 46.16 31.08 46.45L27.42 57.31C27.37 57.47 27.31 57.62 27.23 57.76C26.51 59.11 23.51 66.01 17.19 69.14C10.53 72.45 0 75.11 0 75.11L0.59 22.5L5.41 20.18L14.14 5.75L14.3 0L19.22 0L19.42 5.75L27.72 20.44L32.66 22.86C32.78 22.92 32.86 23.04 32.89 23.17L33.77 29Z" /><path id="矩形 93" fill-rule="evenodd" style="fill:#FFFFFF" transform="translate(13.224109649658658 29.014816284179688)  rotate(0 1.6134130954742432 2.0074479579925537)" opacity="1" d="M0,4.01L3.23,4.01L3.23,0L0,0L0,4.01Z " /><path id="矩形 94" fill-rule="evenodd" style="fill:#FFFFFF" transform="translate(17.595777511597134 29.084030151367188)  rotate(0 1.7212402820587158 1.9715055227279663)" opacity="1" d="M0,3.94L3.44,3.94L3.44,0L0,0L0,3.94Z " /><path id="矩形 95" fill-rule="evenodd" style="fill:#FFFFFF" transform="translate(13.1522359848027 33.7805061340332)  rotate(0 1.6134130954742432 2.0074479579925537)" opacity="1" d="M0,4.01L3.23,4.01L3.23,0L0,0L0,4.01Z " /><path id="矩形 96" fill-rule="evenodd" style="fill:#FFFFFF" transform="translate(17.5238876342778 33.852386474609375)  rotate(0 1.7212402820587158 1.9715055227279663)" opacity="1" d="M0,3.94L3.44,3.94L3.44,0L0,0L0,3.94Z " /><path id="矩形 97" fill-rule="evenodd" style="fill:#FFFFFF" transform="translate(13.293334960937955 43.343833923339844)  rotate(0 1.6134130954742432 2.0074479579925537)" opacity="1" d="M0,4.01L3.23,4.01L3.23,0L0,0L0,4.01Z " /><path id="矩形 98" fill-rule="evenodd" style="fill:#FFFFFF" transform="translate(5.689526557922818 43.32252883911133)  rotate(0 1.6134130954742432 2.0074479579925537)" opacity="1" d="M0,4.01L3.23,4.01L3.23,0L0,0L0,4.01Z " /><path id="矩形 99" fill-rule="evenodd" style="fill:#FFFFFF" transform="translate(24.773591995239713 43.50092315673828)  rotate(0 1.6134130954742432 2.0074479579925537)" opacity="1" d="M0,4.01L3.23,4.01L3.23,0L0,0L0,4.01Z " /><path id="路径 66" fill-rule="evenodd" style="fill:#FFFFFF" transform="translate(24.842834472656705 60.80645751953125)  rotate(0 1.040985107421875 1.799774169921875)" opacity="1" d="M0.12 0.08L2.08 0L0.97 2.2L0 3.6L0.12 0.08Z" /><path id="矩形 100" fill-rule="evenodd" style="fill:#FFFFFF" transform="translate(5.726804256439664 61.30171203613281)  rotate(0 1.6134130954742432 2.0074479579925537)" opacity="1" d="M0,4.01L3.23,4.01L3.23,0L0,0L0,4.01Z " /><path id="矩形 101" fill-rule="evenodd" style="fill:#FFFFFF" transform="translate(17.66498756408737 43.41572570800781)  rotate(0 1.7212402820587158 1.9715055227279663)" opacity="1" d="M0,3.94L3.44,3.94L3.44,0L0,0L0,3.94Z " /><path id="矩形 102" fill-rule="evenodd" style="fill:#FFFFFF" transform="translate(13.221461296081998 48.11219787597656)  rotate(0 1.6134130954742432 2.0074479579925537)" opacity="1" d="M0,4.01L3.23,4.01L3.23,0L0,0L0,4.01Z " /><path id="矩形 103" fill-rule="evenodd" style="fill:#FFFFFF" transform="translate(17.593112945557095 48.1840705871582)  rotate(0 1.7212402820587158 1.9715055227279663)" opacity="1" d="M0,3.94L3.44,3.94L3.44,0L0,0L0,3.94Z " /><path id="矩形 104" fill-rule="evenodd" style="fill:#FFFFFF" transform="translate(13.234769821167447 60.74525833129883)  rotate(0 1.6134130954742432 2.0074479579925537)" opacity="1" d="M0,4.01L3.23,4.01L3.23,0L0,0L0,4.01Z " /><path id="矩形 105" fill-rule="evenodd" style="fill:#FFFFFF" transform="translate(17.60642242431686 60.8171501159668)  rotate(0 1.7212402820587158 1.9715055227279663)" opacity="1" d="M0,3.94L3.44,3.94L3.44,0L0,0L0,3.94Z " /><path id="矩形 106" fill-rule="evenodd" style="fill:#FFFFFF" transform="translate(13.162878990173795 65.51362609863281)  rotate(0 1.6134130954742432 2.0074479579925537)" opacity="1" d="M0,4.01L3.23,4.01L3.23,0L0,0L0,4.01Z " /><path id="路径 67" fill-rule="evenodd" style="fill:#FFFFFF" transform="translate(17.534484863281705 65.58551025390625)  rotate(0 1.72125244140625 1.97149658203125)" opacity="1" d="M3.44 0L3.44 3.4L3.17 3.66L2.81 3.94L0 3.94L0 0L3.44 0Z" /><path id="椭圆 25" fill-rule="evenodd" style="fill:#FFFFFF" transform="translate(5.226272106171109 31.21927833557129)  rotate(0 2.2550508975982666 2.2550511360168457)" opacity="1" d="M2.26,0C1.01,0 0,1.01 0,2.26C0,3.5 1.01,4.51 2.26,4.51C3.5,4.51 4.51,3.5 4.51,2.26C4.51,1.01 3.5,0 2.26,0Z " /><path id="椭圆 26" fill-rule="evenodd" style="fill:#FFFFFF" transform="translate(23.514284133911588 31.722469329833984)  rotate(0 2.2550508975982666 2.2550511360168457)" opacity="1" d="M2.26,0C1.01,0 0,1.01 0,2.26C0,3.5 1.01,4.51 2.26,4.51C3.5,4.51 4.51,3.5 4.51,2.26C4.51,1.01 3.5,0 2.26,0Z " /><path id="路径 68" fill-rule="evenodd" style="fill:#FFFFFF" transform="translate(0.5057983398442047 22.507904052734375)  rotate(0 2.498626708984375 1.2246856689453125)" opacity="1" d="M0 0L4.92 0.05L5 2.45L0.08 2.45L0 0Z" /><path id="路径 69" fill-rule="evenodd" style="fill:#FFFFFF" transform="translate(27.856628417969205 22.957855224609375)  rotate(0 2.5 1.2247161865234375)" opacity="1" d="M4.47 0.05L4.68 0.95L5 2.45L0.08 2.45L0 0L4.47 0.05Z" /><path id="椭圆 27" fill-rule="evenodd" style="fill:#FFFFFF" transform="translate(13.07501602172897 16.043611526489258)  rotate(0 3.8764514923095703 3.8764514923095703)" opacity="1" d="M3.88,0C1.74,0 0,1.74 0,3.88C0,6.02 1.74,7.75 3.88,7.75C6.02,7.75 7.75,6.02 7.75,3.88C7.75,1.74 6.02,0 3.88,0Z " /></g></g></svg>