<svg xmlns="http://www.w3.org/2000/svg" xmlns:xlink="http://www.w3.org/1999/xlink" width="675.0985851473652" height="395.4059206315334" viewBox="0 0 675.0985851473652 395.4059206315334" fill="none"><defs><path id="path_0"
        transform="translate(0 0.07313537870702737) rotate(0 14.70783754870408 14.728417602265429)"
        d="M0,29.46L29.42,29.46L29.42,0L0,0L0,29.46Z" /><path id="path_1"
        transform="translate(0.10989788405731815 0.28054576488159455) rotate(0 99.22910252247321 49.10881059313)"
        d="M189.43,98.22L198.46,75.76L9.03,0L0,22.46L189.43,98.22Z" /><linearGradient id="linear_0" x1="2.2740771067755987%" y1="11.436100892204884%" x2="97.72581140864311%" y2="88.56372944932816%" gradientUnits="objectBoundingBox"><stop offset="0" stop-color="#D4EEFF" stop-opacity="1" /><stop offset="1" stop-color="#D4EEFF" stop-opacity="1" /></linearGradient><path id="path_2"
        transform="translate(0.16807911679364906 0.25636078515040595) rotate(0 82.54906834423876 40.7172272509068)"
        d="M157.72,81.43L165.1,63.07L7.38,0L0,18.36L157.72,81.43Z" /><linearGradient id="linear_1" x1="2.2345678891493623%" y1="11.27440822852165%" x2="97.7654494863223%" y2="88.7249170168639%" gradientUnits="objectBoundingBox"><stop offset="0" stop-color="#D4EEFF" stop-opacity="1" /><stop offset="1" stop-color="#D4EEFF" stop-opacity="1" /></linearGradient><path id="path_3"
        transform="translate(0.2153937100566612 0.3083584915724286) rotate(0 64.15563532752456 64.00415725548132)"
        d="M0,128.01L128.31,128.01L128.31,0L0,0L0,128.01Z" /><path id="path_4"
        transform="translate(0.3472692328943481 0.11951410817158603) rotate(0 251.74514359540348 0.9479504347131565)"
        d="M0,1.9L503.49,1.9L503.49,0L0,0L0,1.9Z" /><linearGradient id="linear_2" x1="52.03988014427764%" y1="-25.777137977204056%" x2="49.49622623550315%" y2="68.74055178865697%" gradientUnits="objectBoundingBox"><stop offset="0" stop-color="#151686" stop-opacity="1" /><stop offset="1" stop-color="#2438B6" stop-opacity="1" /></linearGradient><linearGradient id="linear_3" x1="52.040288559083145%" y1="-25.777137977204056%" x2="49.496602792911226%" y2="68.74055178865697%" gradientUnits="objectBoundingBox"><stop offset="0" stop-color="#151686" stop-opacity="1" /><stop offset="1" stop-color="#2438B6" stop-opacity="1" /></linearGradient><path id="path_5"
        transform="translate(0.2727245284510218 0.34826370812888285) rotate(0 78.01133622715116 110.44252381587376)"
        d="M78.14,220.89C93.99,220.89 107.76,216.49 119.45,207.7C131.14,198.91 140.16,186.18 146.51,169.53C152.86,152.85 156.02,133.22 156.02,110.6C156.02,87.78 152.89,68.08 146.63,51.51C140.37,34.94 131.39,22.22 119.7,13.34C108.01,4.44 94.16,0 78.14,0L45.32,0L45.32,7.69C42.24,9.3 39.29,11.2 36.45,13.34C24.67,22.22 15.65,34.94 9.39,51.51C3.14,68.08 0,87.78 0,110.6C0,133.22 3.17,152.85 9.52,169.53C15.85,186.18 24.92,198.91 36.7,207.7C39.46,209.77 42.33,211.59 45.32,213.18L45.32,220.89L78.14,220.89Z" /><linearGradient id="linear_4" x1="51.63277387611351%" y1="94.26860245369888%" x2="49.39610607002278%" y2="33.69950019069724%" gradientUnits="objectBoundingBox"><stop offset="0" stop-color="#151686" stop-opacity="1" /><stop offset="1" stop-color="#2438B6" stop-opacity="1" /></linearGradient><path id="path_6"
        transform="translate(0.34706721472514346 0.01652640237850278) rotate(0 8.034060571829311 35.94653845743537)"
        d="M2.55,71.89L16.07,61.54L12.54,0L0,36.63L2.55,71.89Z" /></defs><g opacity="1" transform="translate(0 0)  rotate(0 337.5492925736826 197.7029603157667)"><g opacity="1" transform="translate(0 19.345275496052828)  rotate(0 329.2435897435898 136.08)"><path id="Fill 1" fill-rule="evenodd" style="fill:#C3E4FF" transform="translate(147.97823533126504 0.19825127451169)  rotate(0 14.70787778748428 14.728417602265452)" opacity="1" d="M14.71,0C6.59,0 0,6.59 0,14.73C0,22.86 6.59,29.46 14.71,29.46C22.83,29.46 29.42,22.86 29.42,14.73C29.42,6.59 22.83,0 14.71,0Z " /><path id="Fill 3" fill-rule="evenodd" style="fill:#C3E4FF" transform="translate(559.0252228292388 155.20838423182096)  rotate(0 14.707877787484584 14.728216127393058)" opacity="1" d="M14.71,0C6.59,0 0,6.6 0,14.73C0,22.86 6.59,29.46 14.71,29.46C22.83,29.46 29.42,22.86 29.42,14.73C29.42,6.6 22.83,0 14.71,0Z " /><path id="Fill 5" fill-rule="evenodd" style="fill:#D6EEFF" transform="translate(628.987665867962 0.19825127451169)  rotate(0 14.707877787484449 14.728417602265452)" opacity="1" d="M14.71,0C6.59,0 0,6.59 0,14.73C0,22.86 6.59,29.46 14.71,29.46C22.83,29.46 29.42,22.86 29.42,14.73C29.42,6.59 22.83,0 14.71,0Z " /><g opacity="1" transform="translate(0 134.585214810792)  rotate(0 14.752991452991452 15.119999999999994)"><mask id="mask-0" fill="white"><use xlink:href="#path_0"></use></mask><g mask="url(#mask-0)"></g><g mask="url(#mask-0)"><path id="Fill 7" fill-rule="evenodd" style="fill:#D6EEFF" transform="translate(-0.00008047756063049447 0.07313537870702737)  rotate(0 14.707877787484371 14.728417602265429)" opacity="1" d="M14.71,0C6.59,0 0,6.59 0,14.73C0,22.86 6.59,29.46 14.71,29.46C22.83,29.46 29.42,22.86 29.42,14.73C29.42,6.59 22.83,0 14.71,0Z " /></g></g><path id="Fill 10" fill-rule="evenodd" style="fill:#C3E4FF" transform="translate(287.33490959185843 242.19850490416414)  rotate(0 14.70727420577998 14.727813177648024)" opacity="1" d="M14.66,0C9.99,0.01 5.84,2.21 3.15,5.62C1.17,8.12 0,11.29 0,14.73C0,22.86 6.58,29.46 14.71,29.46C15.32,29.46 15.92,29.42 16.51,29.35C23.11,28.54 28.35,23.36 29.27,16.8C29.37,16.13 29.41,15.43 29.41,14.73C29.41,6.59 22.83,0 14.66,0Z " /><path id="Fill 12" fill-rule="evenodd" style="fill:#D6EEFF" transform="translate(303.4987069287647 258.5985192283488)  rotate(0 6.552885374585912 6.47338765250106)" opacity="1" d="M10.26,0C4.59,0 0,4.61 0,10.28C0,11.2 0.12,12.1 0.35,12.95C6.94,12.14 12.18,6.96 13.11,0.4C12.2,0.14 11.25,0 10.26,0Z " /><path id="Fill 14" fill-rule="evenodd" style="fill:#D6EEFF" transform="translate(290.48146149628917 242.1983840192409)  rotate(0 5.780300792504204 3.7957865973579827)" opacity="1" d="M11.51,0C6.84,0.02 2.69,2.21 0,5.62C1.23,6.83 2.92,7.59 4.78,7.59C5.86,7.59 6.88,7.34 7.79,6.89C9.03,6.27 10.05,5.29 10.72,4.09C11.25,3.11 11.56,1.99 11.56,0.81C11.56,0.53 11.54,0.26 11.51,0Z " /><path id="Fill 16" fill-rule="evenodd" style="fill:#D6EEFF" transform="translate(298.26348065443125 246.26499314017508)  rotate(0 2.618136241310708 2.621792515468178)" opacity="1" d="M2.62,0C1.17,0 0,1.17 0,2.62C0,4.07 1.17,5.24 2.62,5.24C4.06,5.24 5.24,4.07 5.24,2.62C5.24,1.17 4.06,0 2.62,0Z " /></g><g opacity="1" transform="translate(4.538585147365238 0)  rotate(0 335.28 197.7029603157667)"><g opacity="1" transform="translate(153.71792796890568 139.06363345423523)  rotate(0 99.3981471844638 49.31999999999999)"><mask id="mask-1" fill="white"><use xlink:href="#path_1"></use></mask><g mask="url(#mask-1)"></g><g mask="url(#mask-1)"><path id="Fill 19" fill-rule="evenodd" fill="url(#linear_0)" transform="translate(0.10989788405731815 0.28054576488159455)  rotate(0 99.22910252247321 49.10881059313)" opacity="1" d="M189.43,98.22L198.46,75.76L9.03,0L0,22.46L189.43,98.22Z " /></g></g><g opacity="1" transform="translate(287.857992332974 136.24205248559892)  rotate(0 82.77154801906255 41.04)"><mask id="mask-2" fill="white"><use xlink:href="#path_2"></use></mask><g mask="url(#mask-2)"></g><g mask="url(#mask-2)"><path id="Fill 22" fill-rule="evenodd" fill="url(#linear_1)" transform="translate(0.16807911679364906 0.25636078515040595)  rotate(0 82.54906834423876 40.7172272509068)" opacity="1" d="M157.72,81.43L165.1,63.07L7.38,0L0,18.36L157.72,81.43Z " /></g></g><g opacity="1" transform="translate(0 0)  rotate(0 335.28 155.74403412897382)"><path id="Fill 25" fill-rule="evenodd" style="fill:#D6EEFF" transform="translate(439.51701564758076 198.85662630077385)  rotate(0 9.917884751312187 9.894370676912116)" opacity="1" d="M13.61,0.71C8.52,-1.32 2.75,1.14 0.71,6.21C-1.32,11.29 1.15,17.04 6.23,19.08C11.31,21.11 17.08,18.64 19.12,13.58C21.16,8.5 18.69,2.74 13.61,0.71Z " /><path id="Fill 27" fill-rule="evenodd" style="fill:#D6EEFF" transform="translate(335.6399448550329 214.22500884783727)  rotate(0 12.132947840069116 12.104319571194154)" opacity="1" d="M16.65,0.87C10.43,-1.61 3.37,1.4 0.87,7.6C-1.62,13.81 1.4,20.85 7.62,23.34C13.84,25.82 20.9,22.81 23.39,16.61C25.88,10.4 22.86,3.36 16.65,0.87Z " /><path id="Fill 29" fill-rule="evenodd" style="fill:#AAD5FF" transform="translate(340.78642803143015 219.35965924622948)  rotate(0 6.986320610755037 6.969749789401067)" opacity="1" d="M9.59,0.5C6,-0.93 1.94,0.81 0.5,4.38C-0.93,7.95 0.81,12.01 4.39,13.44C7.97,14.87 12.03,13.13 13.47,9.56C14.9,5.99 13.17,1.93 9.59,0.5Z " /><path id="Fill 31" fill-rule="evenodd" style="fill:#AAD5FF" transform="translate(444.101642278309 203.43027405406545)  rotate(0 5.3333100535856115 5.320725855258456)" opacity="1" d="M7.32,0.38C4.58,-0.71 1.48,0.62 0.38,3.34C-0.71,6.07 0.62,9.17 3.35,10.26C6.08,11.35 9.19,10.03 10.28,7.3C11.38,4.57 10.05,1.48 7.32,0.38Z " /><path id="Fill 33" fill-rule="evenodd" style="fill:#D6EEFF" transform="translate(150.16515563768243 193.60257662150644)  rotate(0 5.059343030020775 15.312719916791309)" opacity="1" d="M5.06,0C5.06,8.46 2.79,15.31 0,15.31C2.79,15.31 5.06,22.17 5.06,30.63C5.06,22.17 7.32,15.31 10.12,15.31C7.32,15.31 5.06,8.46 5.06,0Z " /><path id="Fill 35" fill-rule="evenodd" style="fill:#C3E4FF" transform="translate(61.73093439127353 238.07359488478795)  rotate(0 3.648650154336519 3.640040991039109)" opacity="1" d="M3.65,0C1.63,0 0,1.63 0,3.64C0,5.65 1.63,7.28 3.65,7.28C5.66,7.28 7.3,5.65 7.3,3.64C7.3,1.63 5.66,0 3.65,0Z " /><path id="Fill 37" fill-rule="evenodd" style="fill:#C3E4FF" transform="translate(226.6548910142469 229.659237353318)  rotate(0 3.6486501543364405 3.640040991039063)" opacity="1" d="M3.65,0C1.63,0 0,1.63 0,3.64C0,5.65 1.63,7.28 3.65,7.28C5.66,7.28 7.3,5.65 7.3,3.64C7.3,1.63 5.66,0 3.65,0Z " /><path id="Fill 39" fill-rule="evenodd" style="fill:#AAD5FF" transform="translate(188.79135282218976 108.13507520802216)  rotate(0 6.172059106101012 6.15749583955626)" opacity="1" d="M6.17,0C2.76,0 0,2.76 0,6.16C0,9.56 2.76,12.31 6.17,12.31C9.58,12.31 12.34,9.56 12.34,6.16C12.34,2.76 9.58,0 6.17,0Z " /><path id="Fill 41" fill-rule="evenodd" style="fill:#D6EEFF" transform="translate(240.69438610620173 19.50615355237893)  rotate(0 3.648650154336646 3.639839449541282)" opacity="1" d="M3.65,0C1.63,0 0,1.63 0,3.64C0,5.65 1.63,7.28 3.65,7.28C5.66,7.28 7.3,5.65 7.3,3.64C7.3,1.63 5.66,0 3.65,0Z " /><path id="Fill 43" fill-rule="evenodd" style="fill:#D6EEFF" transform="translate(151.57576770609904 56.11999590889686)  rotate(0 3.6486501543365306 3.639839449541335)" opacity="1" d="M3.65,0C1.63,0 0,1.63 0,3.64C0,5.65 1.63,7.28 3.65,7.28C5.66,7.28 7.3,5.65 7.3,3.64C7.3,1.63 5.66,0 3.65,0Z " /><path id="Fill 45" fill-rule="evenodd" style="fill:#D6EEFF" transform="translate(0 21.779985038404135)  rotate(0 3.6486501543365066 3.640040991039034)" opacity="1" d="M3.65,0C1.63,0 0,1.63 0,3.64C0,5.65 1.63,7.28 3.65,7.28C5.66,7.28 7.3,5.65 7.3,3.64C7.3,1.63 5.66,0 3.65,0Z " /><path id="Fill 47" fill-rule="evenodd" style="fill:#D6EEFF" transform="translate(620.007134948173 10.860345764881577)  rotate(0 3.6486501543367824 3.6398394495412667)" opacity="1" d="M3.65,0C1.63,0 0,1.63 0,3.64C0,5.65 1.63,7.28 3.65,7.28C5.66,7.28 7.3,5.65 7.3,3.64C7.3,1.63 5.66,0 3.65,0Z " /><path id="Fill 49" fill-rule="evenodd" style="fill:#D6EEFF" transform="translate(663.2626996913274 73.58775875293364)  rotate(0 3.64865015433628 3.639839449541239)" opacity="1" d="M3.65,0C1.63,0 0,1.63 0,3.64C0,5.65 1.63,7.28 3.65,7.28C5.66,7.28 7.3,5.65 7.3,3.64C7.3,1.63 5.66,0 3.65,0Z " /><path id="Fill 51" fill-rule="evenodd" style="fill:#D6EEFF" transform="translate(474.09122948192737 123.5210756133988)  rotate(0 3.648650154336599 3.639839449541398)" opacity="1" d="M3.65,0C1.63,0 0,1.63 0,3.64C0,5.65 1.63,7.28 3.65,7.28C5.66,7.28 7.3,5.65 7.3,3.64C7.3,1.63 5.66,0 3.65,0Z " /><path id="Fill 53" fill-rule="evenodd" style="fill:#D6EEFF" transform="translate(485.8386668295121 18.14026651376146)  rotate(0 3.648650154336508 3.6400409910389984)" opacity="1" d="M3.65,0C1.63,0 0,1.63 0,3.64C0,5.65 1.63,7.28 3.65,7.28C5.66,7.28 7.3,5.65 7.3,3.64C7.3,1.63 5.66,0 3.65,0Z " /><path id="Fill 55" fill-rule="evenodd" style="fill:#C3E4FF" transform="translate(642.0721250415827 241.23328187006612)  rotate(0 3.648650154335869 3.6400409910392226)" opacity="1" d="M3.65,0C1.63,0 0,1.63 0,3.64C0,5.65 1.63,7.28 3.65,7.28C5.66,7.28 7.3,5.65 7.3,3.64C7.3,1.63 5.66,0 3.65,0Z " /><path id="Fill 57" fill-rule="evenodd" style="fill:#E8F6FF" transform="translate(296.5876418650723 7.085594436739912)  rotate(0 6.057716822320616 18.33443159270325)" opacity="1" d="M6.06,0C6.06,10.12 3.35,18.33 0,18.33C3.35,18.33 6.06,26.54 6.06,36.67C6.06,26.54 8.77,18.33 12.12,18.33C8.77,18.33 6.06,10.12 6.06,0Z " /><path id="Fill 59" fill-rule="evenodd" style="fill:#E8F6FF" transform="translate(485.8065863442397 226.3292074941327)  rotate(0 7.329623215748619 22.183874199914797)" opacity="1" d="M7.33,0C7.33,12.25 4.05,22.18 0,22.18C4.05,22.18 7.33,32.12 7.33,44.37C7.33,32.12 10.61,22.18 14.66,22.18C10.61,22.18 7.33,12.25 7.33,0Z " /><path id="Fill 61" fill-rule="evenodd" style="fill:#D6EEFF" transform="translate(197.82269628820524 270.69687527736295)  rotate(0 6.738518052602316 20.395596490292338)" opacity="1" d="M6.74,0C6.74,11.26 3.72,20.4 0,20.4C3.72,20.4 6.74,29.53 6.74,40.79C6.74,29.53 9.76,20.4 13.48,20.4C9.76,20.4 6.74,11.26 6.74,0Z " /><path id="Fill 63" fill-rule="evenodd" style="fill:#D6EEFF" transform="translate(655.4194250785113 149.19504393001927)  rotate(0 5.746002787209275 17.391418924685343)" opacity="1" d="M5.75,0C5.75,9.6 3.17,17.39 0,17.39C3.17,17.39 5.75,25.18 5.75,34.78C5.75,25.18 8.32,17.39 11.49,17.39C8.32,17.39 5.75,9.6 5.75,0Z " /><path id="Fill 65" fill-rule="evenodd" style="fill:#D6EEFF" transform="translate(374.9002275861681 300.4171519362069)  rotate(0 3.12118071449614 3.1142192233837704)" opacity="1" d="M3.12,0C1.4,0 0,1.39 0,3.11C0,4.83 1.4,6.23 3.12,6.23C4.84,6.23 6.24,4.83 6.24,3.11C6.24,1.39 4.84,0 3.12,0Z " /><path id="Fill 67" fill-rule="evenodd" style="fill:#D6EEFF" transform="translate(331.2428487044312 81.63809203115)  rotate(0 4.420561578937393 4.409929512481397)" opacity="1" d="M4.42,0C1.98,0 0,1.97 0,4.41C0,6.85 1.98,8.82 4.42,8.82C6.86,8.82 8.84,6.85 8.84,4.41C8.84,1.97 6.86,0 4.42,0Z " /><path id="Fill 69" fill-rule="evenodd" style="fill:#C3E4FF" transform="translate(265.4102990197885 61.23661052912317)  rotate(0 2.7256291391569296 2.719197887774669)" opacity="1" d="M2.73,0C1.22,0 0,1.22 0,2.72C0,4.22 1.22,5.44 2.73,5.44C4.23,5.44 5.45,4.22 5.45,2.72C5.45,1.22 4.23,0 2.73,0Z " /><path id="Fill 71" fill-rule="evenodd" style="fill:#D6EEFF" transform="translate(369.3232736029652 21.757613932152776)  rotate(0 7.9972932650307 7.978624813313432)" opacity="1" d="M8,0C3.58,0 0,3.57 0,7.98C0,12.38 3.58,15.96 8,15.96C12.41,15.96 15.99,12.38 15.99,7.98C15.99,3.57 12.41,0 8,0Z " /><path id="Fill 73" fill-rule="evenodd" style="fill:#AAD5FF" transform="translate(586.5912691733635 302.62705445914247)  rotate(0 4.027636239798788 4.018334382334)" opacity="1" d="M4.03,0C1.8,0 0,1.8 0,4.02C0,6.24 1.8,8.04 4.03,8.04C6.25,8.04 8.06,6.24 8.06,4.02C8.06,1.8 6.25,0 4.03,0Z " /><path id="Fill 75" fill-rule="evenodd" style="fill:#AAD5FF" transform="translate(128.05782253600424 295.3640228877752)  rotate(0 2.5327017875486266 2.526725757414192)" opacity="1" d="M2.53,0C1.13,0 0,1.13 0,2.53C0,3.92 1.13,5.05 2.53,5.05C3.93,5.05 5.07,3.92 5.07,2.53C5.07,1.13 3.93,0 2.53,0Z " /><path id="Fill 77" fill-rule="evenodd" style="fill:#AAD5FF" transform="translate(400.3256687137013 137.14826367612542)  rotate(0 2.5324997693798497 2.526725757414215)" opacity="1" d="M2.53,0C1.13,0 0,1.13 0,2.53C0,3.92 1.13,5.05 2.53,5.05C3.93,5.05 5.06,3.92 5.06,2.53C5.06,1.13 3.93,0 2.53,0Z " /><path id="Fill 79" fill-rule="evenodd" style="fill:#D6EEFF" transform="translate(289.5575711906472 164.05993863878834)  rotate(0 2.532499769379712 2.5265242159163903)" opacity="1" d="M2.53,0C1.13,0 0,1.13 0,2.53C0,3.92 1.13,5.05 2.53,5.05C3.93,5.05 5.06,3.92 5.06,2.53C5.06,1.13 3.93,0 2.53,0Z " /><path id="Fill 81" fill-rule="evenodd" style="fill:#D6EEFF" transform="translate(205.14532967529888 120.61142101024126)  rotate(0 2.532701787548707 2.5265242159162766)" opacity="1" d="M2.53,0C1.13,0 0,1.13 0,2.53C0,3.92 1.13,5.05 2.53,5.05C3.93,5.05 5.07,3.92 5.07,2.53C5.07,1.13 3.93,0 2.53,0Z " /><path id="Fill 83" fill-rule="evenodd" style="fill:#D6EEFF" transform="translate(7.974990459148486 257.55334650096006)  rotate(0 2.532701787548679 2.5267257574141695)" opacity="1" d="M2.53,0C1.13,0 0,1.13 0,2.53C0,3.92 1.13,5.05 2.53,5.05C3.93,5.05 5.07,3.92 5.07,2.53C5.07,1.13 3.93,0 2.53,0Z " /><path id="Fill 85" fill-rule="evenodd" style="fill:#D6EEFF" transform="translate(179.02955205989778 164.05993863878834)  rotate(0 2.5327017875486497 2.5265242159163903)" opacity="1" d="M2.53,0C1.13,0 0,1.13 0,2.53C0,3.92 1.13,5.05 2.53,5.05C3.93,5.05 5.07,3.92 5.07,2.53C5.07,1.13 3.93,0 2.53,0Z " /><path id="Fill 87" fill-rule="evenodd" style="fill:#D6EEFF" transform="translate(69.02831550721429 180.9104201834865)  rotate(0 3.074716535573978 3.06746159590341)" opacity="1" d="M3.07,0C1.38,0 0,1.37 0,3.07C0,4.76 1.38,6.13 3.07,6.13C4.77,6.13 6.15,4.76 6.15,3.07C6.15,1.37 4.77,0 3.07,0Z " /><g opacity="1" transform="translate(10.285027820579582 0)  rotate(0 64.33770981394385 64.44)"><mask id="mask-3" fill="white"><use xlink:href="#path_3"></use></mask><g mask="url(#mask-3)"></g><g mask="url(#mask-3)"><path id="Fill 89" fill-rule="evenodd" style="fill:#D6EEFF" transform="translate(0.2153937100566612 0.3082397737320464)  rotate(0 64.15563532752456 64.00421661440149)" opacity="1" d="M127.79,72.15C132.29,37.08 107.46,5.02 72.32,0.52C37.17,-3.97 5.04,20.8 0.53,55.86C-3.98,90.92 20.85,122.98 56,127.48C91.14,131.98 123.27,107.21 127.79,72.15Z " /></g></g><path id="Fill 92" fill-rule="evenodd" style="fill:#E8F6FF" transform="translate(89.0162624665423 18.005092362363616)  rotate(0 9.715111161735349 9.692147450389733)" opacity="1" d="M19.35,10.92C20.03,5.62 16.27,0.76 10.95,0.08C5.63,-0.6 0.76,3.15 0.08,8.46C-0.6,13.77 3.16,18.62 8.48,19.3C13.8,19.99 18.67,16.23 19.35,10.92Z " /><path id="Fill 94" fill-rule="evenodd" style="fill:#E8F6FF" transform="translate(94.8227942440989 44.431613867295376)  rotate(0 3.8732227334290443 3.863892609057845)" opacity="1" d="M7.71,4.36C7.99,2.24 6.49,0.3 4.37,0.03C2.24,-0.24 0.3,1.26 0.03,3.37C-0.24,5.49 1.26,7.42 3.38,7.7C5.5,7.97 7.44,6.47 7.71,4.36Z " /><path id="Fill 96" fill-rule="evenodd" style="fill:#E8F6FF" transform="translate(51.50270489769521 95.40646379618711)  rotate(0 3.873222733429068 3.8639296934562024)" opacity="1" d="M7.71,4.36C7.99,2.24 6.49,0.3 4.37,0.03C2.24,-0.24 0.3,1.26 0.03,3.37C-0.24,5.49 1.26,7.42 3.38,7.7C5.5,7.97 7.44,6.47 7.71,4.36Z " /><path id="Fill 98" fill-rule="evenodd" style="fill:#C3E4FF" transform="translate(10.499921405623692 0.31131003856273426)  rotate(0 36.56414402086516 43.89047345842292)" opacity="1" d="M60.08,66.11C32.38,74.57 24.72,48.08 56.9,37.56C76.87,31.05 74.58,13.02 69.97,0.27C35.76,-2.86 4.94,21.58 0.53,55.86C-0.91,67.07 0.64,77.98 4.59,87.78C5.93,85.91 6.96,84.09 7.49,82.64C9.83,76.13 9.21,62.76 23.88,74.67C43.91,90.93 60.08,66.11 60.08,66.11Z " /><path id="Fill 100" fill-rule="evenodd" style="fill:#C3E4FF" transform="translate(27.516935233497954 44.28781704181785)  rotate(0 55.647427510803354 42.01529399585224)" opacity="1" d="M45.9,60.7C45.9,60.7 29.76,75.69 15.15,63.19C10.28,59.03 3.54,58.55 0,63.43C9.86,74.11 23.42,81.51 38.98,83.5C74.12,88 106.26,63.22 110.77,28.17C112.03,18.37 110.99,8.8 108.08,0C105.99,3.44 101.85,6.69 94.02,2.39C80.68,-4.94 77.95,15.59 88.77,22.79C94.88,26.85 100.27,34.28 92.72,39.7C84.44,45.65 70.23,19.44 57.08,29.08C39.43,42.02 70.38,61.45 58.57,67.25C51.18,70.88 45.9,60.7 45.9,60.7Z " /><path id="Fill 102" fill-rule="evenodd" style="fill:#D6EEFF" transform="translate(481.3888293176447 21.75773904681939)  rotate(0 64.4427287860476 64.29047780209409)" opacity="1" d="M75.36,0.94C40.29,-5.08 6.97,18.41 0.94,53.4C-5.09,88.39 18.46,121.62 53.53,127.64C88.6,133.66 121.91,110.17 127.94,75.18C133.98,40.19 110.43,6.96 75.36,0.94Z " /><path id="Fill 104" fill-rule="evenodd" style="fill:#E8F6FF" transform="translate(495.11453308755546 39.18518940153618)  rotate(0 57.57093584699969 24.214872890557384)" opacity="1" d="M113.81,33.75C99.56,34.27 80.08,31.87 61.95,19.17C40.59,4.23 19.41,0.62 6.62,0C4.24,2.22 2.03,4.63 0,7.2C12.21,14.25 14.73,26.56 40.02,39.27C66.97,52.8 101.31,48.1 115.14,45.37C115.05,41.42 114.6,37.53 113.81,33.75Z " /><path id="Fill 106" fill-rule="evenodd" style="fill:#E8F6FF" transform="translate(481.38830974754416 62.5478798218477)  rotate(0 22.004110829648933 14.679746372554849)" opacity="1" d="M4.46,0C2.89,4 1.7,8.21 0.94,12.61C0.29,16.4 -0.01,20.16 0,23.88C25.54,33.88 43.06,27.21 44.01,26.83C34.26,30.38 13.55,9.78 4.46,0Z " /><path id="Fill 108" fill-rule="evenodd" style="fill:#E8F6FF" transform="translate(483.7608291517863 94.48132130016967)  rotate(0 61.09837509980265 16.564072260092384)" opacity="1" d="M62.08,1.56C40.14,7.48 13.81,8.68 0,8.87C1.65,14.74 4.13,20.32 7.32,25.45C16.95,26.3 28.81,26.1 41.68,23.16C64.59,17.93 95.14,27.18 111.24,33.13C115.83,27.73 119.57,21.53 122.2,14.7C106.31,8.65 84.57,-4.51 62.08,1.56Z " /><path id="Fill 110" fill-rule="evenodd" style="fill:#E8F6FF" transform="translate(527.986404336281 130.8007897914752)  rotate(0 27.989819364014934 6.258390027987696)" opacity="1" d="M0,1.22C10.96,-0.7 31.25,6.16 47.11,12.52C50.21,10.94 53.18,9.11 55.98,7.06C24.17,-3.65 1.35,0.93 0,1.22Z " /><path id="Fill 112" fill-rule="evenodd" style="fill:#E8F6FF" transform="translate(543.0410368631855 29.162461956679532)  rotate(0 30.757328802349576 15.20736824824442)" opacity="1" d="M40.84,5C12.28,-1.02 -8.14,-3.01 3.17,7.12C23.71,25.53 49.17,29.58 61.51,30.41C56.94,20.36 49.83,11.57 40.84,5Z " /><path id="Fill 114" fill-rule="evenodd" style="fill:#E8F6FF" transform="translate(499.89395974230007 131.12035901962872)  rotate(0 26.593671796515213 9.609337666533747)" opacity="1" d="M0,0C9.14,9.29 21.18,15.91 35.02,18.28C41.18,19.34 47.28,19.48 53.19,18.82C33.59,4.08 11.16,0.72 0,0Z " /><path id="Fill 116" fill-rule="evenodd" style="fill:#E8F6FF" transform="translate(515.1381295809658 25.032945428845725)  rotate(0 8.393854931215795 4.6052232238105555)" opacity="1" d="M10.38,0C6.78,1.2 3.31,2.71 0,4.5C6.4,8.09 14.74,9.03 16.79,9.21C15.26,8.66 12.71,4.45 10.38,0Z " /><path id="Fill 118" fill-rule="evenodd" style="fill:#E8F6FF" transform="translate(531.9342838028699 34.06959381582046)  rotate(0 0.23211887643749096 0.2015414977597544)" opacity="1" d="M0,0.17C0.17,0.23 0.32,0.25 0.46,0.21C0.46,0.21 0.3,0.2 0,0.17Z " /><path  id="Stroke 120" style="stroke:#AAD5FF; stroke-width:14.111999626159673; stroke-opacity:1; stroke-dasharray:0 0" transform="translate(419.4428141434328 59.75716768253591)  rotate(0 120.79758391020871 30.95874555779197)" d="M207.27,27.14C235.13,36.08 242.66,45.94 241.48,52.89C239.37,65.07 191.14,64.78 121.81,52.89C52.48,41 -2.03,21.48 0.06,9.3C1.29,2.16 21.69,-0.88 52.28,0.22 " /></g><g opacity="1" transform="translate(71.69855126437007 94.26579549818635)  rotate(0 254.65818499014867 150.57006256667353)"><g opacity="1" transform="translate(0 298.7401251333471)  rotate(0 251.9282635907607 1.2)"><mask id="mask-4" fill="white"><use xlink:href="#path_4"></use></mask><g mask="url(#mask-4)"></g><g mask="url(#mask-4)"><path id="Fill 123" fill-rule="evenodd" style="fill:#121274" transform="translate(0.3472692328943481 0.11951410817158603)  rotate(0 251.74514359540348 0.9480512054620428)" opacity="0.23" d="M251.75,0C112.73,0 0,0.42 0,0.95C0,1.47 112.73,1.9 251.75,1.9C390.76,1.9 503.49,1.47 503.49,0.95C503.49,0.42 390.76,0 251.75,0Z " /></g></g><path id="Fill 126" fill-rule="evenodd" style="fill:#2438B7" transform="translate(36.738943447626 4.5466955728612675)  rotate(0 73.5043108717865 105.89655379240432)" opacity="1" d="M87.6549 54.8423L42.5749 129.382L87.6549 129.382L87.6549 54.8423Z M147.01 164.84L147.01 129.38L121.21 129.38L121.21 0L83.65 0L0 136.95L0 164.84L82.15 164.84L82.15 211.79L121.21 211.79L121.21 164.84L147.01 164.84Z " /><path id="Fill 128" fill-rule="evenodd" style="fill:#2438B7" transform="translate(195.0172699722054 0.001894490079365596)  rotate(0 78.0119422816595 110.4415161083846)" opacity="1" d="M117.458 111.205C117.458 89.9951 114.078 73.3251 107.308 61.2051C100.548 49.0751 90.8182 43.0251 78.1382 43.0251C65.4482 43.0251 55.7282 49.0751 48.9582 61.2051C42.1982 73.3251 38.8182 89.9951 38.8182 111.205C38.8182 132.215 42.2382 148.665 49.0882 160.585C55.9282 172.505 65.6182 178.465 78.1382 178.465C90.6582 178.465 100.338 172.505 107.188 160.585C114.038 148.665 117.458 132.215 117.458 111.205Z M2.84217e-14 110.6C2.84217e-14 133.21 3.17 152.85 9.52 169.53C15.85 186.18 24.92 198.91 36.7 207.7C48.46 216.49 62.27 220.88 78.14 220.88C94 220.88 107.77 216.49 119.47 207.7C131.14 198.91 140.16 186.18 146.51 169.53C152.86 152.85 156.02 133.21 156.02 110.6C156.02 87.78 152.89 68.08 146.63 51.51C140.37 34.94 131.39 22.22 119.72 13.34C108.02 4.44 94.16 0 78.14 0C62.11 0 48.21 4.44 36.43 13.34C24.67 22.22 15.65 34.94 9.39 51.51C3.14 68.08 2.84217e-14 87.78 2.84217e-14 110.6Z " /><path id="Fill 130" fill-rule="evenodd" style="fill:#2438B7" transform="translate(362.3081522730623 4.5466955728612675)  rotate(0 73.50410885361751 105.89655379240432)" opacity="1" d="M87.6545 54.8423L42.5745 129.382L87.6545 129.382L87.6545 54.8423Z M121.21 129.38L121.21 0L83.65 0L5.68434e-14 136.95L5.68434e-14 164.84L82.15 164.84L82.15 211.79L121.21 211.79L121.21 164.84L147.01 164.84L147.01 129.38L121.21 129.38Z " /><path id="Fill 132" fill-rule="evenodd" style="fill:#2438B7" transform="translate(240.3446522516421 0)  rotate(0 16.6432668714365 110.44252381587368)" opacity="1" d="M33.29,220.89L33.29,0L0,0L0,220.89L33.29,220.89Z " /><path id="Fill 134" fill-rule="evenodd" style="fill:#2438B7" transform="translate(36.738943447626 4.5466955728612675)  rotate(0 73.5043108717865 105.89655379240432)" opacity="1" d="M87.6549 54.8423L42.5749 129.382L87.6549 129.382L87.6549 54.8423Z M121.21 129.38L121.21 0L83.65 0L0 136.95L0 164.84L82.15 164.84L82.15 211.79L121.21 211.79L121.21 164.84L147.01 164.84L147.01 129.38L121.21 129.38Z " /><path id="Fill 135" fill-rule="evenodd" style="fill:#2438B7" transform="translate(362.3081522730623 4.5466955728612675)  rotate(0 73.50410885361751 105.89655379240432)" opacity="1" d="M87.6545 54.8423L42.5745 129.382L87.6545 129.382L87.6545 54.8423Z M121.21 129.38L121.21 0L83.65 0L5.68434e-14 136.95L5.68434e-14 164.84L82.15 164.84L82.15 211.79L121.21 211.79L121.21 164.84L147.01 164.84L147.01 129.38L121.21 129.38Z " /></g><path id="Fill 137" fill-rule="evenodd" fill="url(#linear_2)" transform="translate(522.9586569479258 263.6416732984849)  rotate(0 16.130342739779483 23.482002986985485)" opacity="1" d="M32.26,46.96L32.26,0L0,0L0,46.96L32.26,46.96Z " /><path id="Fill 139" fill-rule="evenodd" fill="url(#linear_3)" transform="translate(197.3865794644868 263.6416732984849)  rotate(0 16.130140721610115 23.482002986985485)" opacity="1" d="M32.26,46.96L32.26,0L0,0L0,46.96L32.26,46.96Z " /><g opacity="1" transform="translate(266.44406639533696 93.91833795604835)  rotate(0 78.4341743237405 110.87999999999994)"><mask id="mask-5" fill="white"><use xlink:href="#path_5"></use></mask><g mask="url(#mask-5)"></g><g mask="url(#mask-5)"><path id="Fill 141" fill-rule="evenodd" fill="url(#linear_4)" transform="translate(0.2727245284510218 0.34826370812888285)  rotate(0 78.01133622715116 110.44252381587376)" opacity="1" d="M78.14,0L45.32,0L45.32,7.69C42.24,9.3 39.29,11.2 36.45,13.34C24.67,22.22 15.65,34.94 9.39,51.51C3.14,68.08 0,87.78 0,110.6C0,133.22 3.17,152.85 9.52,169.53C15.85,186.18 24.92,198.91 36.7,207.7C39.46,209.77 42.33,211.59 45.32,213.18L45.32,220.89L78.14,220.89C93.99,220.89 107.76,216.49 119.45,207.7C131.14,198.91 140.16,186.18 146.51,169.53C152.86,152.85 156.02,133.22 156.02,110.6C156.02,87.78 152.89,68.08 146.63,51.51C140.37,34.94 131.39,22.22 119.7,13.34C108.01,4.44 94.16,0 78.14,0Z " /></g></g><g opacity="1" transform="translate(76.17672842516966 94.2664807392785)  rotate(0 236.28881427542063 110.44272535737159)"><path id="Fill 144" fill-rule="evenodd" style="fill:#0D0D0F" transform="translate(197.09757227159665 43.02515955835298)  rotate(0 39.3187962758715 67.7199586622572)" opacity="1" d="M68.49,18.18C61.73,6.07 52,0 39.32,0C26.63,0 16.91,6.07 10.14,18.18C3.38,30.3 0,46.97 0,68.17C0,89.19 3.42,105.64 10.27,117.56C17.11,129.48 26.79,135.44 39.32,135.44C51.85,135.44 61.53,129.48 68.37,117.56C75.21,105.64 78.64,89.19 78.64,68.17C78.64,46.97 75.26,30.3 68.49,18.18Z " /><path id="Fill 146" fill-rule="evenodd" style="fill:#FFFFFF" transform="translate(227.76397076328138 51.471723421164995)  rotate(0 2.6630035066973847 6.523092116492409)" opacity="1" d="M2.66,0C2.66,3.6 1.47,6.52 0,6.52C1.47,6.52 2.66,9.44 2.66,13.05C2.66,9.44 3.85,6.52 5.33,6.52C3.85,6.52 2.66,3.6 2.66,0Z " /><path id="Fill 148" fill-rule="evenodd" style="fill:#FFFFFF" transform="translate(244.9166062465969 60.46361826861542)  rotate(0 4.379551890585142 10.727247759761049)" opacity="1" d="M4.38,0C4.38,5.92 2.42,10.73 0,10.73C2.42,10.73 4.38,15.53 4.38,21.45C4.38,15.53 6.34,10.73 8.76,10.73C6.34,10.73 4.38,5.92 4.38,0Z " /><path id="Fill 150" fill-rule="evenodd" style="fill:#FFFFFF" transform="translate(220.1187143599386 90.30095022935777)  rotate(0 3.2591591240746673 7.983058726264192)" opacity="1" d="M3.26,0C3.26,4.41 1.8,7.98 0,7.98C1.8,7.98 3.26,11.56 3.26,15.97C3.26,11.56 4.72,7.98 6.52,7.98C4.72,7.98 3.26,4.41 3.26,0Z " /><path id="Fill 152" fill-rule="evenodd" style="fill:#FFFFFF" transform="translate(262.03255523038115 94.77972631747394)  rotate(0 1.9801820947236617 4.850297685086435)" opacity="1" d="M1.98,0C1.98,2.68 1.09,4.85 0,4.85C1.09,4.85 1.98,7.02 1.98,9.7C1.98,7.02 2.87,4.85 3.96,4.85C2.87,4.85 1.98,2.68 1.98,0Z " /><path id="Fill 154" fill-rule="evenodd" style="fill:#FFFFFF" transform="translate(237.83178864831208 137.48153269682086)  rotate(0 3.8829912306352905 9.51054173778548)" opacity="1" d="M3.88,0C3.88,5.25 2.14,9.51 0,9.51C2.14,9.51 3.88,13.77 3.88,19.02C3.88,13.77 5.62,9.51 7.77,9.51C5.62,9.51 3.88,5.25 3.88,0Z " /><path id="Fill 156" fill-rule="evenodd" style="fill:#FFFFFF" transform="translate(207.44518532100145 116.62964625560062)  rotate(0 2.9745155236393424 7.285926685513073)" opacity="1" d="M2.97,0C2.97,4.02 1.64,7.29 0,7.29C1.64,7.29 2.97,10.55 2.97,14.57C2.97,10.55 4.31,7.29 5.95,7.29C4.31,7.29 2.97,4.02 2.97,0Z " /><path id="Fill 158" fill-rule="evenodd" style="fill:#285FD7" transform="translate(0 4.5460103317687555)  rotate(0 73.50431087178679 105.89655379240469)" opacity="1" d="M87.6549 54.8423L42.5749 129.382L87.6549 129.382L87.6549 54.8423Z M147.01 129.38L121.21 129.38L121.21 0L83.65 0L0 136.95L0 164.84L82.15 164.84L82.15 211.79L121.21 211.79L121.21 164.84L147.01 164.84L147.01 129.38Z " /><path id="Fill 160" fill-rule="evenodd" style="fill:#285FD7" transform="translate(158.27768006643825 0)  rotate(0 78.01315439067459 110.44272535737159)" opacity="1" d="M117.46 111.195C117.46 89.9951 114.08 73.3251 107.31 61.2051C100.55 49.0951 90.8198 43.0251 78.1398 43.0251C65.4498 43.0251 55.7298 49.0951 48.9598 61.2051C42.1998 73.3251 38.8198 89.9951 38.8198 111.195C38.8198 132.215 42.2398 148.665 49.0898 160.585C55.9298 172.505 65.6098 178.465 78.1398 178.465C90.6698 178.465 100.35 172.505 107.19 160.585C114.03 148.665 117.46 132.215 117.46 111.195Z M146.51 169.53C152.84 152.85 156.03 133.22 156.03 110.6C156.03 87.78 152.89 68.08 146.63 51.51C140.38 34.94 131.39 22.22 119.72 13.34C108.02 4.44 94.16 0 78.14 0C62.11 0 48.21 4.44 36.45 13.34C24.67 22.22 15.65 34.94 9.39 51.51C5.1 62.86 2.28 75.7 0.94 89.99C0.31 96.55 0 103.42 0 110.6C0 119.81 0.53 128.53 1.58 136.77C3.1 148.72 5.76 159.66 9.52 169.53C15.87 186.18 24.92 198.91 36.7 207.7C48.46 216.49 62.27 220.89 78.14 220.89C94.01 220.89 107.77 216.49 119.45 207.7C131.14 198.91 140.16 186.18 146.51 169.53Z " /><path id="Fill 162" fill-rule="evenodd" style="fill:#285FD7" transform="translate(325.56941084360597 4.5460103317687555)  rotate(0 73.50410885361767 105.89655379240469)" opacity="1" d="M87.6545 54.8423L42.5745 129.382L87.6545 129.382L87.6545 54.8423Z M121.21 164.84L147.01 164.84L147.01 129.38L121.21 129.38L121.21 0L83.65 0L-5.68434e-14 136.95L-5.68434e-14 164.84L82.15 164.84L82.15 211.79L121.21 211.79L121.21 164.84Z " /></g><g opacity="1" transform="translate(352.9078428227787 233.38505440580371)  rotate(0 8.313299582700619 36)"><mask id="mask-6" fill="white"><use xlink:href="#path_6"></use></mask><g mask="url(#mask-6)"></g><g mask="url(#mask-6)"></g></g></g><g opacity="1" transform="translate(197.1863247863248 117.98527549605282)  rotate(0 85.63931623931623 137.87999999999994)"><path id="Fill 168" fill-rule="evenodd" style="fill:#EF3C86" transform="translate(3.6947338682027238 252.19472799570983)  rotate(0 7.366240760773076 8.873473635057781)" opacity="1" d="M9.4,17.75L14.73,6.29L4.82,0L0,12.8L9.4,17.75Z " /><path id="Fill 170" fill-rule="evenodd" style="fill:#0B096F" transform="translate(0.05652298560614498 263.36600374511096)  rotate(0 21.358588084708536 6.128722118327756)" opacity="1" d="M0,12.16L42.72,12.26C42.72,12.26 35.15,3.87 15.42,1.46L4.2,0L0,12.16Z " /><path id="Fill 172" fill-rule="evenodd" style="fill:#131318" transform="translate(1.5624654126145783 125.70224153546206)  rotate(0 31.179707556743743 68.62906864147389)" opacity="1" d="M27.78,66.63L0,134.99L18.71,137.26L49.36,76.34L62.36,6.99L32.26,0L27.78,66.63Z " /><path id="Fill 174" fill-rule="evenodd" style="fill:#FF77CA" transform="translate(55.752884999562795 45.368871883089696)  rotate(0 25.14074618618638 13.944893924268886)" opacity="1" d="M1.55,27.89L49.51,8.1C49.51,8.1 50.85,6.36 49.99,3.35C49.14,0.33 46.59,0 46.59,0L0,9.38L1.55,27.89Z " /><path id="Fill 176" fill-rule="evenodd" style="fill:#FF77CA" transform="translate(47.80488672476527 55.709707095746104)  rotate(0 22.43910378187089 18.34947828388658)" opacity="1" d="M0,30.02L40.59,36.7L44.88,2.54L38.27,0L31.95,20.47L2.97,11.96L0,30.02Z " /><path id="Fill 178" fill-rule="evenodd" style="fill:#FE7A00" transform="translate(25.58325001526564 53.464155245293185)  rotate(0 18.751069231337606 8.794654757043505)" opacity="1" d="M0,8.23L37.5,17.59L31.24,0L0,8.23Z " /><path  id="Stroke 180" style="stroke:#0B096F; stroke-width:4.5359998798370365; stroke-opacity:1; stroke-dasharray:0 0" transform="translate(3.189597292792758 16.200484598571176)  rotate(0 4.075953124565555 4.261258982972953)" d="M5.52,0L8.15,6.75L5.79,8.52L0,4.54 " /><path id="Fill 182" fill-rule="evenodd" style="fill:#0B096F" transform="translate(47.2986269104647 15.155922802934297)  rotate(0 3.0174549982270116 8.34875358525981)" opacity="1" d="M0.94,16.7C12.93,9.8 0,0 0,0L0.94,16.7Z " /><path id="Fill 184" fill-rule="evenodd" style="fill:#FF77CA" transform="translate(7.432061245173372 17.138449405221152)  rotate(0 23.462198559611302 23.641228582482537)" opacity="1" d="M40.76,7.03L26.8,0L9.14,6.35L11.61,23.31C9.9,20.78 0.34,19.66 0.01,26.51C-0.42,35.33 16.07,35.32 16.07,35.32L18.77,47.28L33.44,45.37L30.6,34.84C30.6,34.84 44.49,32.12 46.92,29.85C46.92,29.85 45.41,15.92 40.76,7.03Z " /><path id="Fill 186" fill-rule="evenodd" style="fill:#0B096F" transform="translate(5.858821096628134 0.05115206350324707)  rotate(0 25.963974308346597 20.19888442623616)" opacity="1" d="M13.18,40.4C21.96,36.25 16.35,29.39 16.35,29.39C60.36,32.03 52.47,3.71 49.24,3.29C46.01,2.88 43.27,12.83 43.27,12.83C43.27,12.83 37.38,-2.43 27.27,0.34C20.17,2.27 20.58,13.79 20.58,13.79C20.58,13.79 9.98,10.81 2.7,24.25C-4.57,37.69 5.16,38.83 5.16,38.83C10.66,37.51 13.18,40.4 13.18,40.4Z " /><path id="Fill 188" fill-rule="evenodd" style="fill:#FFFFFF" transform="translate(38.88601825316013 41.80027257062462)  rotate(0 4.557505360959135 2.650923780596284)" opacity="1" d="M2.89,4.79C5.01,4.39 7.5,6.38 8.76,4.43C10.08,2.38 7.55,-0.41 3.78,0.05C1.24,0.36 -0.46,2.35 0.11,3.64C0.55,4.62 1.74,5 2.89,4.79Z " /><path id="Fill 190" fill-rule="evenodd" style="fill:#EF3C86" transform="translate(28.55213086603909 51.98280382080402)  rotate(0 5.284638402289724 2.065014287410736)" opacity="1" d="M0,0.56L10.57,4.13L9.48,0L0,0.56Z " /><path id="Fill 192" fill-rule="evenodd" style="fill:#285FD7" transform="translate(44.64702093063432 32.96491726142001)  rotate(0 2.591673161877486 3.9078843201624354)" opacity="1" d="M1.49,7.82L5.18,6.74L0,0L1.49,7.82Z " /><path id="Fill 194" fill-rule="evenodd" style="fill:#EF3C86" transform="translate(57.1592202063725 54.407441838080096)  rotate(0 4.9280100544977925 8.32295098580762)" opacity="1" d="M0,0L5.49,16.65L9.86,14.84L0,0Z " /><path id="Fill 196" fill-rule="evenodd" style="fill:#EF3C86" transform="translate(63.705737270994895 71.67135638313758)  rotate(0 1.8840326607473117 8.647499307042564)" opacity="1" d="M0.7,0L0,16.67L3.77,17.29L0.7,0Z " /><path id="Fill 198" fill-rule="evenodd" style="fill:#0B096F" transform="translate(37.860268192428684 32.81811597909584)  rotate(0 1.943988492375675 1.9536400118801027)" opacity="1" d="M1.1,0.19C0.13,0.66 -0.27,1.83 0.19,2.8C0.66,3.77 1.82,4.18 2.79,3.71C3.75,3.25 4.16,2.08 3.7,1.11C3.23,0.13 2.07,-0.27 1.1,0.19Z " /><path id="Fill 200" fill-rule="evenodd" style="fill:#0B096F" transform="translate(47.1843830979451 30.51723535852415)  rotate(0 1.9439139975595225 1.9537278687749278)" opacity="1" d="M1.1,0.19C0.13,0.66 -0.27,1.83 0.19,2.8C0.66,3.77 1.82,4.18 2.79,3.71C3.75,3.25 4.16,2.08 3.69,1.11C3.23,0.13 2.07,-0.27 1.1,0.19Z " /><path id="Fill 202" fill-rule="evenodd" style="fill:#FFC100" transform="translate(17.166102610216956 60.46965199882606)  rotate(0 29.623237595000855 35.71012723404362)" opacity="1" d="M21.82,68.51C41.57,67.41 59.25,71.42 59.25,71.42L52.34,53.67L39.66,33.66L46.24,35.03L47.37,8.16C47.37,8.16 13.73,-3.78 8.42,1.22C-14.39,22.7 16.38,68.36 16.38,68.36C16.38,68.36 20.46,68.58 21.82,68.51Z " /><path id="Fill 204" fill-rule="evenodd" style="fill:#EF3C86" transform="translate(148.33248084742817 131.58442787933592)  rotate(0 7.381083560399976 8.620285627932684)" opacity="1" d="M14.76,10.57L8.73,0L0,9.09L7.48,17.24L14.76,10.57Z " /><path id="Fill 206" fill-rule="evenodd" style="fill:#2D2D32" transform="translate(35.985846191602505 83.73392170630792)  rotate(0 61.20729293704444 32.5866011324812)" opacity="1" d="M86.88,4C82.12,-1.19 74.02,-1.36 69.05,3.63L33.52,30.4C33.52,30.4 28.49,44.32 0,45.47C0,45.47 10.81,70.5 35.86,61.63C47.14,57.63 79.08,30.16 79.08,30.16L115.01,65.17L122.41,45.41L86.88,4Z " /><path  id="Stroke 208" style="stroke:#0B096F; stroke-width:3.5279999065399164; stroke-opacity:1; stroke-dasharray:0 0" transform="translate(34.50216796403449 29.231885869108037)  rotate(0 1.6790415631975661 1.546543304667597)" d="M3.36,0L0,3.09 " /><path  id="Stroke 210" style="stroke:#0B096F; stroke-width:3.5279999065399164; stroke-opacity:1; stroke-dasharray:0 0" transform="translate(46.86573866513041 27.18122427764261)  rotate(0 2.7497289200663637 0.4438853437015412)" d="M0,0L5.5,0.89 " /><path id="Fill 212" fill-rule="evenodd" style="fill:#0B096F" transform="translate(155.81485648636297 114.91877079251488)  rotate(0 7.515872227281876 20.794072999176457)" opacity="1" d="M7.28,41.59L15.03,0C15.03,0 9.38,7.86 4.32,20.44L0,33.91L7.28,41.59Z " /><path id="Fill 214" fill-rule="evenodd" style="fill:#FE7A00" transform="translate(41.03661021058223 90.1351724358468)  rotate(0 9.750315306247503 4.926280667292268)" opacity="1" d="M0,0L19.5,9.85L15.79,3.99L0,0Z " /><path id="Fill 216" fill-rule="evenodd" style="fill:#FF77CA" transform="translate(85.84455128982752 45.36879518457914)  rotate(0 7.168735253009264 8.035936964088183)" opacity="1" d="M13.64,12.24C14.98,11.48 14.07,8.79 13.49,8.33C12.91,7.87 9.36,6.74 10.2,3.9C10.95,1.36 9.03,-1.12 7.61,0.53C7.35,0.84 7.03,1.82 7.03,1.82C7.03,1.82 3.24,4.78 0.55,9.44C-2.15,14.11 6,15.91 6,15.91C6,15.91 8.52,16.37 9.24,15.74C9.96,15.12 10.85,15.43 11.37,15.09C11.9,14.76 12.3,13 13.64,12.24Z " /><path  id="Stroke 218" style="stroke:#EF3C86; stroke-width:1.5119999599456793; stroke-opacity:1; stroke-dasharray:0 0" transform="translate(84.58975692439014 47.27165232644464)  rotate(0 4.391262327450027 7.470054124226664)" d="M0,14.94L2,8.21C2,8.21 2.01,4.12 8.78,0 " /><path  id="Stroke 220" style="stroke:#EF3C86; stroke-width:1.5119999599456793; stroke-opacity:1; stroke-dasharray:0 0" transform="translate(95.85732487838504 46.660735467851545)  rotate(0 2.1403489002915306 4.45901171783728)" d="M0.07,0C0.07,0 0.66,0.91 0.07,3.16C-0.52,5.41 2.66,6.24 3.48,7.04C4.3,7.83 4.28,8.92 4.28,8.92 " /><path  id="Stroke 222" style="stroke:#EF3C86; stroke-width:1.5119999599456793; stroke-opacity:1; stroke-dasharray:0 0" transform="translate(92.26833832812208 57.9109510449522)  rotate(0 0.2073980380297371 1.8317829782995545)" d="M0,3.66L0.41,0 " /></g></g></svg>